<svg width="521" height="52" viewBox="0 0 521 52" fill="none" xmlns="http://www.w3.org/2000/svg">
<path d="M167.946 51.5975H6.10011C2.73725 51.5975 0 48.8525 0 45.4922V6.09624C0 2.73467 2.73725 0 6.10011 0H167.946C171.307 0 174.141 2.73467 174.141 6.09624V45.4922C174.141 48.8525 171.307 51.5975 167.946 51.5975Z" fill="#A6A6A6"/>
<path d="M173.035 45.4925C173.035 48.222 170.824 50.433 168.089 50.433H6.24211C3.50873 50.433 1.29004 48.222 1.29004 45.4925V6.09394C1.29004 3.36573 3.50873 1.14703 6.24211 1.14703H168.088C170.824 1.14703 173.034 3.36573 173.034 6.09394L173.035 45.4925Z" fill="black"/>
<path d="M38.8634 25.5192C38.826 21.3618 42.2676 19.3391 42.425 19.245C40.4759 16.4032 37.4548 16.015 36.3932 15.984C33.8559 15.717 31.3947 17.5023 30.1022 17.5023C28.7839 17.5023 26.7935 16.0098 24.6483 16.0537C21.8879 16.0962 19.3054 17.6945 17.8891 20.1763C14.9661 25.2367 17.1461 32.6732 19.9465 36.7636C21.3474 38.7669 22.9843 41.0036 25.1269 40.9249C27.2231 40.8385 28.006 39.5886 30.5356 39.5886C33.042 39.5886 33.7772 40.9249 35.9624 40.8746C38.212 40.8385 39.6284 38.8623 40.9802 36.841C42.5991 34.5449 43.2492 32.2837 43.275 32.1676C43.2221 32.1495 38.906 30.5023 38.8634 25.5192Z" fill="white"/>
<path d="M34.7358 13.2937C35.8632 11.8838 36.6346 9.96562 36.4204 8.0191C34.7887 8.09134 32.748 9.1478 31.5728 10.5267C30.5332 11.7419 29.6044 13.7335 29.8443 15.6065C31.6773 15.7432 33.5593 14.6816 34.7358 13.2937Z" fill="white"/>
<path d="M69.1985 40.6376H66.269L64.6644 35.5953H59.0867L57.5581 40.6376H54.7061L60.2321 23.4711H63.6453L69.1985 40.6376ZM64.1806 33.4798L62.7295 28.9972C62.576 28.5393 62.2883 27.4609 61.8639 25.7633H61.8123C61.6433 26.4935 61.3712 27.5718 60.9971 28.9972L59.5717 33.4798H64.1806Z" fill="white"/>
<path d="M83.4101 34.2957C83.4101 36.4009 82.8412 38.0649 81.7035 39.2865C80.6844 40.3739 79.419 40.917 77.9085 40.917C76.278 40.917 75.1067 40.3313 74.3934 39.1601H74.3418V45.6807H71.5916V32.3337C71.5916 31.0103 71.5568 29.652 71.4897 28.2588H73.9084L74.0619 30.2208H74.1135C75.0306 28.7425 76.4225 28.0047 78.2903 28.0047C79.7505 28.0047 80.9695 28.5813 81.9447 29.7358C82.9225 30.8916 83.4101 32.4111 83.4101 34.2957ZM80.6083 34.3963C80.6083 33.1915 80.3374 32.1983 79.7931 31.4166C79.1984 30.6013 78.3999 30.1937 77.3989 30.1937C76.7204 30.1937 76.1038 30.4208 75.553 30.8684C75.001 31.3198 74.6398 31.9093 74.4708 32.6394C74.3857 32.98 74.3431 33.2586 74.3431 33.4779V35.5418C74.3431 36.4422 74.6191 37.202 75.1712 37.8224C75.7233 38.4429 76.4405 38.7525 77.3228 38.7525C78.3587 38.7525 79.1649 38.3526 79.7415 37.5554C80.3194 36.7569 80.6083 35.7043 80.6083 34.3963Z" fill="white"/>
<path d="M97.647 34.2957C97.647 36.4009 97.0782 38.0649 95.9392 39.2865C94.9214 40.3739 93.656 40.917 92.1455 40.917C90.515 40.917 89.3437 40.3313 88.6317 39.1601H88.5801V45.6807H85.8299V32.3337C85.8299 31.0103 85.7951 29.652 85.728 28.2588H88.1467L88.3002 30.2208H88.3518C89.2676 28.7425 90.6595 28.0047 92.5286 28.0047C93.9875 28.0047 95.2065 28.5813 96.1843 29.7358C97.1582 30.8916 97.647 32.4111 97.647 34.2957ZM94.8453 34.3963C94.8453 33.1915 94.5731 32.1983 94.0288 31.4166C93.4341 30.6013 92.6382 30.1937 91.6359 30.1937C90.9561 30.1937 90.3408 30.4208 89.7888 30.8684C89.2367 31.3198 88.8768 31.9093 88.7078 32.6394C88.6239 32.98 88.5801 33.2586 88.5801 33.4779V35.5418C88.5801 36.4422 88.8561 37.202 89.4056 37.8224C89.9577 38.4416 90.6749 38.7525 91.5598 38.7525C92.5957 38.7525 93.4019 38.3526 93.9785 37.5554C94.5564 36.7569 94.8453 35.7043 94.8453 34.3963Z" fill="white"/>
<path d="M113.565 35.8238C113.565 37.284 113.058 38.4721 112.04 39.3892C110.922 40.3915 109.365 40.892 107.364 40.892C105.517 40.892 104.036 40.536 102.915 39.8226L103.552 37.5304C104.76 38.2605 106.084 38.6269 107.528 38.6269C108.564 38.6269 109.37 38.3921 109.949 37.9251C110.526 37.4582 110.813 36.8313 110.813 36.0496C110.813 35.353 110.576 34.7661 110.1 34.2901C109.627 33.8141 108.836 33.3717 107.732 32.9627C104.726 31.8418 103.225 30.1997 103.225 28.0403C103.225 26.6292 103.751 25.4721 104.805 24.5717C105.855 23.67 107.256 23.2198 109.007 23.2198C110.57 23.2198 111.867 23.492 112.903 24.0351L112.215 26.277C111.248 25.7507 110.154 25.4876 108.93 25.4876C107.963 25.4876 107.207 25.7262 106.665 26.2009C106.207 26.6253 105.977 27.1425 105.977 27.7553C105.977 28.4338 106.239 28.9949 106.766 29.4361C107.223 29.8437 108.055 30.2848 109.263 30.7608C110.74 31.3555 111.825 32.0508 112.522 32.8479C113.218 33.6425 113.565 34.6371 113.565 35.8238Z" fill="white"/>
<path d="M122.658 30.3236H119.626V36.3334C119.626 37.8619 120.16 38.6256 121.231 38.6256C121.722 38.6256 122.13 38.583 122.452 38.4979L122.529 40.5863C121.987 40.7888 121.273 40.8907 120.39 40.8907C119.304 40.8907 118.455 40.5592 117.842 39.8975C117.232 39.2344 116.925 38.1225 116.925 36.5604V30.321H115.119V28.2571H116.925V25.9907L119.626 25.1754V28.2571H122.658V30.3236Z" fill="white"/>
<path d="M136.335 34.3471C136.335 36.2498 135.791 37.8119 134.705 39.0335C133.566 40.2912 132.054 40.9181 130.169 40.9181C128.353 40.9181 126.907 40.3157 125.829 39.1109C124.75 37.9061 124.211 36.3852 124.211 34.5522C124.211 32.6341 124.766 31.0629 125.879 29.8414C126.989 28.6185 128.488 28.0071 130.373 28.0071C132.189 28.0071 133.651 28.6095 134.754 29.8156C135.809 30.9855 136.335 32.4961 136.335 34.3471ZM133.482 34.4361C133.482 33.2945 133.238 32.3155 132.744 31.4989C132.167 30.5108 131.343 30.0181 130.275 30.0181C129.169 30.0181 128.33 30.5121 127.753 31.4989C127.259 32.3168 127.015 33.3113 127.015 34.4877C127.015 35.6293 127.259 36.6084 127.753 37.4236C128.348 38.4117 129.178 38.9045 130.25 38.9045C131.3 38.9045 132.125 38.4014 132.719 37.3978C133.226 36.5658 133.482 35.5764 133.482 34.4361Z" fill="white"/>
<path d="M145.274 30.6774C145.002 30.6271 144.711 30.6013 144.407 30.6013C143.44 30.6013 142.691 30.9664 142.165 31.6978C141.707 32.3428 141.478 33.158 141.478 34.1422V40.6371H138.729L138.755 32.157C138.755 30.7303 138.72 29.4314 138.651 28.2601H141.047L141.147 30.6284H141.224C141.514 29.8145 141.972 29.1592 142.599 28.6677C143.211 28.2253 143.873 28.0047 144.586 28.0047C144.84 28.0047 145.07 28.0228 145.274 28.055V30.6774Z" fill="white"/>
<path d="M157.574 33.863C157.574 34.3558 157.542 34.7711 157.473 35.1104H149.223C149.255 36.3332 149.654 37.2684 150.42 37.9134C151.115 38.49 152.014 38.7789 153.118 38.7789C154.34 38.7789 155.454 38.5842 156.457 38.1933L156.888 40.1024C155.716 40.6132 154.334 40.8674 152.738 40.8674C150.818 40.8674 149.312 40.3024 148.215 39.1737C147.121 38.045 146.573 36.5293 146.573 34.6279C146.573 32.7614 147.083 31.207 148.103 29.9674C149.171 28.6439 150.615 27.9822 152.431 27.9822C154.215 27.9822 155.565 28.6439 156.483 29.9674C157.209 31.0187 157.574 32.3189 157.574 33.863ZM154.951 33.1497C154.969 32.3344 154.79 31.6301 154.417 31.0355C153.941 30.2705 153.21 29.8887 152.226 29.8887C151.327 29.8887 150.595 30.2615 150.037 31.0097C149.579 31.6043 149.307 32.3177 149.223 33.1484L154.951 33.1497Z" fill="white"/>
<path d="M56.5959 16.0291H54.8589V10.4002H56.6728C57.2189 10.4002 57.6861 10.5129 58.0745 10.7383C58.463 10.9618 58.7607 11.2834 58.9678 11.703C59.1748 12.1208 59.2784 12.621 59.2784 13.2037C59.2784 13.79 59.1739 14.2948 58.965 14.718C58.7562 15.1395 58.452 15.4638 58.0526 15.691C57.6531 15.9164 57.1676 16.0291 56.5959 16.0291ZM55.5405 15.4244H56.5519C57.0173 15.4244 57.403 15.3346 57.709 15.155C58.015 14.9755 58.2431 14.7199 58.3934 14.3882C58.5436 14.0566 58.6187 13.6617 58.6187 13.2037C58.6187 12.7492 58.5445 12.358 58.3961 12.0301C58.2477 11.7003 58.026 11.4474 57.731 11.2715C57.436 11.0938 57.0686 11.0049 56.6289 11.0049H55.5405V15.4244ZM64.2141 16.0291V10.4002H67.6112V11.0049H64.8957V12.9068H67.4353V13.5115H64.8957V15.4244H67.6552V16.0291H64.2141ZM75.7104 11.8074C75.6775 11.5289 75.5437 11.3127 75.3092 11.1588C75.0746 11.0049 74.787 10.9279 74.4462 10.9279C74.197 10.9279 73.9789 10.9682 73.792 11.0489C73.607 11.1295 73.4622 11.2403 73.3578 11.3814C73.2552 11.5225 73.2039 11.6828 73.2039 11.8624C73.2039 12.0127 73.2396 12.1418 73.311 12.2499C73.3843 12.3562 73.4778 12.4451 73.5914 12.5165C73.705 12.5862 73.8241 12.6439 73.9487 12.6897C74.0733 12.7337 74.1878 12.7694 74.2922 12.7969L74.8639 12.9508C75.0105 12.9893 75.1736 13.0424 75.3531 13.1102C75.5345 13.178 75.7077 13.2705 75.8726 13.3878C76.0393 13.5032 76.1768 13.6516 76.2849 13.833C76.393 14.0144 76.447 14.2371 76.447 14.5009C76.447 14.8051 76.3673 15.0799 76.2079 15.3255C76.0503 15.571 75.8195 15.7661 75.5153 15.9109C75.213 16.0556 74.8456 16.128 74.4132 16.128C74.0101 16.128 73.661 16.063 73.366 15.9329C73.0728 15.8028 72.842 15.6214 72.6734 15.3887C72.5067 15.156 72.4123 14.8857 72.3903 14.5779H73.0939C73.1122 14.7904 73.1837 14.9663 73.3083 15.1056C73.4347 15.243 73.5941 15.3456 73.7865 15.4134C73.9807 15.4794 74.1896 15.5123 74.4132 15.5123C74.6734 15.5123 74.907 15.4702 75.114 15.3859C75.3211 15.2998 75.4851 15.1807 75.606 15.0286C75.7269 14.8747 75.7874 14.6951 75.7874 14.4899C75.7874 14.303 75.7352 14.1509 75.6307 14.0337C75.5263 13.9164 75.3889 13.8211 75.2185 13.7478C75.0481 13.6746 74.8639 13.6104 74.666 13.5555L73.9734 13.3576C73.5337 13.2311 73.1855 13.0507 72.929 12.8161C72.6725 12.5816 72.5442 12.2747 72.5442 11.8954C72.5442 11.5802 72.6294 11.3054 72.7998 11.0709C72.9721 10.8345 73.2029 10.6513 73.4924 10.5212C73.7838 10.3892 74.109 10.3233 74.4681 10.3233C74.8309 10.3233 75.1534 10.3883 75.4356 10.5184C75.7178 10.6467 75.9413 10.8226 76.1062 11.0461C76.273 11.2697 76.3609 11.5234 76.3701 11.8074H75.7104ZM85.8896 12.1592H85.2079C85.1676 11.9632 85.0971 11.7909 84.9963 11.6425C84.8974 11.4941 84.7764 11.3695 84.6335 11.2687C84.4924 11.1661 84.3358 11.0892 84.1635 11.0379C83.9913 10.9866 83.8117 10.9609 83.6248 10.9609C83.284 10.9609 82.9753 11.047 82.6986 11.2193C82.4238 11.3915 82.2048 11.6453 82.0417 11.9806C81.8805 12.3159 81.7999 12.7273 81.7999 13.2146C81.7999 13.702 81.8805 14.1134 82.0417 14.4487C82.2048 14.784 82.4238 15.0378 82.6986 15.21C82.9753 15.3823 83.284 15.4684 83.6248 15.4684C83.8117 15.4684 83.9913 15.4427 84.1635 15.3914C84.3358 15.3401 84.4924 15.2641 84.6335 15.1633C84.7764 15.0607 84.8974 14.9352 84.9963 14.7868C85.0971 14.6365 85.1676 14.4643 85.2079 14.27H85.8896C85.8382 14.5577 85.7448 14.8152 85.6092 15.0424C85.4736 15.2696 85.3051 15.4629 85.1035 15.6223C84.9019 15.7799 84.6757 15.8999 84.4246 15.9823C84.1754 16.0648 83.9088 16.106 83.6248 16.106C83.1448 16.106 82.7178 15.9887 82.3441 15.7542C81.9703 15.5197 81.6762 15.1862 81.4618 14.7538C81.2474 14.3214 81.1402 13.8083 81.1402 13.2146C81.1402 12.621 81.2474 12.1079 81.4618 11.6755C81.6762 11.2431 81.9703 10.9096 82.3441 10.6751C82.7178 10.4405 83.1448 10.3233 83.6248 10.3233C83.9088 10.3233 84.1754 10.3645 84.4246 10.447C84.6757 10.5294 84.9019 10.6503 85.1035 10.8098C85.3051 10.9673 85.4736 11.1597 85.6092 11.3869C85.7448 11.6123 85.8382 11.8697 85.8896 12.1592ZM91.0143 16.0291H90.2997L92.3665 10.4002H93.0701L95.1369 16.0291H94.4223L92.7403 11.2907H92.6963L91.0143 16.0291ZM91.2781 13.8303H94.1585V14.435H91.2781V13.8303ZM99.8061 16.0291V10.4002H101.708C102.148 10.4002 102.509 10.4754 102.791 10.6256C103.073 10.774 103.282 10.9783 103.418 11.2385C103.553 11.4987 103.621 11.7946 103.621 12.1263C103.621 12.4579 103.553 12.752 103.418 13.0085C103.282 13.265 103.074 13.4666 102.794 13.6132C102.513 13.7579 102.155 13.8303 101.719 13.8303H100.18V13.2146H101.697C101.998 13.2146 102.239 13.1707 102.423 13.0827C102.608 12.9948 102.741 12.8702 102.824 12.7089C102.908 12.5459 102.95 12.3516 102.95 12.1263C102.95 11.9009 102.908 11.7039 102.824 11.5353C102.74 11.3668 102.605 11.2367 102.42 11.1451C102.235 11.0516 101.99 11.0049 101.686 11.0049H100.488V16.0291H99.8061ZM102.456 13.5005L103.841 16.0291H103.049L101.686 13.5005H102.456ZM112.397 12.1592C112.337 11.9742 112.257 11.8084 112.158 11.6618C112.061 11.5134 111.944 11.3869 111.809 11.2825C111.675 11.178 111.523 11.0983 111.353 11.0434C111.182 10.9884 110.995 10.9609 110.792 10.9609C110.458 10.9609 110.155 11.047 109.882 11.2193C109.609 11.3915 109.392 11.6453 109.231 11.9806C109.07 12.3159 108.989 12.7273 108.989 13.2146C108.989 13.702 109.07 14.1134 109.234 14.4487C109.397 14.784 109.617 15.0378 109.896 15.21C110.174 15.3823 110.488 15.4684 110.836 15.4684C111.158 15.4684 111.442 15.3997 111.688 15.2622C111.935 15.123 112.128 14.9269 112.265 14.6741C112.404 14.4194 112.474 14.1198 112.474 13.7753L112.683 13.8193H110.99V13.2146H113.134V13.8193C113.134 14.2829 113.035 14.686 112.837 15.0286C112.641 15.3713 112.37 15.6369 112.023 15.8257C111.679 16.0126 111.283 16.106 110.836 16.106C110.337 16.106 109.9 15.9887 109.522 15.7542C109.146 15.5197 108.853 15.1862 108.643 14.7538C108.434 14.3214 108.329 13.8083 108.329 13.2146C108.329 12.7694 108.389 12.369 108.508 12.0136C108.629 11.6563 108.799 11.3521 109.019 11.1011C109.239 10.8501 109.499 10.6577 109.8 10.5239C110.1 10.3902 110.431 10.3233 110.792 10.3233C111.089 10.3233 111.365 10.3682 111.622 10.458C111.88 10.5459 112.11 10.6714 112.312 10.8345C112.515 10.9957 112.685 11.189 112.82 11.4144C112.956 11.638 113.049 11.8862 113.101 12.1592H112.397ZM118.15 16.0291H117.436L119.503 10.4002H120.206L122.273 16.0291H121.558L119.876 11.2907H119.832L118.15 16.0291ZM118.414 13.8303H121.295V14.435H118.414V13.8303ZM126.942 16.0291V10.4002H128.844C129.284 10.4002 129.645 10.4754 129.927 10.6256C130.209 10.774 130.418 10.9783 130.554 11.2385C130.689 11.4987 130.757 11.7946 130.757 12.1263C130.757 12.4579 130.689 12.752 130.554 13.0085C130.418 13.265 130.21 13.4666 129.93 13.6132C129.649 13.7579 129.291 13.8303 128.855 13.8303H127.316V13.2146H128.833C129.134 13.2146 129.376 13.1707 129.559 13.0827C129.744 12.9948 129.878 12.8702 129.96 12.7089C130.044 12.5459 130.086 12.3516 130.086 12.1263C130.086 11.9009 130.044 11.7039 129.96 11.5353C129.876 11.3668 129.741 11.2367 129.556 11.1451C129.371 11.0516 129.126 11.0049 128.822 11.0049H127.624V16.0291H126.942ZM129.592 13.5005L130.977 16.0291H130.185L128.822 13.5005H129.592ZM141.654 16.0291V10.4002H145.052V11.0049H142.336V12.9068H144.876V13.5115H142.336V15.4244H145.096V16.0291H141.654ZM154.536 10.4002V16.0291H153.876L150.809 11.6096H150.754V16.0291H150.073V10.4002H150.732L153.81 14.8307H153.865V10.4002H154.536Z" fill="white"/>
<mask id="mask0_9_50" style="mask-type:luminance" maskUnits="userSpaceOnUse" x="186" y="0" width="174" height="51">
<path d="M186.238 -5.34058e-05H359.09V50.3075H186.238V-5.34058e-05Z" fill="white"/>
</mask>
<g mask="url(#mask0_9_50)">
<path d="M352.688 50.3075H192.64C189.119 50.3075 186.238 47.4779 186.238 44.019V6.28838C186.238 2.82954 189.119 -9.53674e-05 192.64 -9.53674e-05H352.688C356.209 -9.53674e-05 359.09 2.82954 359.09 6.28838V44.019C359.09 47.4779 356.209 50.3075 352.688 50.3075Z" fill="#100F0D"/>
<path d="M352.688 -5.34058e-05H192.64C189.119 -5.34058e-05 186.238 2.82984 186.238 6.28843V44.0191C186.238 47.4779 189.119 50.3075 192.64 50.3075H352.688C356.209 50.3075 359.09 47.4779 359.09 44.0191V6.28843C359.09 2.82984 356.209 -5.34058e-05 352.688 -5.34058e-05ZM352.688 1.00606C355.653 1.00606 358.066 3.37548 358.066 6.28843V44.0191C358.066 46.932 355.653 49.3015 352.688 49.3015H192.64C189.675 49.3015 187.263 46.932 187.263 44.0191V6.28843C187.263 3.37548 189.675 1.00606 192.64 1.00606H352.688Z" fill="#A2A2A1"/>
<path d="M323.157 37.7305H325.546V22.0082H323.157V37.7305ZM344.676 27.6714L341.938 34.4882H341.856L339.013 27.6714H336.44L340.702 37.1985L338.272 42.4985H340.764L347.333 27.6714H344.676ZM331.127 35.9446C330.344 35.9446 329.253 35.5598 329.253 34.6092C329.253 33.3953 330.611 32.9312 331.785 32.9312C332.835 32.9312 333.33 33.1539 333.969 33.4568C333.783 34.9135 332.506 35.9446 331.127 35.9446ZM331.415 27.3282C329.686 27.3282 327.893 28.0765 327.152 29.7341L329.273 30.6046C329.727 29.7341 330.57 29.4511 331.456 29.4511C332.692 29.4511 333.948 30.1794 333.969 31.4736V31.6357C333.536 31.3931 332.609 31.0296 331.477 31.0296C329.191 31.0296 326.864 32.2634 326.864 34.5686C326.864 36.6729 328.738 38.0275 330.838 38.0275C332.445 38.0275 333.33 37.3205 333.887 36.4905H333.969V37.7042H336.275V31.6762C336.275 28.8852 334.154 27.3282 331.415 27.3282ZM316.65 29.5859H313.252V24.1953H316.65C318.436 24.1953 319.45 25.6492 319.45 26.8906C319.45 28.1093 318.436 29.5859 316.65 29.5859ZM316.589 22.0082H310.864V37.7305H313.252V31.7742H316.589C319.236 31.7742 321.84 29.89 321.84 26.8906C321.84 23.8909 319.236 22.0082 316.589 22.0082ZM285.372 35.9472C283.721 35.9472 282.34 34.5902 282.34 32.7262C282.34 30.8422 283.721 29.4637 285.372 29.4637C287.001 29.4637 288.279 30.8422 288.279 32.7262C288.279 34.5902 287.001 35.9472 285.372 35.9472ZM288.114 28.5519H288.032C287.496 27.9243 286.465 27.3558 285.166 27.3558C282.442 27.3558 279.947 29.7065 279.947 32.7262C279.947 35.7245 282.442 38.0551 285.166 38.0551C286.465 38.0551 287.496 37.4879 288.032 36.839H288.114V37.6085C288.114 39.656 287.001 40.7491 285.207 40.7491C283.742 40.7491 282.834 39.7164 282.463 38.8448L280.38 39.6965C280.977 41.1149 282.566 42.857 285.207 42.857C288.012 42.857 290.384 41.2359 290.384 37.2852V27.6804H288.114V28.5519ZM292.033 37.7305H294.427V22.0069H292.033V37.7305ZM297.954 32.5438C297.892 30.4761 299.584 29.4235 300.8 29.4235C301.75 29.4235 302.554 29.8889 302.822 30.5581L297.954 32.5438ZM305.38 30.7605C304.926 29.5644 303.544 27.3558 300.718 27.3558C297.913 27.3558 295.583 29.5241 295.583 32.7062C295.583 35.7043 297.892 38.0551 300.986 38.0551C303.483 38.0551 304.926 36.5558 305.525 35.6844L303.668 34.4682C303.049 35.3598 302.204 35.9472 300.986 35.9472C299.77 35.9472 298.903 35.4 298.346 34.3273L305.627 31.3679L305.38 30.7605ZM247.369 28.9985V31.2672H252.896C252.731 32.5438 252.298 33.4758 251.639 34.1234C250.833 34.9145 249.575 35.785 247.369 35.785C243.964 35.785 241.304 33.091 241.304 29.7468C241.304 26.4038 243.964 23.7098 247.369 23.7098C249.205 23.7098 250.545 24.4179 251.535 25.3296L253.165 23.73C251.782 22.4332 249.947 21.4397 247.369 21.4397C242.707 21.4397 238.788 25.1688 238.788 29.7468C238.788 34.3273 242.707 38.0551 247.369 38.0551C249.885 38.0551 251.782 37.2437 253.267 35.7245C254.793 34.2254 255.269 32.1189 255.269 30.4159C255.269 29.8889 255.227 29.4035 255.144 28.9985H247.369ZM261.553 35.9472C259.904 35.9472 258.48 34.6102 258.48 32.7062C258.48 30.7805 259.904 29.4637 261.553 29.4637C263.203 29.4637 264.627 30.7805 264.627 32.7062C264.627 34.6102 263.203 35.9472 261.553 35.9472ZM261.553 27.3558C258.541 27.3558 256.087 29.6059 256.087 32.7062C256.087 35.785 258.541 38.0551 261.553 38.0551C264.564 38.0551 267.02 35.785 267.02 32.7062C267.02 29.6059 264.564 27.3558 261.553 27.3558ZM273.478 35.9472C271.828 35.9472 270.404 34.6102 270.404 32.7062C270.404 30.7805 271.828 29.4637 273.478 29.4637C275.129 29.4637 276.551 30.7805 276.551 32.7062C276.551 34.6102 275.129 35.9472 273.478 35.9472ZM273.478 27.3558C270.467 27.3558 268.012 29.6059 268.012 32.7062C268.012 35.785 270.467 38.0551 273.478 38.0551C276.49 38.0551 278.944 35.785 278.944 32.7062C278.944 29.6059 276.49 27.3558 273.478 27.3558Z" fill="white"/>
<path d="M212.764 24.43L199.132 38.6421C199.133 38.6444 199.133 38.6483 199.134 38.6507C199.553 40.194 200.987 41.3297 202.69 41.3297C203.371 41.3297 204.01 41.1486 204.558 40.8316L204.602 40.8064L219.946 32.1096L212.764 24.43Z" fill="#EB3131"/>
<path d="M226.555 22.0091L226.542 22.0001L219.917 18.2282L212.454 24.752L219.944 32.107L226.533 28.373C227.688 27.759 228.473 26.5631 228.473 25.1846C228.473 23.8136 227.699 22.6241 226.555 22.0091Z" fill="#F6B60B"/>
<path d="M199.132 11.6672C199.05 11.964 199.006 12.276 199.006 12.5979V37.7116C199.006 38.0336 199.05 38.3454 199.133 38.6411L213.233 24.7925L199.132 11.6672Z" fill="#5778C5"/>
<path d="M212.865 25.1547L219.92 18.2259L204.594 9.49759C204.037 9.16932 203.387 8.98087 202.691 8.98087C200.988 8.98087 199.552 10.1189 199.133 11.6633C199.133 11.6646 199.132 11.6659 199.132 11.6673L212.865 25.1547Z" fill="#3BAD49"/>
<path d="M241.544 14.7396H239.807V9.11075H241.621C242.167 9.11075 242.634 9.22343 243.023 9.44881C243.411 9.67235 243.709 9.99391 243.916 10.4135C244.123 10.8313 244.227 11.3315 244.227 11.9142C244.227 12.5005 244.122 13.0053 243.913 13.4286C243.704 13.85 243.4 14.1743 243.001 14.4015C242.601 14.6269 242.116 14.7396 241.544 14.7396ZM240.489 14.1349H241.5C241.966 14.1349 242.351 14.0451 242.657 13.8656C242.963 13.686 243.191 13.4304 243.342 13.0987C243.492 12.7671 243.567 12.3722 243.567 11.9142C243.567 11.4598 243.493 11.0686 243.344 10.7406C243.196 10.4108 242.974 10.1579 242.679 9.982C242.384 9.80427 242.017 9.7154 241.577 9.7154H240.489V14.1349ZM249.162 14.7396V9.11075H252.559V9.7154H249.844V11.6173H252.384V12.222H249.844V14.1349H252.603V14.7396H249.162ZM260.659 10.518C260.626 10.2394 260.492 10.0232 260.257 9.86932C260.023 9.7154 259.735 9.63845 259.394 9.63845C259.145 9.63845 258.927 9.67876 258.74 9.75938C258.555 9.84 258.41 9.95085 258.306 10.0919C258.203 10.233 258.152 10.3934 258.152 10.5729C258.152 10.7232 258.188 10.8523 258.259 10.9605C258.333 11.0667 258.426 11.1556 258.54 11.227C258.653 11.2967 258.772 11.3544 258.897 11.4002C259.022 11.4442 259.136 11.4799 259.24 11.5074L259.812 11.6613C259.959 11.6998 260.122 11.7529 260.301 11.8207C260.483 11.8885 260.656 11.981 260.821 12.0983C260.988 12.2137 261.125 12.3622 261.233 12.5436C261.341 12.725 261.395 12.9476 261.395 13.2114C261.395 13.5156 261.316 13.7904 261.156 14.036C260.999 14.2815 260.768 14.4766 260.464 14.6214C260.161 14.7661 259.794 14.8385 259.361 14.8385C258.958 14.8385 258.609 14.7735 258.314 14.6434C258.021 14.5133 257.79 14.3319 257.622 14.0992C257.455 13.8665 257.361 13.5962 257.339 13.2884H258.042C258.06 13.5009 258.132 13.6768 258.257 13.8161C258.383 13.9535 258.542 14.0561 258.735 14.1239C258.929 14.1899 259.138 14.2229 259.361 14.2229C259.622 14.2229 259.855 14.1807 260.062 14.0964C260.269 14.0103 260.433 13.8912 260.554 13.7391C260.675 13.5852 260.736 13.4057 260.736 13.2004C260.736 13.0135 260.683 12.8615 260.579 12.7442C260.475 12.6269 260.337 12.5316 260.167 12.4584C259.996 12.3851 259.812 12.3209 259.614 12.266L258.922 12.0681C258.482 11.9416 258.134 11.7612 257.877 11.5266C257.621 11.2921 257.492 10.9852 257.492 10.6059C257.492 10.2907 257.578 10.0159 257.748 9.78137C257.92 9.545 258.151 9.36177 258.441 9.23168C258.732 9.09975 259.057 9.03379 259.416 9.03379C259.779 9.03379 260.102 9.09884 260.384 9.22893C260.666 9.35719 260.89 9.53309 261.054 9.75663C261.221 9.98017 261.309 10.2339 261.318 10.518H260.659ZM270.838 10.8698H270.156C270.116 10.6737 270.045 10.5015 269.945 10.353C269.846 10.2046 269.725 10.08 269.582 9.97926C269.441 9.87665 269.284 9.79969 269.112 9.74839C268.94 9.69708 268.76 9.67143 268.573 9.67143C268.232 9.67143 267.924 9.75755 267.647 9.92978C267.372 10.102 267.153 10.3558 266.99 10.6911C266.829 11.0264 266.748 11.4378 266.748 11.9252C266.748 12.4125 266.829 12.8239 266.99 13.1592C267.153 13.4945 267.372 13.7483 267.647 13.9205C267.924 14.0928 268.232 14.1789 268.573 14.1789C268.76 14.1789 268.94 14.1532 269.112 14.1019C269.284 14.0506 269.441 13.9746 269.582 13.8738C269.725 13.7712 269.846 13.6457 269.945 13.4973C270.045 13.347 270.116 13.1748 270.156 12.9806H270.838C270.786 13.2682 270.693 13.5257 270.557 13.7529C270.422 13.9801 270.253 14.1734 270.052 14.3328C269.85 14.4904 269.624 14.6104 269.373 14.6928C269.124 14.7753 268.857 14.8165 268.573 14.8165C268.093 14.8165 267.666 14.6993 267.292 14.4647C266.919 14.2302 266.624 13.8967 266.41 13.4643C266.196 13.0319 266.088 12.5188 266.088 11.9252C266.088 11.3315 266.196 10.8184 266.41 10.386C266.624 9.9536 266.919 9.62013 267.292 9.38559C267.666 9.15106 268.093 9.03379 268.573 9.03379C268.857 9.03379 269.124 9.07502 269.373 9.15747C269.624 9.23992 269.85 9.36086 270.052 9.52026C270.253 9.67784 270.422 9.87023 270.557 10.0974C270.693 10.3228 270.786 10.5802 270.838 10.8698ZM275.963 14.7396H275.248L277.315 9.11075H278.018L280.085 14.7396H279.371L277.689 10.0012H277.645L275.963 14.7396ZM276.226 12.5408H279.107V13.1455H276.226V12.5408ZM284.754 14.7396V9.11075H286.656C287.096 9.11075 287.457 9.18587 287.739 9.33612C288.021 9.48453 288.23 9.68884 288.366 9.94902C288.501 10.2092 288.569 10.5051 288.569 10.8368C288.569 11.1684 288.501 11.4625 288.366 11.719C288.23 11.9755 288.022 12.1771 287.742 12.3237C287.462 12.4684 287.103 12.5408 286.667 12.5408H285.128V11.9252H286.645C286.946 11.9252 287.188 11.8812 287.371 11.7932C287.556 11.7053 287.69 11.5807 287.772 11.4194C287.856 11.2564 287.899 11.0621 287.899 10.8368C287.899 10.6114 287.856 10.4144 287.772 10.2459C287.688 10.0773 287.553 9.94719 287.368 9.85558C287.183 9.76213 286.938 9.7154 286.634 9.7154H285.436V14.7396H284.754ZM287.404 12.211L288.789 14.7396H287.998L286.634 12.211H287.404ZM297.345 10.8698C297.285 10.6847 297.205 10.5189 297.106 10.3723C297.009 10.2239 296.893 10.0974 296.757 9.993C296.623 9.88856 296.471 9.80885 296.301 9.75388C296.13 9.69891 295.944 9.67143 295.74 9.67143C295.407 9.67143 295.103 9.75755 294.83 9.92978C294.557 10.102 294.34 10.3558 294.179 10.6911C294.018 11.0264 293.937 11.4378 293.937 11.9252C293.937 12.4125 294.019 12.8239 294.182 13.1592C294.345 13.4945 294.566 13.7483 294.844 13.9205C295.123 14.0928 295.436 14.1789 295.784 14.1789C296.107 14.1789 296.391 14.1102 296.636 13.9727C296.883 13.8335 297.076 13.6374 297.213 13.3846C297.353 13.1299 297.422 12.8303 297.422 12.4858L297.631 12.5298H295.938V11.9252H298.082V12.5298C298.082 12.9934 297.983 13.3965 297.785 13.7391C297.589 14.0818 297.318 14.3475 296.971 14.5362C296.627 14.7231 296.231 14.8165 295.784 14.8165C295.286 14.8165 294.848 14.6993 294.47 14.4647C294.095 14.2302 293.802 13.8967 293.591 13.4643C293.382 13.0319 293.278 12.5188 293.278 11.9252C293.278 11.4799 293.337 11.0795 293.456 10.7241C293.577 10.3668 293.748 10.0626 293.967 9.8116C294.187 9.56058 294.447 9.36818 294.748 9.23443C295.048 9.10067 295.379 9.03379 295.74 9.03379C296.037 9.03379 296.314 9.07868 296.57 9.16846C296.829 9.25641 297.058 9.38193 297.26 9.545C297.463 9.70624 297.633 9.89955 297.768 10.1249C297.904 10.3485 297.998 10.5967 298.049 10.8698H297.345ZM303.099 14.7396H302.384L304.451 9.11075H305.155L307.221 14.7396H306.507L304.825 10.0012H304.781L303.099 14.7396ZM303.363 12.5408H306.243V13.1455H303.363V12.5408ZM311.89 14.7396V9.11075H313.792C314.232 9.11075 314.593 9.18587 314.875 9.33612C315.157 9.48453 315.366 9.68884 315.502 9.94902C315.638 10.2092 315.705 10.5051 315.705 10.8368C315.705 11.1684 315.638 11.4625 315.502 11.719C315.366 11.9755 315.158 12.1771 314.878 12.3237C314.598 12.4684 314.24 12.5408 313.803 12.5408H312.264V11.9252H313.781C314.082 11.9252 314.324 11.8812 314.507 11.7932C314.692 11.7053 314.826 11.5807 314.908 11.4194C314.993 11.2564 315.035 11.0621 315.035 10.8368C315.035 10.6114 314.993 10.4144 314.908 10.2459C314.824 10.0773 314.689 9.94719 314.504 9.85558C314.319 9.76213 314.075 9.7154 313.77 9.7154H312.572V14.7396H311.89ZM314.54 12.211L315.925 14.7396H315.134L313.77 12.211H314.54ZM326.603 14.7396V9.11075H330V9.7154H327.284V11.6173H329.824V12.222H327.284V14.1349H330.044V14.7396H326.603ZM339.484 9.11075V14.7396H338.825L335.757 10.3201H335.702V14.7396H335.021V9.11075H335.68L338.759 13.5412H338.814V9.11075H339.484Z" fill="white"/>
</g>
<path d="M515.451 50.248H376.735C373.683 50.248 371.187 47.4217 371.187 43.9669V6.28101C371.187 2.82626 373.683 -1.90735e-05 376.735 -1.90735e-05H515.451C518.503 -1.90735e-05 521 2.82626 521 6.28101V43.9669C521 47.4217 518.503 50.248 515.451 50.248Z" fill="#100F0D"/>
<path d="M416.853 28.4191H413.974V20.2982H416.877C417.694 20.2982 418.397 20.4608 418.986 20.7859C419.576 21.1084 420.029 21.5724 420.347 22.1777C420.666 22.7831 420.826 23.5074 420.826 24.3507C420.826 25.1966 420.666 25.9236 420.347 26.5316C420.029 27.1396 419.573 27.6062 418.979 27.9313C418.386 28.2565 417.678 28.4191 416.853 28.4191ZM415.691 26.9479H416.782C417.289 26.9479 417.716 26.8581 418.063 26.6783C418.412 26.4959 418.673 26.2144 418.848 25.8337C419.025 25.4504 419.113 24.9561 419.113 24.3507C419.113 23.7506 419.025 23.2602 418.848 22.8796C418.673 22.4989 418.413 22.2187 418.067 22.0389C417.72 21.8592 417.293 21.7693 416.786 21.7693H415.691V26.9479ZM422.098 28.4191V20.2982H427.57V21.7138H423.815V23.6488H427.289V25.0644H423.815V27.0035H427.586V28.4191H422.098ZM433.341 22.6337C433.309 22.3139 433.173 22.0654 432.932 21.8883C432.692 21.7111 432.365 21.6226 431.953 21.6226C431.673 21.6226 431.436 21.6622 431.243 21.7415C431.05 21.8182 430.902 21.9253 430.799 22.0627C430.699 22.2002 430.648 22.3562 430.648 22.5306C430.643 22.676 430.673 22.8029 430.74 22.9113C430.808 23.0197 430.902 23.1135 431.021 23.1928C431.14 23.2695 431.278 23.3369 431.433 23.3951C431.589 23.4506 431.756 23.4982 431.933 23.5378L432.663 23.7123C433.017 23.7916 433.342 23.8973 433.638 24.0295C433.934 24.1617 434.191 24.3243 434.407 24.5172C434.624 24.7102 434.792 24.9376 434.911 25.1993C435.033 25.461 435.095 25.761 435.097 26.0994C435.095 26.5964 434.968 27.0273 434.717 27.3921C434.468 27.7542 434.109 28.0358 433.638 28.2367C433.17 28.4349 432.606 28.5341 431.945 28.5341C431.289 28.5341 430.718 28.4336 430.232 28.2327C429.748 28.0318 429.37 27.7344 429.098 27.3405C428.828 26.944 428.687 26.4536 428.674 25.8694H430.335C430.354 26.1417 430.432 26.369 430.569 26.5514C430.709 26.7312 430.896 26.8673 431.128 26.9598C431.363 27.0497 431.629 27.0947 431.925 27.0947C432.216 27.0947 432.468 27.0524 432.683 26.9678C432.899 26.8832 433.067 26.7655 433.186 26.6149C433.305 26.4642 433.365 26.291 433.365 26.0954C433.365 25.913 433.31 25.7597 433.202 25.6354C433.096 25.5112 432.94 25.4055 432.734 25.3182C432.531 25.231 432.281 25.1517 431.985 25.0803L431.1 24.8582C430.416 24.6917 429.875 24.4313 429.479 24.0771C429.082 23.7229 428.885 23.2457 428.888 22.6456C428.885 22.1539 429.016 21.7244 429.28 21.3569C429.547 20.9895 429.913 20.7026 430.379 20.4964C430.844 20.2902 431.373 20.1871 431.965 20.1871C432.568 20.1871 433.094 20.2902 433.543 20.4964C433.995 20.7026 434.347 20.9895 434.598 21.3569C434.849 21.7244 434.978 22.15 434.986 22.6337H433.341ZM443.418 23.1413H441.681C441.649 22.9166 441.584 22.717 441.486 22.5425C441.389 22.3654 441.263 22.2147 441.11 22.0905C440.956 21.9662 440.779 21.8711 440.578 21.805C440.38 21.7389 440.165 21.7059 439.932 21.7059C439.512 21.7059 439.146 21.8103 438.834 22.0191C438.522 22.2253 438.28 22.5267 438.108 22.9232C437.936 23.3171 437.85 23.7956 437.85 24.3586C437.85 24.9376 437.936 25.424 438.108 25.8178C438.283 26.2117 438.526 26.5091 438.838 26.71C439.15 26.9109 439.51 27.0114 439.92 27.0114C440.15 27.0114 440.363 26.981 440.559 26.9202C440.757 26.8594 440.933 26.7708 441.086 26.6545C441.239 26.5356 441.366 26.3915 441.467 26.2223C441.57 26.0531 441.641 25.8601 441.681 25.6434L443.418 25.6513C443.373 26.024 443.26 26.3836 443.081 26.7299C442.903 27.0735 442.664 27.3815 442.363 27.6538C442.064 27.9234 441.707 28.1375 441.292 28.2961C440.88 28.4521 440.413 28.5301 439.892 28.5301C439.168 28.5301 438.52 28.3662 437.949 28.0384C437.381 27.7106 436.932 27.2361 436.601 26.6149C436.273 25.9936 436.11 25.2416 436.11 24.3586C436.11 23.473 436.276 22.7196 436.609 22.0984C436.942 21.4772 437.394 21.004 437.965 20.6788C438.536 20.351 439.179 20.1871 439.892 20.1871C440.363 20.1871 440.799 20.2532 441.201 20.3854C441.605 20.5176 441.964 20.7106 442.276 20.9643C442.587 21.2155 442.841 21.5234 443.037 21.8883C443.235 22.2531 443.362 22.6707 443.418 23.1413ZM445.896 28.4191H444.056L446.859 20.2982H449.072L451.872 28.4191H450.032L447.997 22.1539H447.934L445.896 28.4191ZM445.781 25.227H450.127V26.5673H445.781V25.227ZM452.849 28.4191V20.2982H456.053C456.666 20.2982 457.19 20.4079 457.623 20.6273C458.059 20.8441 458.391 21.152 458.618 21.5512C458.848 21.9477 458.963 22.4143 458.963 22.9509C458.963 23.4902 458.847 23.9542 458.614 24.3428C458.382 24.7287 458.045 25.0248 457.603 25.231C457.165 25.4372 456.633 25.5403 456.009 25.5403H453.864V24.1604H455.732C456.06 24.1604 456.332 24.1154 456.549 24.0255C456.765 23.9357 456.927 23.8008 457.032 23.6211C457.141 23.4413 457.195 23.2179 457.195 22.9509C457.195 22.6813 457.141 22.454 457.032 22.2689C456.927 22.0839 456.764 21.9438 456.545 21.8486C456.328 21.7508 456.054 21.7019 455.724 21.7019H454.566V28.4191H452.849ZM457.235 24.7234L459.253 28.4191H457.357L455.383 24.7234H457.235ZM465.562 22.9232C465.506 22.7302 465.428 22.5597 465.328 22.4117C465.227 22.261 465.104 22.1341 464.959 22.031C464.816 21.9253 464.652 21.8446 464.467 21.7891C464.285 21.7336 464.083 21.7059 463.861 21.7059C463.446 21.7059 463.081 21.8089 462.766 22.0151C462.454 22.2213 462.211 22.5214 462.037 22.9153C461.862 23.3065 461.775 23.785 461.775 24.3507C461.775 24.9164 461.861 25.3975 462.033 25.7941C462.204 26.1906 462.448 26.4933 462.762 26.7021C463.077 26.9083 463.448 27.0114 463.876 27.0114C464.265 27.0114 464.597 26.9427 464.872 26.8052C465.149 26.6651 465.361 26.4682 465.506 26.2144C465.654 25.9606 465.728 25.6606 465.728 25.3143L466.077 25.3658H463.983V24.0731H467.382V25.0962C467.382 25.8099 467.231 26.4232 466.93 26.9361C466.628 27.4463 466.213 27.8401 465.685 28.1177C465.156 28.3926 464.551 28.5301 463.868 28.5301C463.107 28.5301 462.438 28.3622 461.862 28.0265C461.286 27.6881 460.836 27.2083 460.514 26.5871C460.194 25.9632 460.034 25.2231 460.034 24.3666C460.034 23.7083 460.129 23.1215 460.32 22.606C460.513 22.0878 460.782 21.649 461.128 21.2895C461.475 20.93 461.878 20.6564 462.338 20.4687C462.798 20.281 463.296 20.1871 463.833 20.1871C464.293 20.1871 464.721 20.2546 465.118 20.3894C465.514 20.5216 465.866 20.7092 466.172 20.9524C466.482 21.1957 466.734 21.4851 466.93 21.8208C467.125 22.1539 467.251 22.5214 467.306 22.9232H465.562ZM469.82 28.4191H467.98L470.784 20.2982H472.997L475.796 28.4191H473.956L471.922 22.1539H471.859L469.82 28.4191ZM469.705 25.227H474.051V26.5673H469.705V25.227ZM476.773 28.4191V20.2982H479.977C480.591 20.2982 481.114 20.4079 481.548 20.6273C481.984 20.8441 482.316 21.152 482.543 21.5512C482.773 21.9477 482.888 22.4143 482.888 22.9509C482.888 23.4902 482.772 23.9542 482.539 24.3428C482.306 24.7287 481.969 25.0248 481.528 25.231C481.089 25.4372 480.558 25.5403 479.934 25.5403H477.789V24.1604H479.656C479.984 24.1604 480.256 24.1154 480.473 24.0255C480.69 23.9357 480.851 23.8008 480.957 23.6211C481.065 23.4413 481.119 23.2179 481.119 22.9509C481.119 22.6813 481.065 22.454 480.957 22.2689C480.851 22.0839 480.689 21.9438 480.469 21.8486C480.252 21.7508 479.979 21.7019 479.648 21.7019H478.49V28.4191H476.773ZM481.159 24.7234L483.177 28.4191H481.282L479.307 24.7234H481.159ZM488.085 28.4191H486.246L489.049 20.2982H491.262L494.061 28.4191H492.221L490.187 22.1539H490.124L488.085 28.4191ZM487.97 25.227H492.316V26.5673H487.97V25.227ZM495.039 28.4191V20.2982H498.242C498.858 20.2982 499.383 20.4158 499.817 20.6511C500.25 20.8837 500.581 21.2075 500.808 21.6226C501.038 22.035 501.153 22.5108 501.153 23.0501C501.153 23.5894 501.037 24.0652 500.804 24.4776C500.571 24.89 500.234 25.2112 499.793 25.4411C499.354 25.6711 498.823 25.7861 498.199 25.7861H496.157V24.4102H497.921C498.252 24.4102 498.524 24.3533 498.738 24.2397C498.955 24.1233 499.116 23.9634 499.222 23.7599C499.33 23.5537 499.384 23.3171 499.384 23.0501C499.384 22.7804 499.33 22.5452 499.222 22.3443C499.116 22.1407 498.955 21.9834 498.738 21.8724C498.521 21.7587 498.246 21.7019 497.913 21.7019H496.756V28.4191H495.039ZM502.268 28.4191V20.2982H503.985V23.8788H504.092L507.015 20.2982H509.073L506.059 23.9343L509.108 28.4191H507.054L504.83 25.0803L503.985 26.1113V28.4191H502.268Z" fill="white"/>
<mask id="mask1_9_50" style="mask-type:alpha" maskUnits="userSpaceOnUse" x="385" y="15" width="20" height="20">
<rect x="385.801" y="15.4092" width="18.7586" height="18.7586" fill="#D9D9D9"/>
</mask>
<g mask="url(#mask1_9_50)">
<path d="M388.927 32.6048C388.498 32.6048 388.13 32.4517 387.823 32.1456C387.517 31.8394 387.364 31.4714 387.364 31.0415V18.5358C387.364 18.1059 387.517 17.7379 387.823 17.4318C388.13 17.1257 388.498 16.9726 388.927 16.9726H395.18L399.87 21.6622V24.9841H398.307V22.4439H394.399V18.5358H388.927V31.0415H397.525V32.6048H388.927ZM389.709 30.2599C389.761 29.6216 389.957 29.0354 390.295 28.5013C390.634 27.9672 391.077 27.5438 391.624 27.2312L390.881 25.9025C390.881 25.8894 390.908 25.7917 390.96 25.6094C391.025 25.5833 391.087 25.5703 391.145 25.5703C391.204 25.5703 391.246 25.6028 391.272 25.668L392.034 27.0358C392.295 26.9316 392.555 26.8502 392.816 26.7915C393.077 26.7329 393.344 26.7036 393.617 26.7036C393.891 26.7036 394.158 26.7329 394.418 26.7915C394.679 26.8502 394.939 26.9316 395.2 27.0358L395.962 25.668L396.255 25.5898C396.32 25.6159 396.359 25.6615 396.372 25.7266C396.385 25.7917 396.379 25.8504 396.353 25.9025L395.61 27.2312C396.157 27.5438 396.6 27.9672 396.939 28.5013C397.278 29.0354 397.473 29.6216 397.525 30.2599H389.709ZM391.859 29.0875C391.963 29.0875 392.054 29.0484 392.132 28.9703C392.21 28.8921 392.249 28.8009 392.249 28.6967C392.249 28.5925 392.21 28.5013 392.132 28.4232C392.054 28.345 391.963 28.3059 391.859 28.3059C391.754 28.3059 391.663 28.345 391.585 28.4232C391.507 28.5013 391.468 28.5925 391.468 28.6967C391.468 28.8009 391.507 28.8921 391.585 28.9703C391.663 29.0484 391.754 29.0875 391.859 29.0875ZM395.376 29.0875C395.48 29.0875 395.571 29.0484 395.649 28.9703C395.727 28.8921 395.767 28.8009 395.767 28.6967C395.767 28.5925 395.727 28.5013 395.649 28.4232C395.571 28.345 395.48 28.3059 395.376 28.3059C395.272 28.3059 395.18 28.345 395.102 28.4232C395.024 28.5013 394.985 28.5925 394.985 28.6967C394.985 28.8009 395.024 28.8921 395.102 28.9703C395.18 29.0484 395.272 29.0875 395.376 29.0875ZM401.433 32.6048L398.307 29.4783L399.401 28.3645L400.652 29.5956V26.3519H402.215V29.5956L403.465 28.3645L404.56 29.4783L401.433 32.6048Z" fill="#6CFF69"/>
</g>
<path d="M515.451 -1.90735e-05H376.735C373.683 -1.90735e-05 371.187 2.82653 371.187 6.28102V43.967C371.187 47.4217 373.683 50.248 376.735 50.248H515.451C518.503 50.248 521 47.4217 521 43.967V6.28102C521 2.82653 518.503 -1.90735e-05 515.451 -1.90735e-05ZM515.451 1.00491C518.022 1.00491 520.112 3.37152 520.112 6.28102V43.967C520.112 46.8765 518.022 49.2431 515.451 49.2431H376.735C374.165 49.2431 372.074 46.8765 372.074 43.967V6.28102C372.074 3.37152 374.165 1.00491 376.735 1.00491H515.451Z" fill="#A2A2A1"/>
</svg>
