<svg width="209" height="63" viewBox="0 0 209 63" fill="none" xmlns="http://www.w3.org/2000/svg">
<path d="M201.49 62.3054H7.31849C3.28396 62.3054 0 59.0121 0 54.9807V7.71619C0 3.68321 3.28396 0.402344 7.31849 0.402344H201.49C205.523 0.402344 208.923 3.68321 208.923 7.71619V54.9807C208.923 59.0121 205.523 62.3054 201.49 62.3054Z" fill="#A6A6A6"/>
<path d="M207.595 54.981C207.595 58.2556 204.942 60.9082 201.661 60.9082H7.48851C4.20919 60.9082 1.54736 58.2556 1.54736 54.981V7.71334C1.54736 4.44021 4.20919 1.77838 7.48851 1.77838H201.66C204.942 1.77838 207.593 4.44021 207.593 7.71334L207.595 54.981Z" fill="black"/>
<path d="M46.6253 31.0187C46.5804 26.0309 50.7094 23.6043 50.8982 23.4913C48.5598 20.082 44.9354 19.6162 43.6617 19.579C40.6176 19.2587 37.6649 21.4005 36.1142 21.4005C34.5326 21.4005 32.1446 19.61 29.571 19.6626C26.2592 19.7137 23.161 21.6311 21.4617 24.6087C17.9549 30.6798 20.5703 39.6016 23.9301 44.509C25.6108 46.9123 27.5747 49.5958 30.1452 49.5014C32.66 49.3977 33.5994 47.8981 36.6342 47.8981C39.6411 47.8981 40.5232 49.5014 43.1448 49.4411C45.8438 49.3977 47.543 47.0269 49.1649 44.6018C51.1071 41.8471 51.8871 39.1342 51.918 38.9949C51.8546 38.9733 46.6764 36.997 46.6253 31.0187Z" fill="white"/>
<path d="M41.6735 16.3515C43.0261 14.66 43.9515 12.3587 43.6946 10.0234C41.7369 10.1101 39.2887 11.3776 37.8788 13.0319C36.6315 14.4897 35.5172 16.8792 35.8051 19.1263C38.0042 19.2903 40.2621 18.0167 41.6735 16.3515Z" fill="white"/>
<path d="M83.0189 49.1567H79.5043L77.5791 43.1072H70.8874L69.0535 49.1567H65.6318L72.2617 28.5615H76.3565L83.0189 49.1567ZM76.9988 40.5692L75.2578 35.1913C75.0736 34.642 74.7285 33.3482 74.2193 31.3116H74.1574C73.9547 32.1875 73.6282 33.4813 73.1794 35.1913L71.4693 40.5692H76.9988Z" fill="white"/>
<path d="M100.07 41.5483C100.07 44.074 99.3872 46.0703 98.0223 47.5359C96.7997 48.8405 95.2815 49.492 93.4693 49.492C91.5132 49.492 90.108 48.7894 89.2521 47.3842H89.1902V55.2072H85.8908V39.1945C85.8908 37.6066 85.849 35.977 85.7686 34.3057H88.6703L88.8544 36.6595H88.9163C90.0167 34.886 91.6865 34.0008 93.9274 34.0008C95.6792 34.0008 97.1417 34.6926 98.3117 36.0776C99.4847 37.4643 100.07 39.2873 100.07 41.5483ZM96.7084 41.669C96.7084 40.2236 96.3834 39.032 95.7303 38.0941C95.0169 37.1161 94.0589 36.627 92.858 36.627C92.044 36.627 91.3042 36.8994 90.6434 37.4364C89.9811 37.9781 89.5477 38.6853 89.345 39.5612C89.2429 39.9698 89.1918 40.3041 89.1918 40.5672V43.0433C89.1918 44.1235 89.523 45.035 90.1853 45.7794C90.8477 46.5238 91.7082 46.8952 92.7667 46.8952C94.0094 46.8952 94.9766 46.4155 95.6684 45.4591C96.3617 44.5011 96.7084 43.2383 96.7084 41.669Z" fill="white"/>
<path d="M117.15 41.5483C117.15 44.074 116.467 46.0703 115.101 47.5359C113.88 48.8405 112.361 49.492 110.549 49.492C108.593 49.492 107.188 48.7894 106.334 47.3842H106.272V55.2072H102.972V39.1945C102.972 37.6066 102.931 35.977 102.85 34.3057H105.752L105.936 36.6595H105.998C107.097 34.886 108.766 34.0008 111.009 34.0008C112.759 34.0008 114.222 34.6926 115.395 36.0776C116.563 37.4643 117.15 39.2873 117.15 41.5483ZM113.788 41.669C113.788 40.2236 113.462 39.032 112.809 38.0941C112.095 37.1161 111.14 36.627 109.938 36.627C109.122 36.627 108.384 36.8994 107.722 37.4364C107.06 37.9781 106.628 38.6853 106.425 39.5612C106.324 39.9698 106.272 40.3041 106.272 40.5672V43.0433C106.272 44.1235 106.603 45.035 107.262 45.7794C107.925 46.5222 108.785 46.8952 109.847 46.8952C111.089 46.8952 112.057 46.4155 112.748 45.4591C113.442 44.5011 113.788 43.2383 113.788 41.669Z" fill="white"/>
<path d="M136.247 43.3815C136.247 45.1334 135.638 46.5587 134.417 47.659C133.076 48.8615 131.208 49.4619 128.807 49.4619C126.591 49.4619 124.815 49.0348 123.47 48.179L124.234 45.4289C125.683 46.3049 127.272 46.7444 129.004 46.7444C130.247 46.7444 131.214 46.4627 131.909 45.9025C132.6 45.3423 132.946 44.5902 132.946 43.6523C132.946 42.8166 132.661 42.1125 132.09 41.5414C131.522 40.9704 130.573 40.4396 129.248 39.949C125.643 38.6041 123.841 36.6341 123.841 34.0434C123.841 32.3504 124.473 30.9622 125.737 29.882C126.997 28.8002 128.677 28.2601 130.779 28.2601C132.653 28.2601 134.21 28.5867 135.453 29.2382L134.628 31.9279C133.467 31.2965 132.155 30.9808 130.686 30.9808C129.525 30.9808 128.619 31.2671 127.969 31.8366C127.419 32.3457 127.144 32.9663 127.144 33.7014C127.144 34.5154 127.458 35.1886 128.089 35.7179C128.639 36.2069 129.637 36.7362 131.085 37.3073C132.857 38.0207 134.159 38.8548 134.996 39.8112C135.83 40.7646 136.247 41.9577 136.247 43.3815Z" fill="white"/>
<path d="M147.155 36.7827H143.519V43.9929C143.519 45.8267 144.159 46.7429 145.444 46.7429C146.033 46.7429 146.522 46.6918 146.909 46.5897L147.001 49.0952C146.351 49.3382 145.495 49.4604 144.435 49.4604C143.132 49.4604 142.113 49.0627 141.378 48.2688C140.646 47.4734 140.278 46.1393 140.278 44.2652V36.7796H138.111V34.3035H140.278V31.5844L143.519 30.6063V34.3035H147.155V36.7827Z" fill="white"/>
<path d="M163.565 41.6096C163.565 43.8923 162.912 45.7664 161.609 47.232C160.242 48.7409 158.428 49.493 156.167 49.493C153.988 49.493 152.253 48.7703 150.96 47.3248C149.666 45.8794 149.019 44.0548 149.019 41.8557C149.019 39.5545 149.684 37.6695 151.02 36.204C152.353 34.7368 154.151 34.0033 156.412 34.0033C158.591 34.0033 160.344 34.726 161.667 36.173C162.933 37.5767 163.565 39.3889 163.565 41.6096ZM160.141 41.7164C160.141 40.3468 159.849 39.1722 159.256 38.1926C158.564 37.0071 157.576 36.416 156.294 36.416C154.968 36.416 153.96 37.0087 153.269 38.1926C152.676 39.1737 152.383 40.3669 152.383 41.7783C152.383 43.1479 152.676 44.3225 153.269 45.3006C153.982 46.486 154.979 47.0772 156.265 47.0772C157.525 47.0772 158.513 46.4737 159.227 45.2697C159.835 44.2715 160.141 43.0845 160.141 41.7164Z" fill="white"/>
<path d="M174.29 37.2074C173.963 37.147 173.615 37.1161 173.25 37.1161C172.089 37.1161 171.191 37.554 170.56 38.4315C170.01 39.2053 169.735 40.1834 169.735 41.3642V49.1562H166.437L166.468 38.9824C166.468 37.2708 166.426 35.7124 166.344 34.3072H169.218L169.339 37.1486H169.43C169.778 36.172 170.328 35.3859 171.08 34.7962C171.815 34.2654 172.609 34.0008 173.465 34.0008C173.77 34.0008 174.045 34.0225 174.29 34.0611V37.2074Z" fill="white"/>
<path d="M189.046 41.0288C189.046 41.62 189.007 42.1183 188.925 42.5253H179.027C179.066 43.9924 179.544 45.1144 180.463 45.8882C181.297 46.5799 182.376 46.9266 183.701 46.9266C185.166 46.9266 186.503 46.6929 187.706 46.224L188.223 48.5144C186.817 49.1273 185.158 49.4321 183.244 49.4321C180.941 49.4321 179.134 48.7543 177.818 47.4002C176.506 46.046 175.848 44.2276 175.848 41.9465C175.848 39.7072 176.459 37.8423 177.684 36.3551C178.965 34.7673 180.697 33.9734 182.876 33.9734C185.016 33.9734 186.636 34.7673 187.737 36.3551C188.608 37.6164 189.046 39.1763 189.046 41.0288ZM185.9 40.173C185.921 39.1949 185.706 38.3499 185.259 37.6365C184.688 36.7188 183.81 36.2607 182.63 36.2607C181.551 36.2607 180.673 36.708 180.003 37.6056C179.454 38.319 179.127 39.1748 179.027 40.1714L185.9 40.173Z" fill="white"/>
<path d="M67.8998 20.2348H65.8158V13.4817H67.9921C68.6472 13.4817 69.2077 13.6169 69.6737 13.8873C70.1398 14.1555 70.497 14.5413 70.7454 15.0447C70.9938 15.5459 71.118 16.146 71.118 16.8451C71.118 17.5485 70.9927 18.1541 70.7421 18.6619C70.4915 19.1675 70.1266 19.5566 69.6474 19.8292C69.1681 20.0996 68.5856 20.2348 67.8998 20.2348ZM66.6336 19.5094H67.847C68.4054 19.5094 68.8681 19.4017 69.2352 19.1862C69.6023 18.9708 69.876 18.6641 70.0562 18.2663C70.2365 17.8684 70.3266 17.3946 70.3266 16.8451C70.3266 16.2999 70.2376 15.8306 70.0595 15.4371C69.8815 15.0414 69.6155 14.738 69.2616 14.527C68.9077 14.3138 68.4669 14.2072 67.9393 14.2072H66.6336V19.5094ZM77.8574 13.4817V20.2348H77.0396V13.4817H77.8574ZM87.7399 15.17C87.7004 14.8359 87.5399 14.5765 87.2585 14.3918C86.9771 14.2072 86.632 14.1148 86.2231 14.1148C85.9242 14.1148 85.6626 14.1632 85.4384 14.2599C85.2163 14.3567 85.0427 14.4896 84.9174 14.6589C84.7943 14.8282 84.7327 15.0205 84.7327 15.236C84.7327 15.4162 84.7756 15.5712 84.8613 15.7009C84.9492 15.8284 85.0614 15.935 85.1976 16.0207C85.3339 16.1043 85.4768 16.1735 85.6263 16.2285C85.7758 16.2812 85.9132 16.3241 86.0385 16.3571L86.7243 16.5417C86.9002 16.5879 87.0958 16.6516 87.3113 16.733C87.5289 16.8143 87.7366 16.9253 87.9345 17.066C88.1345 17.2045 88.2994 17.3826 88.4291 17.6002C88.5588 17.8178 88.6236 18.0849 88.6236 18.4015C88.6236 18.7664 88.528 19.0961 88.3368 19.3907C88.1477 19.6852 87.8707 19.9194 87.5058 20.093C87.1431 20.2667 86.7024 20.3535 86.1836 20.3535C85.6999 20.3535 85.2812 20.2755 84.9273 20.1194C84.5755 19.9633 84.2986 19.7457 84.0963 19.4665C83.8963 19.1873 83.7831 18.8631 83.7567 18.4938H84.6008C84.6228 18.7488 84.7085 18.9598 84.858 19.1269C85.0097 19.2917 85.2009 19.4149 85.4318 19.4962C85.6648 19.5753 85.9154 19.6149 86.1836 19.6149C86.4957 19.6149 86.776 19.5643 87.0244 19.4632C87.2728 19.3599 87.4695 19.217 87.6146 19.0346C87.7597 18.8499 87.8323 18.6345 87.8323 18.3883C87.8323 18.164 87.7696 17.9816 87.6443 17.8409C87.519 17.7002 87.3541 17.5859 87.1497 17.498C86.9453 17.41 86.7243 17.3331 86.4869 17.2671L85.656 17.0297C85.1284 16.8781 84.7107 16.6615 84.403 16.3802C84.0952 16.0988 83.9413 15.7306 83.9413 15.2755C83.9413 14.8974 84.0436 14.5677 84.248 14.2863C84.4546 14.0027 84.7316 13.7829 85.0789 13.6268C85.4285 13.4686 85.8187 13.3894 86.2495 13.3894C86.6848 13.3894 87.0717 13.4675 87.4102 13.6235C87.7487 13.7774 88.0169 13.9884 88.2148 14.2566C88.4148 14.5248 88.5203 14.8293 88.5313 15.17H87.7399ZM94.518 20.2348V13.4817H96.7998C97.3296 13.4817 97.7627 13.5774 98.099 13.7686C98.4375 13.9577 98.6881 14.2138 98.8508 14.5369C99.0135 14.8601 99.0948 15.2206 99.0948 15.6185C99.0948 16.0163 99.0135 16.378 98.8508 16.7033C98.6903 17.0286 98.4419 17.288 98.1056 17.4815C97.7693 17.6727 97.3384 17.7684 96.813 17.7684H95.1775V17.0429H96.7866C97.1493 17.0429 97.4406 16.9803 97.6604 16.855C97.8803 16.7297 98.0396 16.5604 98.1386 16.3472C98.2397 16.1317 98.2902 15.8888 98.2902 15.6185C98.2902 15.3481 98.2397 15.1063 98.1386 14.893C98.0396 14.6798 97.8792 14.5127 97.6571 14.3918C97.4351 14.2687 97.1405 14.2072 96.7734 14.2072H95.3358V20.2348H94.518ZM110.66 16.8583C110.66 17.5705 110.531 18.186 110.274 18.7048C110.017 19.2236 109.664 19.6237 109.216 19.9051C108.767 20.1864 108.255 20.3271 107.679 20.3271C107.103 20.3271 106.591 20.1864 106.142 19.9051C105.694 19.6237 105.341 19.2236 105.084 18.7048C104.827 18.186 104.698 17.5705 104.698 16.8583C104.698 16.146 104.827 15.5305 105.084 15.0117C105.341 14.4929 105.694 14.0929 106.142 13.8115C106.591 13.5301 107.103 13.3894 107.679 13.3894C108.255 13.3894 108.767 13.5301 109.216 13.8115C109.664 14.0929 110.017 14.4929 110.274 15.0117C110.531 15.5305 110.66 16.146 110.66 16.8583ZM109.869 16.8583C109.869 16.2735 109.771 15.78 109.575 15.3777C109.382 14.9755 109.119 14.671 108.787 14.4644C108.457 14.2577 108.088 14.1544 107.679 14.1544C107.27 14.1544 106.9 14.2577 106.568 14.4644C106.238 14.671 105.975 14.9755 105.78 15.3777C105.586 15.78 105.49 16.2735 105.49 16.8583C105.49 17.443 105.586 17.9365 105.78 18.3388C105.975 18.7411 106.238 19.0455 106.568 19.2522C106.9 19.4588 107.27 19.5621 107.679 19.5621C108.088 19.5621 108.457 19.4588 108.787 19.2522C109.119 19.0455 109.382 18.7411 109.575 18.3388C109.771 17.9365 109.869 17.443 109.869 16.8583ZM121.94 13.4817V20.2348H121.148L117.468 14.9326H117.403V20.2348H116.585V13.4817H117.376L121.069 18.7971H121.135V13.4817H121.94ZM128.944 13.4817V20.2348H128.126V13.4817H128.944ZM135.133 20.2348V13.4817H137.494C137.965 13.4817 138.353 13.5631 138.658 13.7257C138.964 13.8862 139.191 14.1028 139.341 14.3753C139.49 14.6457 139.565 14.9458 139.565 15.2755C139.565 15.5657 139.513 15.8053 139.41 15.9944C139.309 16.1834 139.175 16.3329 139.008 16.4428C138.843 16.5527 138.664 16.634 138.47 16.6868V16.7528C138.677 16.7659 138.885 16.8385 139.093 16.9704C139.302 17.1023 139.477 17.2913 139.618 17.5375C139.758 17.7837 139.829 18.0849 139.829 18.441C139.829 18.7796 139.752 19.084 139.598 19.3544C139.444 19.6248 139.201 19.8391 138.869 19.9974C138.537 20.1557 138.105 20.2348 137.573 20.2348H135.133ZM135.951 19.5094H137.573C138.107 19.5094 138.487 19.4061 138.711 19.1994C138.937 18.9906 139.05 18.7378 139.05 18.441C139.05 18.2124 138.992 18.0014 138.876 17.8079C138.759 17.6123 138.593 17.4562 138.378 17.3397C138.162 17.221 137.907 17.1616 137.613 17.1616H135.951V19.5094ZM135.951 16.4494H137.468C137.714 16.4494 137.936 16.401 138.134 16.3043C138.334 16.2076 138.492 16.0713 138.609 15.8954C138.727 15.7196 138.787 15.5129 138.787 15.2755C138.787 14.9788 138.683 14.7271 138.477 14.5204C138.27 14.3116 137.943 14.2072 137.494 14.2072H135.951V16.4494ZM145.722 20.2348V13.4817H146.54V19.5094H149.679V20.2348H145.722ZM155.495 20.2348V13.4817H159.571V14.2072H156.313V16.489H159.36V17.2144H156.313V19.5094H159.624V20.2348H155.495ZM172.756 20.2348V13.4817H176.832V14.2072H173.574V16.489H176.621V17.2144H173.574V19.5094H176.884V20.2348H172.756ZM188.21 13.4817V20.2348H187.419L183.739 14.9326H183.673V20.2348H182.855V13.4817H183.647L187.34 18.7971H187.406V13.4817H188.21Z" fill="white"/>
</svg>
