<svg width="208" height="61" viewBox="0 0 208 61" fill="none" xmlns="http://www.w3.org/2000/svg">
<mask id="mask0_191_7798" style="mask-type:luminance" maskUnits="userSpaceOnUse" x="0" y="0" width="208" height="61">
<path d="M0.625 0.402687H208V60.7582H0.625V0.402687Z" fill="white"/>
</mask>
<g mask="url(#mask0_191_7798)">
<path d="M200.32 60.7579H8.30565C4.0813 60.7579 0.625 57.3631 0.625 53.2134V7.94681C0.625 3.79713 4.0813 0.402336 8.30565 0.402336H200.32C204.544 0.402336 208 3.79713 208 7.94681V53.2134C208 57.3631 204.544 60.7579 200.32 60.7579Z" fill="#100F0D"/>
<path d="M200.32 0.402687H8.30565C4.0813 0.402687 0.625 3.7978 0.625 7.94717V53.2138C0.625 57.3634 4.0813 60.7582 8.30565 60.7582H200.32C204.544 60.7582 208 57.3634 208 53.2138V7.94717C208 3.7978 204.544 0.402687 200.32 0.402687ZM200.32 1.60976C203.877 1.60976 206.771 4.45242 206.771 7.94717V53.2138C206.771 56.7085 203.877 59.5512 200.32 59.5512H8.30565C4.74791 59.5512 1.85388 56.7085 1.85388 53.2138V7.94717C1.85388 4.45242 4.74791 1.60976 8.30565 1.60976H200.32Z" fill="#A2A2A1"/>
<path d="M164.891 45.6686H167.757V26.8062H164.891V45.6686ZM190.708 33.6005L187.422 41.7788H187.324L183.914 33.6005H180.826L185.94 45.0304L183.024 51.3889H186.014L193.895 33.6005H190.708ZM174.453 43.526C173.513 43.526 172.204 43.0643 172.204 41.9239C172.204 40.4676 173.834 39.9107 175.242 39.9107C176.502 39.9107 177.095 40.1779 177.861 40.5414C177.639 42.289 176.107 43.526 174.453 43.526ZM174.798 33.1887C172.723 33.1887 170.572 34.0864 169.683 36.0751L172.228 37.1195C172.772 36.0751 173.785 35.7355 174.847 35.7355C176.33 35.7355 177.837 36.6093 177.861 38.162V38.3565C177.342 38.0655 176.23 37.6294 174.872 37.6294C172.13 37.6294 169.338 39.1096 169.338 41.8752C169.338 44.3998 171.586 46.0249 174.106 46.0249C176.033 46.0249 177.095 45.1768 177.763 44.1809H177.861V45.6371H180.628V38.4051C180.628 35.0566 178.084 33.1887 174.798 33.1887ZM157.084 35.8973H153.007V29.43H157.084C159.227 29.43 160.443 31.1744 160.443 32.6636C160.443 34.1258 159.227 35.8973 157.084 35.8973ZM157.01 26.8062H150.142V45.6686H153.007V38.5226H157.01C160.187 38.5226 163.31 36.2621 163.31 32.6636C163.31 29.0648 160.187 26.8062 157.01 26.8062ZM119.558 43.5292C117.578 43.5292 115.921 41.9011 115.921 39.6648C115.921 37.4046 117.578 35.7507 119.558 35.7507C121.513 35.7507 123.047 37.4046 123.047 39.6648C123.047 41.9011 121.513 43.5292 119.558 43.5292ZM122.849 34.6568H122.75C122.107 33.9038 120.87 33.2218 119.311 33.2218C116.043 33.2218 113.05 36.042 113.05 39.6648C113.05 43.262 116.043 46.0581 119.311 46.0581C120.87 46.0581 122.107 45.3775 122.75 44.5991H122.849V45.5223C122.849 47.9787 121.513 49.2902 119.36 49.2902C117.603 49.2902 116.514 48.0511 116.068 47.0055L113.569 48.0272C114.286 49.729 116.193 51.819 119.36 51.819C122.726 51.819 125.572 49.8741 125.572 45.1344V33.6112H122.849V34.6568ZM127.55 45.6686H130.422V26.8046H127.55V45.6686ZM134.654 39.446C134.58 36.9653 136.609 35.7024 138.068 35.7024C139.208 35.7024 140.173 36.2609 140.494 37.0637L134.654 39.446ZM143.563 37.3065C143.018 35.8714 141.36 33.2218 137.97 33.2218C134.604 33.2218 131.809 35.8232 131.809 39.6408C131.809 43.2378 134.58 46.0581 138.291 46.0581C141.286 46.0581 143.018 44.2594 143.737 43.2139L141.509 41.7547C140.766 42.8244 139.752 43.5292 138.291 43.5292C136.832 43.5292 135.792 42.8727 135.124 41.5857L143.86 38.0352L143.563 37.3065ZM73.9648 35.1926V37.9144H80.5964C80.398 39.446 79.8789 40.5642 79.0879 41.3411C78.1217 42.2902 76.6116 43.3346 73.9648 43.3346C69.8803 43.3346 66.6884 40.1025 66.6884 36.0903C66.6884 32.0797 69.8803 28.8476 73.9648 28.8476C76.1676 28.8476 77.7759 29.6971 78.9634 30.7909L80.9187 28.8719C79.26 27.316 77.0585 26.1241 73.9648 26.1241C68.3718 26.1241 63.6699 30.5979 63.6699 36.0903C63.6699 41.5857 68.3718 46.0581 73.9648 46.0581C76.9833 46.0581 79.26 45.0846 81.0416 43.262C82.8727 41.4634 83.4428 38.9362 83.4428 36.8931C83.4428 36.2609 83.3934 35.6785 83.2935 35.1926H73.9648ZM90.9818 43.5292C89.0034 43.5292 87.2953 41.9251 87.2953 39.6408C87.2953 37.3305 89.0034 35.7507 90.9818 35.7507C92.9618 35.7507 94.6699 37.3305 94.6699 39.6408C94.6699 41.9251 92.9618 43.5292 90.9818 43.5292ZM90.9818 33.2218C87.3688 33.2218 84.4241 35.9213 84.4241 39.6408C84.4241 43.3346 87.3688 46.0581 90.9818 46.0581C94.5948 46.0581 97.5411 43.3346 97.5411 39.6408C97.5411 35.9213 94.5948 33.2218 90.9818 33.2218ZM105.289 43.5292C103.309 43.5292 101.601 41.9251 101.601 39.6408C101.601 37.3305 103.309 35.7507 105.289 35.7507C107.269 35.7507 108.976 37.3305 108.976 39.6408C108.976 41.9251 107.269 43.5292 105.289 43.5292ZM105.289 33.2218C101.676 33.2218 98.7314 35.9213 98.7314 39.6408C98.7314 43.3346 101.676 46.0581 105.289 46.0581C108.902 46.0581 111.847 43.3346 111.847 39.6408C111.847 35.9213 108.902 33.2218 105.289 33.2218Z" fill="white"/>
<path d="M32.4482 29.7116L16.0933 46.7622C16.0948 46.7651 16.0948 46.7697 16.0964 46.7726C16.5986 48.6241 18.319 49.9867 20.3621 49.9867C21.1793 49.9867 21.9459 49.7694 22.6033 49.3892L22.6555 49.3589L41.0644 38.925L32.4482 29.7116Z" fill="#EB3131"/>
<path d="M48.9945 26.8074L48.9791 26.7967L41.0311 22.2715L32.0771 30.0982L41.0632 38.9222L48.9682 34.4424C50.3537 33.7058 51.2955 32.2711 51.2955 30.6172C51.2955 28.9725 50.3675 27.5453 48.9945 26.8074Z" fill="#F6B60B"/>
<path d="M16.0933 14.4001C15.995 14.7561 15.9429 15.1304 15.9429 15.5166V45.6463C15.9429 46.0325 15.995 46.4066 16.095 46.7614L33.0106 30.1468L16.0933 14.4001Z" fill="#5778C5"/>
<path d="M32.5691 30.5813L41.0331 22.2687L22.6459 11.797C21.9776 11.4032 21.1973 11.1771 20.3632 11.1771C18.3202 11.1771 16.5966 12.5425 16.0943 14.3953C16.0943 14.3969 16.0928 14.3985 16.0928 14.4001L32.5691 30.5813Z" fill="#3BAD49"/>
<path d="M66.9769 18.6879H64.8929V11.9348H67.0692C67.7243 11.9348 68.2849 12.07 68.7509 12.3404C69.2169 12.6086 69.5741 12.9944 69.8226 13.4978C70.071 13.999 70.1952 14.5991 70.1952 15.2981C70.1952 16.0016 70.0699 16.6072 69.8193 17.115C69.5687 17.6206 69.2037 18.0097 68.7245 18.2823C68.2453 18.5527 67.6628 18.6879 66.9769 18.6879ZM65.7107 17.9624H66.9241C67.4825 17.9624 67.9452 17.8547 68.3123 17.6393C68.6795 17.4239 68.9531 17.1172 69.1334 16.7193C69.3137 16.3214 69.4038 15.8477 69.4038 15.2981C69.4038 14.753 69.3148 14.2836 69.1367 13.8902C68.9586 13.4945 68.6926 13.1911 68.3387 12.9801C67.9848 12.7668 67.5441 12.6602 67.0165 12.6602H65.7107V17.9624ZM76.9345 11.9348V18.6879H76.1167V11.9348H76.9345ZM86.8171 13.6231C86.7775 13.2889 86.617 13.0295 86.3357 12.8449C86.0543 12.6602 85.7092 12.5679 85.3003 12.5679C85.0013 12.5679 84.7397 12.6163 84.5155 12.713C84.2935 12.8097 84.1198 12.9427 83.9945 13.112C83.8714 13.2812 83.8099 13.4736 83.8099 13.689C83.8099 13.8693 83.8527 14.0243 83.9385 14.154C84.0264 14.2815 84.1385 14.3881 84.2748 14.4738C84.4111 14.5573 84.554 14.6266 84.7035 14.6815C84.8529 14.7343 84.9903 14.7772 85.1156 14.8101L85.8015 14.9948C85.9773 15.0409 86.173 15.1047 86.3884 15.186C86.606 15.2674 86.8138 15.3784 87.0116 15.5191C87.2117 15.6576 87.3765 15.8356 87.5062 16.0532C87.6359 16.2709 87.7008 16.538 87.7008 16.8545C87.7008 17.2194 87.6052 17.5492 87.4139 17.8437C87.2249 18.1383 86.9479 18.3724 86.583 18.5461C86.2203 18.7197 85.7795 18.8066 85.2607 18.8066C84.7771 18.8066 84.3583 18.7285 84.0044 18.5725C83.6527 18.4164 83.3757 18.1988 83.1735 17.9196C82.9734 17.6404 82.8602 17.3162 82.8338 16.9468H83.678C83.6999 17.2018 83.7857 17.4129 83.9352 17.5799C84.0868 17.7448 84.2781 17.8679 84.5089 17.9493C84.7419 18.0284 84.9925 18.068 85.2607 18.068C85.5729 18.068 85.8531 18.0174 86.1015 17.9163C86.35 17.813 86.5467 17.6701 86.6918 17.4876C86.8369 17.303 86.9094 17.0875 86.9094 16.8413C86.9094 16.6171 86.8468 16.4346 86.7215 16.294C86.5962 16.1533 86.4313 16.039 86.2268 15.951C86.0224 15.8631 85.8015 15.7862 85.5641 15.7202L84.7331 15.4828C84.2055 15.3311 83.7879 15.1146 83.4801 14.8332C83.1724 14.5518 83.0185 14.1836 83.0185 13.7286C83.0185 13.3505 83.1207 13.0207 83.3251 12.7394C83.5318 12.4558 83.8088 12.236 84.1561 12.0799C84.5056 11.9216 84.8958 11.8425 85.3267 11.8425C85.7619 11.8425 86.1488 11.9205 86.4873 12.0766C86.8259 12.2305 87.0941 12.4415 87.2919 12.7097C87.4919 12.9779 87.5975 13.2823 87.6085 13.6231H86.8171ZM93.5952 18.6879V11.9348H95.877C96.4067 11.9348 96.8398 12.0304 97.1761 12.2217C97.5147 12.4107 97.7653 12.6668 97.9279 12.99C98.0906 13.3131 98.172 13.6736 98.172 14.0715C98.172 14.4694 98.0906 14.831 97.9279 15.1564C97.7675 15.4817 97.5191 15.7411 97.1827 15.9345C96.8464 16.1258 96.4155 16.2214 95.8902 16.2214H94.2546V15.496H95.8638C96.2265 15.496 96.5178 15.4333 96.7376 15.308C96.9574 15.1827 97.1168 15.0135 97.2157 14.8002C97.3168 14.5848 97.3674 14.3419 97.3674 14.0715C97.3674 13.8011 97.3168 13.5593 97.2157 13.3461C97.1168 13.1329 96.9563 12.9658 96.7343 12.8449C96.5123 12.7218 96.2177 12.6602 95.8506 12.6602H94.4129V18.6879H93.5952ZM109.737 15.3113C109.737 16.0236 109.608 16.6391 109.351 17.1579C109.094 17.6767 108.741 18.0767 108.293 18.3581C107.844 18.6395 107.332 18.7802 106.756 18.7802C106.18 18.7802 105.668 18.6395 105.22 18.3581C104.771 18.0767 104.418 17.6767 104.161 17.1579C103.904 16.6391 103.775 16.0236 103.775 15.3113C103.775 14.5991 103.904 13.9836 104.161 13.4648C104.418 12.946 104.771 12.5459 105.22 12.2645C105.668 11.9832 106.18 11.8425 106.756 11.8425C107.332 11.8425 107.844 11.9832 108.293 12.2645C108.741 12.5459 109.094 12.946 109.351 13.4648C109.608 13.9836 109.737 14.5991 109.737 15.3113ZM108.946 15.3113C108.946 14.7266 108.848 14.2331 108.652 13.8308C108.459 13.4285 108.196 13.1241 107.864 12.9174C107.534 12.7108 107.165 12.6075 106.756 12.6075C106.347 12.6075 105.977 12.7108 105.645 12.9174C105.315 13.1241 105.053 13.4285 104.857 13.8308C104.663 14.2331 104.567 14.7266 104.567 15.3113C104.567 15.8961 104.663 16.3896 104.857 16.7919C105.053 17.1941 105.315 17.4986 105.645 17.7052C105.977 17.9119 106.347 18.0152 106.756 18.0152C107.165 18.0152 107.534 17.9119 107.864 17.7052C108.196 17.4986 108.459 17.1941 108.652 16.7919C108.848 16.3896 108.946 15.8961 108.946 15.3113ZM121.017 11.9348V18.6879H120.226L116.546 13.3857H116.48V18.6879H115.662V11.9348H116.453L120.146 17.2502H120.212V11.9348H121.017ZM128.021 11.9348V18.6879H127.203V11.9348H128.021ZM134.21 18.6879V11.9348H136.571C137.042 11.9348 137.43 12.0161 137.735 12.1788C138.041 12.3393 138.268 12.5558 138.418 12.8284C138.567 13.0988 138.642 13.3988 138.642 13.7286C138.642 14.0188 138.59 14.2584 138.487 14.4474C138.386 14.6365 138.252 14.786 138.085 14.8959C137.92 15.0058 137.741 15.0871 137.547 15.1399V15.2058C137.754 15.219 137.962 15.2916 138.171 15.4234C138.379 15.5553 138.554 15.7444 138.695 15.9906C138.835 16.2368 138.906 16.538 138.906 16.8941C138.906 17.2326 138.829 17.5371 138.675 17.8075C138.521 18.0778 138.278 18.2922 137.946 18.4505C137.614 18.6087 137.182 18.6879 136.65 18.6879H134.21ZM135.028 17.9624H136.65C137.185 17.9624 137.564 17.8591 137.788 17.6525C138.014 17.4437 138.128 17.1908 138.128 16.8941C138.128 16.6655 138.069 16.4544 137.953 16.261C137.836 16.0653 137.67 15.9093 137.455 15.7928C137.24 15.674 136.985 15.6147 136.69 15.6147H135.028V17.9624ZM135.028 14.9025H136.545C136.791 14.9025 137.013 14.8541 137.211 14.7574C137.411 14.6607 137.569 14.5244 137.686 14.3485C137.804 14.1726 137.864 13.966 137.864 13.7286C137.864 13.4318 137.761 13.1801 137.554 12.9735C137.347 12.7646 137.02 12.6602 136.571 12.6602H135.028V14.9025ZM144.799 18.6879V11.9348H145.617V17.9624H148.756V18.6879H144.799ZM154.572 18.6879V11.9348H158.648V12.6602H155.39V14.942H158.437V15.6675H155.39V17.9624H158.701V18.6879H154.572ZM171.833 18.6879V11.9348H175.909V12.6602H172.651V14.942H175.698V15.6675H172.651V17.9624H175.961V18.6879H171.833ZM187.287 11.9348V18.6879H186.496L182.816 13.3857H182.75V18.6879H181.933V11.9348H182.724L186.417 17.2502H186.483V11.9348H187.287Z" fill="white"/>
</g>
</svg>
