<svg width="67" height="64" viewBox="0 0 67 64" fill="none" xmlns="http://www.w3.org/2000/svg">
<path d="M66.8224 27.2037C66.8224 12.2325 51.8513 0 33.4112 0C14.9711 0 0 12.2325 0 27.2037C0 40.7142 11.8674 51.8513 27.934 54.0422C29.0294 54.2248 30.49 54.7725 30.8552 55.6854C31.2203 56.5982 31.0377 57.8763 31.0377 58.7891C31.0377 58.7891 30.6726 61.1626 30.49 61.7103C30.3074 62.6232 29.7597 64.9967 33.4112 63.5361C37.0627 62.0755 52.7642 52.2164 59.702 44.1831C64.6315 38.7059 66.8224 33.2286 66.8224 27.2037Z" fill="white"/>
<path d="M55.6852 35.7849H46.3739C46.0087 35.7849 45.6436 35.4197 45.6436 35.0546V20.4486C45.6436 20.0834 46.0087 19.7183 46.3739 19.7183H55.6852C56.0503 19.7183 56.4155 20.0834 56.4155 20.4486V22.822C56.4155 23.1872 56.0503 23.5523 55.6852 23.5523H49.2951V26.1084H55.6852C56.0503 26.1084 56.4155 26.4735 56.4155 26.8387V29.2122C56.4155 29.5773 56.0503 29.9425 55.6852 29.9425H49.2951V32.4985H55.6852C56.0503 32.4985 56.4155 32.8637 56.4155 33.2288V35.6023C56.4155 35.6023 56.0503 35.7849 55.6852 35.7849Z" fill="#06C755"/>
<path d="M20.9957 35.7849C21.3608 35.7849 21.726 35.4197 21.726 35.0546V32.8637C21.726 32.4985 21.3608 32.1334 20.9957 32.1334H14.6056V20.4486C14.6056 20.0834 14.2404 19.7183 13.8753 19.7183H11.5018C11.1366 19.7183 10.7715 20.0834 10.7715 20.4486V35.0546C10.7715 35.4197 11.1366 35.7849 11.5018 35.7849H20.9957Z" fill="#06C755"/>
<path d="M26.6555 19.9004H24.2821C23.9169 19.9004 23.5518 20.2655 23.5518 20.6307V35.2367C23.5518 35.6018 23.9169 35.967 24.2821 35.967H26.6555C27.0207 35.967 27.3858 35.6018 27.3858 35.2367V20.6307C27.2033 20.2655 27.0207 19.9004 26.6555 19.9004Z" fill="#06C755"/>
<path d="M42.7226 19.9004H40.3491C39.984 19.9004 39.6188 20.2655 39.6188 20.6307V29.2117L32.8635 20.2655H30.4901C30.1249 20.2655 29.7598 20.6307 29.7598 20.9958V35.6018C29.7598 35.967 30.1249 36.3321 30.4901 36.3321H32.4984C32.8635 36.3321 33.2287 35.967 33.2287 35.6018V26.8382L39.984 35.967L40.1665 36.1496H40.3491H42.7226C43.0877 36.1496 43.4529 35.7844 43.4529 35.4193V20.8133C43.4529 20.2655 43.0877 19.9004 42.7226 19.9004Z" fill="#06C755"/>
</svg>
