<svg width="74" height="60" viewBox="0 0 74 60" fill="none" xmlns="http://www.w3.org/2000/svg">
<path d="M0 22.4667C0 29.2 3.59346 35.3333 9.18327 39.4667C9.64909 39.8 9.91527 40.3333 9.91527 40.9333C9.91527 41.1333 9.84873 41.3333 9.84873 41.5333C9.38291 43.2 8.71746 45.9333 8.65091 46.0667C8.58436 46.2667 8.51782 46.5333 8.51782 46.7333C8.51782 47.2 8.91709 47.6 9.38291 47.6C9.58255 47.6 9.71564 47.5333 9.91527 47.4L15.7047 44C16.1705 43.7333 16.6364 43.6 17.1022 43.6C17.3684 43.6 17.6345 43.6667 17.9007 43.7333C20.6291 44.5333 23.5571 44.9333 26.5516 44.9333C41.1916 44.9333 53.0367 34.8667 53.0367 22.4667C53.0367 10.0667 41.1251 0 26.4851 0C11.8451 0 0 10.0667 0 22.4667Z" fill="white"/>
<path d="M0 22.4667C0 29.2 3.59346 35.3333 9.18327 39.4667C9.64909 39.8 9.91527 40.3333 9.91527 40.9333C9.91527 41.1333 9.84873 41.3333 9.84873 41.5333C9.38291 43.2 8.71746 45.9333 8.65091 46.0667C8.58436 46.2667 8.51782 46.5333 8.51782 46.7333C8.51782 47.2 8.91709 47.6 9.38291 47.6C9.58255 47.6 9.71564 47.5333 9.91527 47.4L15.7047 44C16.1705 43.7333 16.6364 43.6 17.1022 43.6C17.3684 43.6 17.6345 43.6667 17.9007 43.7333C20.6291 44.5333 23.5571 44.9333 26.5516 44.9333C41.1916 44.9333 53.0367 34.8667 53.0367 22.4667C53.0367 10.0667 41.1251 0 26.4851 0C11.8451 0 0 10.0667 0 22.4667Z" fill="url(#paint0_linear_191_7849)"/>
<path d="M29.0137 39.1333C29.0137 49.4666 38.9289 57.8 51.1068 57.8C53.6355 57.8 56.0311 57.4666 58.2937 56.8C58.4933 56.7333 58.6929 56.7333 58.9591 56.7333C59.3584 56.7333 59.7577 56.8666 60.1569 57.0666L65.0148 59.9333C65.1479 60 65.281 60.0666 65.414 60.0666C65.8133 60.0666 66.146 59.7333 66.146 59.3333C66.146 59.1333 66.0795 58.9333 66.0129 58.8C66.0129 58.6666 65.414 56.4666 65.0148 55C64.9482 54.8666 64.9482 54.6666 64.9482 54.5333C64.9482 54 65.2144 53.6 65.5471 53.3333C70.2053 49.9333 73.1999 44.8666 73.1999 39.2C73.1999 28.8666 63.2846 20.5333 51.1068 20.5333C38.9289 20.4 29.0137 28.8 29.0137 39.1333Z" fill="url(#paint1_linear_191_7849)"/>
<path d="M55.7656 33.3999C55.7656 35.0666 57.0965 36.3999 58.6936 36.3999C60.3573 36.3999 61.6216 35.0666 61.6216 33.3999C61.6216 31.7332 60.2907 30.3999 58.6936 30.3999C57.0965 30.3999 55.7656 31.7332 55.7656 33.3999Z" fill="#919191"/>
<path d="M40.9922 33.3999C40.9922 35.0666 42.3231 36.3999 43.9202 36.3999C45.5838 36.3999 46.8482 35.0666 46.8482 33.3999C46.8482 31.7332 45.5173 30.3999 43.9202 30.3999C42.3231 30.3999 40.9922 31.7332 40.9922 33.3999Z" fill="#919191"/>
<path d="M21.1612 15.2001C21.1612 17.2001 19.5641 18.8001 17.6343 18.8001C15.7045 18.8001 14.1074 17.2001 14.1074 15.2001C14.1074 13.2001 15.7045 11.6001 17.6343 11.6001C19.6307 11.6001 21.1612 13.2668 21.1612 15.2001Z" fill="#168743"/>
<path d="M38.9288 15.2001C38.9288 17.2001 37.3317 18.8001 35.4019 18.8001C33.4721 18.8001 31.875 17.2001 31.875 15.2001C31.875 13.2001 33.4721 11.6001 35.4019 11.6001C37.3317 11.6001 38.9288 13.2668 38.9288 15.2001Z" fill="#168743"/>
<defs>
<linearGradient id="paint0_linear_191_7849" x1="26.5111" y1="47.5314" x2="26.5111" y2="0" gradientUnits="userSpaceOnUse">
<stop offset="0.0601963" stop-color="#05CD66"/>
<stop offset="0.2202" stop-color="#0ED169"/>
<stop offset="0.4805" stop-color="#26DB6F"/>
<stop offset="0.8069" stop-color="#4DEB7A"/>
<stop offset="0.9517" stop-color="#61F380"/>
</linearGradient>
<linearGradient id="paint1_linear_191_7849" x1="51.1221" y1="60" x2="51.1221" y2="20.4198" gradientUnits="userSpaceOnUse">
<stop offset="0.0809942" stop-color="#D9D9D9"/>
<stop offset="1" stop-color="#F0F0F0"/>
</linearGradient>
</defs>
</svg>
