<svg width="54" height="54" viewBox="0 0 54 54" fill="none" xmlns="http://www.w3.org/2000/svg">
<path fill-rule="evenodd" clip-rule="evenodd" d="M45.877 7.84126C40.8295 2.78726 34.1164 0.00256418 26.9636 0C12.2247 0 0.229494 11.994 0.224366 26.7367C0.221801 31.4496 1.45389 36.0498 3.79371 40.1038L0 53.9606L14.1748 50.2425C18.08 52.3734 22.4776 53.4952 26.9521 53.4965H26.9636C41.6999 53.4965 53.6966 41.5012 53.7017 26.7585C53.7042 19.6135 50.9259 12.8966 45.877 7.84255V7.84126ZM26.9636 48.981H26.9547C22.9673 48.9798 19.0557 47.9078 15.6428 45.8834L14.8312 45.4015L6.41944 47.6079L8.66438 39.4063L8.13614 38.5652C5.91172 35.0268 4.73604 30.9368 4.7386 26.7381C4.74374 14.4851 14.7133 4.51552 26.9727 4.51552C32.9087 4.51808 38.4884 6.83227 42.6846 11.0337C46.881 15.2338 49.19 20.8186 49.1874 26.756C49.1822 39.0102 39.2128 48.9798 26.9636 48.9798V48.981ZM39.1537 32.3369C38.4857 32.0023 35.2011 30.3868 34.5882 30.1638C33.9754 29.9406 33.5306 29.8292 33.0856 30.4984C32.6408 31.1677 31.36 32.6728 30.9702 33.1177C30.5804 33.5638 30.1906 33.619 29.5226 33.2843C28.8548 32.9497 26.7021 32.2446 24.1495 29.9688C22.1636 28.1969 20.8224 26.0098 20.4327 25.3405C20.043 24.6713 20.3917 24.3097 20.725 23.9776C21.0249 23.6777 21.393 23.1969 21.7275 22.8071C22.0623 22.4173 22.1725 22.1379 22.3955 21.6929C22.6187 21.2468 22.5071 20.8571 22.3405 20.5224C22.1737 20.1878 20.8379 16.8992 20.2801 15.562C19.7377 14.2594 19.1866 14.4363 18.7775 14.4146C18.3877 14.3953 17.9429 14.3915 17.4967 14.3915C17.0506 14.3915 16.3274 14.5581 15.7146 15.2274C15.1018 15.8966 13.3761 17.5133 13.3761 20.8006C13.3761 24.0879 15.7698 27.2663 16.1044 27.7124C16.439 28.1586 20.816 34.9062 27.5175 37.8012C29.1112 38.4896 30.3561 38.9012 31.3266 39.2089C32.9267 39.7179 34.3831 39.6461 35.5344 39.4743C36.8179 39.282 39.4871 37.8576 40.0435 36.2972C40.5999 34.7369 40.5999 33.3984 40.4333 33.1202C40.2667 32.842 39.8205 32.674 39.1525 32.3394L39.1537 32.3369Z" fill="white"/>
</svg>
