<svg width="42" height="35" viewBox="0 0 42 35" fill="none" xmlns="http://www.w3.org/2000/svg">
<path fill-rule="evenodd" clip-rule="evenodd" d="M3.17813 15.615C14.2553 10.7577 21.6598 7.61816 25.3917 6.07802C35.9357 1.69454 38.1275 0.924471 39.5491 0.865234C39.8453 0.865234 40.5562 0.924471 41.03 1.27989C41.3855 1.57607 41.5039 1.99072 41.5632 2.2869C41.6224 2.58308 41.6816 3.23468 41.6224 3.76781C41.03 9.75066 38.6014 24.382 37.2982 31.0757C36.765 33.919 35.6988 34.8668 34.6918 34.9853C32.5 35.163 30.7822 33.5044 28.6497 32.1419C25.3325 29.9502 23.4369 28.5878 20.1789 26.4553C16.447 23.9673 18.8757 22.6049 21.0082 20.4132C21.5413 19.8208 31.3153 10.9946 31.493 10.1653C31.493 10.0468 31.5523 9.69142 31.3153 9.51372C31.0784 9.33601 30.7822 9.39524 30.5452 9.45448C30.1898 9.51371 24.8586 13.0679 14.4922 20.0578C12.9521 21.124 11.5897 21.5979 10.3457 21.5979C8.98328 21.5979 6.37688 20.8278 4.42209 20.1762C2.05264 19.4062 0.157087 18.9915 0.334795 17.6883C0.453268 17.0367 1.40105 16.3259 3.17813 15.615Z" fill="white"/>
</svg>
