<svg width="60" height="60" viewBox="0 0 60 60" fill="none" xmlns="http://www.w3.org/2000/svg">
<g clip-path="url(#clip0_191_7840)">
<path d="M22.7544 0.88983L23.39 3.55932C20.7205 4.19491 18.1781 5.21186 15.89 6.73729L14.4917 4.32203C17.0341 2.79661 19.8307 1.65254 22.7544 0.88983ZM37.2459 0.88983L36.6103 3.55932C39.2798 4.19491 41.8222 5.21186 44.1103 6.73729L45.5086 4.32203C42.9663 2.79661 40.1697 1.65254 37.2459 0.88983ZM4.3222 14.4915C2.79678 17.0339 1.65271 19.8305 0.889996 22.7542L3.55949 23.3898C4.19508 20.7203 5.21203 18.178 6.73745 15.8898L4.3222 14.4915ZM2.79678 30C2.79678 28.6017 2.92389 27.3305 3.05101 25.9322L0.254403 25.5508C-0.254072 28.4746 -0.254072 31.5254 0.254403 34.5763L3.05101 34.1949C2.92389 32.7966 2.79678 31.3983 2.79678 30ZM45.5086 55.678L44.1103 53.2627C41.8222 54.661 39.2798 55.678 36.6103 56.4407L37.2459 59.1102C40.1697 58.4746 42.9663 57.2034 45.5086 55.678ZM57.2035 30C57.2035 31.3983 57.0764 32.6695 56.9493 34.0678L59.7459 34.4492C60.2544 31.5254 60.2544 28.4746 59.7459 25.4237L56.9493 25.8051C57.0764 27.3305 57.2035 28.6017 57.2035 30ZM59.1103 37.2458L56.4408 36.6102C55.8052 39.2797 54.7883 41.822 53.2629 44.1102L55.6781 45.5085C57.2035 42.9661 58.4747 40.1695 59.1103 37.2458ZM34.068 56.9491C31.3985 57.3305 28.6019 57.3305 25.9324 56.9491L25.551 59.7458C28.4747 60.2542 31.5256 60.2542 34.5764 59.7458L34.068 56.9491ZM51.8646 46.1441C50.212 48.3051 48.3052 50.339 46.1442 51.8644L47.7968 54.1525C50.212 52.3729 52.373 50.2119 54.1527 47.7966L51.8646 46.1441ZM46.1442 8.13559C48.3052 9.78813 50.3391 11.6949 51.8646 13.8559L54.1527 12.2034C52.373 9.78814 50.212 7.62712 47.7968 5.84746L46.1442 8.13559ZM8.13576 13.8559C9.7883 11.6949 11.6951 9.66102 13.8561 8.13559L12.2036 5.84746C9.7883 7.62712 7.62728 9.78814 5.84762 12.2034L8.13576 13.8559ZM55.6781 14.4915L53.2629 15.8898C54.6612 18.178 55.6781 20.7203 56.4408 23.3898L59.1103 22.7542C58.4747 19.8305 57.2035 17.0339 55.6781 14.4915ZM25.9324 3.17797C28.6019 2.79661 31.3985 2.79661 34.068 3.17797L34.4493 0.381356C31.5256 -0.127119 28.4747 -0.127119 25.4239 0.381356L25.9324 3.17797ZM9.53406 54.9153L3.68661 56.3136L5.08491 50.4661L2.2883 49.8305L0.889996 55.678C0.762877 56.4407 0.889996 57.2034 1.27135 57.839C1.65271 58.4746 2.2883 58.983 3.05101 59.1102C3.43237 59.2373 3.94084 59.2373 4.3222 59.1102L10.1697 57.7119L9.53406 54.9153ZM2.92389 47.2881L5.7205 47.9237L6.61033 43.8559C5.21203 41.5678 4.19508 39.0254 3.55949 36.483L0.889996 37.1186C1.52559 39.661 2.41542 41.9492 3.68661 44.2373L2.92389 47.2881ZM16.0171 53.3898L11.9493 54.2797L12.5849 57.0763L15.5086 56.4407C17.7968 57.7119 20.212 58.6017 22.6273 59.2373L23.2629 56.5678C20.8476 55.8051 18.4324 54.7881 16.0171 53.3898Z" fill="white"/>
<path d="M30.0004 5.08472C16.1445 5.08472 4.95801 16.2712 4.95801 29.8729C4.95801 34.7034 6.35631 39.2796 8.77157 43.0932L6.22919 53.644L16.6529 50.9746C20.4665 53.2627 24.9156 54.661 29.7461 54.661C43.6021 54.661 54.6614 43.6017 54.6614 29.8729C54.6614 16.144 43.7292 5.08472 30.0004 5.08472Z" fill="white"/>
</g>
<defs>
<clipPath id="clip0_191_7840">
<rect width="60" height="60" fill="white"/>
</clipPath>
</defs>
</svg>
