<svg width="55" height="55" viewBox="0 0 55 55" fill="none" xmlns="http://www.w3.org/2000/svg">
<path d="M26.2007 43.0007C21.934 42.7784 18.334 41.134 15.4007 38.0673C12.4673 35.0007 11.0007 31.3118 11.0007 27.0007C11.0007 22.5562 12.5562 18.7784 15.6673 15.6673C18.7784 12.5562 22.5562 11.0007 27.0007 11.0007C31.3118 11.0007 35.0007 12.4673 38.0673 15.4007C41.134 18.334 42.7784 21.934 43.0007 26.2007L37.4007 24.534C36.8229 22.134 35.5784 20.1673 33.6673 18.634C31.7562 17.1007 29.534 16.334 27.0007 16.334C24.0673 16.334 21.5562 17.3784 19.4673 19.4673C17.3784 21.5562 16.334 24.0673 16.334 27.0007C16.334 29.534 17.1007 31.7562 18.634 33.6673C20.1673 35.5784 22.134 36.8229 24.534 37.4007L26.2007 43.0007ZM29.4007 53.534C29.0007 53.6229 28.6007 53.6673 28.2007 53.6673H27.0007C23.3118 53.6673 19.8451 52.9673 16.6007 51.5673C13.3562 50.1673 10.534 48.2673 8.13398 45.8673C5.73398 43.4673 3.83398 40.6451 2.43398 37.4007C1.03398 34.1562 0.333984 30.6895 0.333984 27.0007C0.333984 23.3118 1.03398 19.8451 2.43398 16.6007C3.83398 13.3562 5.73398 10.534 8.13398 8.13398C10.534 5.73398 13.3562 3.83398 16.6007 2.43398C19.8451 1.03398 23.3118 0.333984 27.0007 0.333984C30.6895 0.333984 34.1562 1.03398 37.4007 2.43398C40.6451 3.83398 43.4673 5.73398 45.8673 8.13398C48.2673 10.534 50.1673 13.3562 51.5673 16.6007C52.9673 19.8451 53.6673 23.3118 53.6673 27.0007V28.2007C53.6673 28.6007 53.6229 29.0007 53.534 29.4007L48.334 27.8007V27.0007C48.334 21.0451 46.2673 16.0007 42.134 11.8673C38.0007 7.73398 32.9562 5.66732 27.0007 5.66732C21.0451 5.66732 16.0007 7.73398 11.8673 11.8673C7.73398 16.0007 5.66732 21.0451 5.66732 27.0007C5.66732 32.9562 7.73398 38.0007 11.8673 42.134C16.0007 46.2673 21.0451 48.334 27.0007 48.334H27.8007L29.4007 53.534ZM49.734 55.0007L38.334 43.6007L35.0007 53.6673L27.0007 27.0007L53.6673 35.0007L43.6007 38.334L55.0007 49.734L49.734 55.0007Z" fill="#1C1B1F"/>
</svg>
