<svg width="54" height="52" viewBox="0 0 54 52" fill="none" xmlns="http://www.w3.org/2000/svg">
<path d="M8.06732 38.601C5.53398 35.9344 3.61176 32.9788 2.30065 29.7344C0.98954 26.4899 0.333984 23.1344 0.333984 19.6677C0.333984 16.201 0.98954 12.8455 2.30065 9.60104C3.61176 6.3566 5.53398 3.40104 8.06732 0.734375L11.2673 3.93438C9.13398 6.06771 7.53398 8.52326 6.46732 11.301C5.40065 14.0788 4.86732 16.8677 4.86732 19.6677C4.86732 22.4677 5.40065 25.2566 6.46732 28.0344C7.53398 30.8122 9.13398 33.2677 11.2673 35.401L8.06732 38.601ZM14.4673 32.201C12.734 30.4677 11.4118 28.5122 10.5007 26.3344C9.58954 24.1566 9.13398 21.9344 9.13398 19.6677C9.13398 17.401 9.58954 15.1788 10.5007 13.001C11.4118 10.8233 12.734 8.86771 14.4673 7.13438L17.6673 10.3344C16.334 11.5344 15.334 12.9566 14.6673 14.601C14.0007 16.2455 13.6673 17.9344 13.6673 19.6677C13.6673 21.2677 14.0007 22.8899 14.6673 24.5344C15.334 26.1788 16.334 27.6677 17.6673 29.001L14.4673 32.201ZM13.6673 51.6677L22.6673 24.6677C21.9562 24.0455 21.3895 23.3122 20.9673 22.4677C20.5451 21.6233 20.334 20.6899 20.334 19.6677C20.334 17.801 20.9784 16.2233 22.2673 14.9344C23.5562 13.6455 25.134 13.001 27.0006 13.001C28.8673 13.001 30.4451 13.6455 31.734 14.9344C33.0229 16.2233 33.6673 17.801 33.6673 19.6677C33.6673 20.6899 33.4562 21.6233 33.034 22.4677C32.6118 23.3122 32.0451 24.0455 31.334 24.6677L40.334 51.6677H35.0006L33.2673 46.3344H20.8006L19.0007 51.6677H13.6673ZM22.534 41.001H31.4673L27.0006 27.6677L22.534 41.001ZM39.534 32.201L36.334 29.001C37.6673 27.801 38.6673 26.3788 39.334 24.7344C40.0006 23.0899 40.334 21.401 40.334 19.6677C40.334 18.0677 40.0006 16.4455 39.334 14.801C38.6673 13.1566 37.6673 11.6677 36.334 10.3344L39.534 7.13438C41.2673 8.86771 42.5562 10.8233 43.4006 13.001C44.2451 15.1788 44.734 17.401 44.8673 19.6677C44.8673 21.9344 44.4118 24.1566 43.5006 26.3344C42.5895 28.5122 41.2673 30.4677 39.534 32.201ZM45.934 38.601L42.734 35.401C44.8673 33.2677 46.4673 30.8122 47.534 28.0344C48.6007 25.2566 49.134 22.4677 49.134 19.6677C49.134 16.8677 48.6007 14.0788 47.534 11.301C46.4673 8.52326 44.8673 6.06771 42.734 3.93438L45.934 0.734375C48.4673 3.40104 50.3895 6.3566 51.7006 9.60104C53.0118 12.8455 53.6673 16.201 53.6673 19.6677C53.6673 23.1344 53.0451 26.4899 51.8007 29.7344C50.5562 32.9788 48.6007 35.9344 45.934 38.601Z" fill="#6BDEFF"/>
</svg>
