<svg width="48" height="57" viewBox="0 0 48 57" fill="none" xmlns="http://www.w3.org/2000/svg">
<path d="M26.8014 56.6694V51.2027C28.3125 50.9805 29.7903 50.5805 31.2348 50.0027C32.6792 49.425 34.0459 48.6694 35.3348 47.7361L39.0681 51.6027C37.2014 53.025 35.2459 54.1694 33.2014 55.0361C31.157 55.9027 29.0237 56.4472 26.8014 56.6694ZM21.4681 56.6694C15.3348 55.8694 10.2459 53.2138 6.20143 48.7027C2.15699 44.1916 0.134766 38.8916 0.134766 32.8027C0.134766 29.4694 0.768099 26.3472 2.03477 23.4361C3.30143 20.525 5.01254 17.9916 7.1681 15.8361C9.32366 13.6805 11.857 11.9694 14.7681 10.7027C17.6792 9.43607 20.8014 8.80273 24.1348 8.80273H24.5348L20.4014 4.6694L24.1348 0.802734L34.8014 11.4694L24.1348 22.1361L20.4014 18.4027L24.6681 14.1361H24.1348C18.9348 14.1361 14.5237 15.9472 10.9014 19.5694C7.27921 23.1916 5.4681 27.6027 5.4681 32.8027C5.4681 37.425 6.97921 41.4805 10.0014 44.9694C13.0237 48.4583 16.8459 50.5361 21.4681 51.2027V56.6694ZM42.9348 47.7361L39.0681 44.0027C40.0014 42.7138 40.757 41.3472 41.3348 39.9027C41.9125 38.4583 42.3125 36.9805 42.5348 35.4694H48.0014C47.7792 37.6916 47.2348 39.825 46.3681 41.8694C45.5014 43.9138 44.357 45.8694 42.9348 47.7361ZM48.0014 30.1361H42.5348C42.3125 28.625 41.9125 27.1472 41.3348 25.7027C40.757 24.2583 40.0014 22.8916 39.0681 21.6027L42.9348 17.8694C44.357 19.6027 45.4903 21.5138 46.3348 23.6027C47.1792 25.6916 47.7348 27.8694 48.0014 30.1361Z" fill="#1C1B1F"/>
</svg>
