<svg width="44" height="54" viewBox="0 0 44 54" fill="none" xmlns="http://www.w3.org/2000/svg">
<path d="M8.66602 45.6673H13.9993V40.334H8.66602V45.6673ZM8.66602 35.0006H13.9993V24.334H8.66602V35.0006ZM19.3327 45.6673H24.666V35.0006H19.3327V45.6673ZM19.3327 29.6673H24.666V24.334H19.3327V29.6673ZM29.9993 45.6673H35.3327V40.334H29.9993V45.6673ZM29.9993 35.0006H35.3327V24.334H29.9993V35.0006ZM5.99935 53.6673C4.53268 53.6673 3.27713 53.1451 2.23268 52.1007C1.18824 51.0562 0.666016 49.8006 0.666016 48.334V16.334L16.666 0.333984H37.9994C39.466 0.333984 40.7216 0.856207 41.766 1.90065C42.8105 2.9451 43.3327 4.20065 43.3327 5.66732V48.334C43.3327 49.8006 42.8105 51.0562 41.766 52.1007C40.7216 53.1451 39.466 53.6673 37.9994 53.6673H5.99935ZM5.99935 48.334H37.9994V5.66732H18.9327L5.99935 18.6006V48.334Z" fill="#6BDEFF"/>
</svg>
