<svg width="48" height="48" viewBox="0 0 48 48" fill="none" xmlns="http://www.w3.org/2000/svg">
<path d="M10.5 7.125C10.5 5.33479 11.2112 3.6179 12.477 2.35203C13.7429 1.08616 15.4598 0.375 17.25 0.375H30.75C32.5402 0.375 34.2571 1.08616 35.523 2.35203C36.7888 3.6179 37.5 5.33479 37.5 7.125V14.1619C36.5112 14.5088 35.6549 15.1551 35.0501 16.0109C34.4453 16.8667 34.122 17.8896 34.125 18.9375V7.125C34.125 6.22989 33.7694 5.37145 33.1365 4.73851C32.5035 4.10558 31.6451 3.75 30.75 3.75H17.25C16.3549 3.75 15.4965 4.10558 14.8635 4.73851C14.2306 5.37145 13.875 6.22989 13.875 7.125V18.9172C13.8738 17.8728 13.5485 16.8544 12.944 16.0026C12.3395 15.1509 11.4856 14.5077 10.5 14.1619V7.125ZM34.125 32.4375V40.875C34.125 41.7701 33.7694 42.6285 33.1365 43.2615C32.5035 43.8944 31.6451 44.25 30.75 44.25H17.25C16.3549 44.25 15.4965 43.8944 14.8635 43.2615C14.2306 42.6285 13.875 41.7701 13.875 40.875V32.4577C13.8738 33.5022 13.5485 34.5206 12.944 35.3724C12.3395 36.2241 11.4856 36.8673 10.5 37.2131V40.875C10.5 42.6652 11.2112 44.3821 12.477 45.648C13.7429 46.9138 15.4598 47.625 17.25 47.625H30.75C32.5402 47.625 34.2571 46.9138 35.523 45.648C36.7888 44.3821 37.5 42.6652 37.5 40.875V37.2131C36.5112 36.8662 35.6549 36.2199 35.0501 35.3641C34.4453 34.5083 34.122 33.4854 34.125 32.4375ZM0.871125 24.4928L7.62113 17.7428C7.93799 17.4263 8.36758 17.2487 8.81538 17.2491C9.26318 17.2494 9.69252 17.4276 10.0089 17.7444C10.3254 18.0613 10.5029 18.4909 10.5026 18.9387C10.5023 19.3865 10.3241 19.8158 10.0072 20.1322L6.13613 24H15.5625C16.0101 24 16.4393 24.1778 16.7557 24.4943C17.0722 24.8107 17.25 25.2399 17.25 25.6875C17.25 26.1351 17.0722 26.5643 16.7557 26.8807C16.4393 27.1972 16.0101 27.375 15.5625 27.375H6.13613L10.0072 31.2428C10.3241 31.5596 10.5021 31.9894 10.5021 32.4375C10.5021 32.8856 10.3241 33.3154 10.0072 33.6323C9.69038 33.9491 9.26062 34.1271 8.8125 34.1271C8.36438 34.1271 7.93462 33.9491 7.61775 33.6323L0.86775 26.8822C0.553938 26.5677 0.376876 26.142 0.375 25.6976V25.6774C0.377727 25.2375 0.552111 24.8161 0.861 24.5029L0.871125 24.4928ZM40.3823 33.6323L47.1323 26.8822L47.139 26.8721C47.4479 26.5589 47.6223 26.1375 47.625 25.6976V25.6774C47.6222 25.2342 47.4452 24.8099 47.1323 24.4961L40.3823 17.7461C40.0658 17.4293 39.6365 17.2511 39.1887 17.2507C38.7409 17.2504 38.3113 17.428 37.9944 17.7444C37.6776 18.0609 37.4994 18.4902 37.4991 18.938C37.4987 19.3858 37.6763 19.8154 37.9927 20.1322L41.8639 24H32.4375C31.9899 24 31.5607 24.1778 31.2443 24.4943C30.9278 24.8107 30.75 25.2399 30.75 25.6875C30.75 26.1351 30.9278 26.5643 31.2443 26.8807C31.5607 27.1972 31.9899 27.375 32.4375 27.375H41.8639L37.9927 31.2428C37.6759 31.5596 37.4979 31.9894 37.4979 32.4375C37.4979 32.8856 37.6759 33.3154 37.9927 33.6323C38.3096 33.9491 38.7394 34.1271 39.1875 34.1271C39.6356 34.1271 40.0654 33.9491 40.3823 33.6323Z" fill="url(#paint0_linear_428_13035)"/>
<defs>
<linearGradient id="paint0_linear_428_13035" x1="24" y1="0.375" x2="24" y2="47.625" gradientUnits="userSpaceOnUse">
<stop offset="0.235" stopColor="#08BAF0"/>
<stop offset="0.85" stopColor="#1CD2A5"/>
</linearGradient>
</defs>
</svg>
