<svg width="45" height="45" viewBox="0 0 45 45" fill="none" xmlns="http://www.w3.org/2000/svg">
<path d="M22.2361 44.7222C19.2094 44.7222 16.3489 44.1409 13.6544 42.9782C10.96 41.8155 8.60692 40.2283 6.5953 38.2167C4.58369 36.2051 2.99654 33.8521 1.83386 31.1576C0.671183 28.4632 0.0898438 25.6026 0.0898438 22.5759C0.0898438 19.5124 0.671183 16.6426 1.83386 13.9666C2.99654 11.2906 4.58369 8.94677 6.5953 6.93515C8.60692 4.92353 10.96 3.33638 13.6544 2.1737C16.3489 1.01103 19.2094 0.429688 22.2361 0.429688C25.2997 0.429688 28.1694 1.01103 30.8454 2.1737C33.5215 3.33638 35.8653 4.92353 37.8769 6.93515C39.8885 8.94677 41.4757 11.2906 42.6383 13.9666C43.801 16.6426 44.3823 19.5124 44.3823 22.5759C44.3823 25.6026 43.801 28.4632 42.6383 31.1576C41.4757 33.8521 39.8885 36.2051 37.8769 38.2167C35.8653 40.2283 33.5215 41.8155 30.8454 42.9782C28.1694 44.1409 25.2997 44.7222 22.2361 44.7222ZM22.2361 40.1822C23.1958 38.8534 24.0263 37.4693 24.7275 36.0298C25.4288 34.5903 26.001 33.0585 26.4439 31.4344H18.0283C18.4712 33.0585 19.0433 34.5903 19.7446 36.0298C20.4459 37.4693 21.2764 38.8534 22.2361 40.1822ZM16.4781 39.2964C15.8137 38.0783 15.2323 36.8141 14.7341 35.5038C14.2358 34.1935 13.8205 32.837 13.4883 31.4344H6.95518C8.02558 33.28 9.36359 34.8856 10.9692 36.2513C12.5748 37.6169 14.4111 38.632 16.4781 39.2964ZM27.9941 39.2964C30.0611 38.632 31.8974 37.6169 33.503 36.2513C35.1086 34.8856 36.4466 33.28 37.517 31.4344H30.9839C30.6517 32.837 30.2364 34.1935 29.7381 35.5038C29.2398 36.8141 28.6585 38.0783 27.9941 39.2964ZM5.07275 27.0052H12.6025C12.4917 26.267 12.4087 25.538 12.3533 24.8182C12.298 24.0985 12.2703 23.3511 12.2703 22.5759C12.2703 21.8008 12.298 21.0534 12.3533 20.3336C12.4087 19.6139 12.4917 18.8849 12.6025 18.1467H5.07275C4.8882 18.8849 4.74978 19.6139 4.65751 20.3336C4.56523 21.0534 4.51909 21.8008 4.51909 22.5759C4.51909 23.3511 4.56523 24.0985 4.65751 24.8182C4.74978 25.538 4.8882 26.267 5.07275 27.0052ZM17.0317 27.0052H27.4405C27.5512 26.267 27.6342 25.538 27.6896 24.8182C27.745 24.0985 27.7727 23.3511 27.7727 22.5759C27.7727 21.8008 27.745 21.0534 27.6896 20.3336C27.6342 19.6139 27.5512 18.8849 27.4405 18.1467H17.0317C16.921 18.8849 16.8379 19.6139 16.7826 20.3336C16.7272 21.0534 16.6995 21.8008 16.6995 22.5759C16.6995 23.3511 16.7272 24.0985 16.7826 24.8182C16.8379 25.538 16.921 26.267 17.0317 27.0052ZM31.8697 27.0052H39.3994C39.584 26.267 39.7224 25.538 39.8147 24.8182C39.907 24.0985 39.9531 23.3511 39.9531 22.5759C39.9531 21.8008 39.907 21.0534 39.8147 20.3336C39.7224 19.6139 39.584 18.8849 39.3994 18.1467H31.8697C31.9804 18.8849 32.0635 19.6139 32.1189 20.3336C32.1742 21.0534 32.2019 21.8008 32.2019 22.5759C32.2019 23.3511 32.1742 24.0985 32.1189 24.8182C32.0635 25.538 31.9804 26.267 31.8697 27.0052ZM30.9839 13.7174H37.517C36.4466 11.8719 35.1086 10.2663 33.503 8.90063C31.8974 7.53494 30.0611 6.51991 27.9941 5.85552C28.6585 7.07356 29.2398 8.33774 29.7381 9.64806C30.2364 10.9584 30.6517 12.3148 30.9839 13.7174ZM18.0283 13.7174H26.4439C26.001 12.0934 25.4288 10.5616 24.7275 9.12209C24.0263 7.68258 23.1958 6.29844 22.2361 4.96967C21.2764 6.29844 20.4459 7.68258 19.7446 9.12209C19.0433 10.5616 18.4712 12.0934 18.0283 13.7174ZM6.95518 13.7174H13.4883C13.8205 12.3148 14.2358 10.9584 14.7341 9.64806C15.2323 8.33774 15.8137 7.07356 16.4781 5.85552C14.4111 6.51991 12.5748 7.53494 10.9692 8.90063C9.36359 10.2663 8.02558 11.8719 6.95518 13.7174Z" fill="url(#paint0_linear_428_13347)"/>
<defs>
<linearGradient id="paint0_linear_428_13347" x1="22.2361" y1="0.429687" x2="22.2361" y2="44.7222" gradientUnits="userSpaceOnUse">
<stop offset="0.235" stopColor="#08BAF0"/>
<stop offset="0.85" stopColor="#1CD2A5"/>
</linearGradient>
</defs>
</svg>
