<svg width="51" height="44" viewBox="0 0 51 44" fill="none" xmlns="http://www.w3.org/2000/svg">
<path d="M43.5457 31.8873L40.0582 28.3998C41.7082 26.8623 43.002 25.0436 43.9395 22.9436C44.877 20.8436 45.3457 18.6123 45.3457 16.2498C45.3457 13.8873 44.877 11.6748 43.9395 9.61231C43.002 7.54981 41.7082 5.74981 40.0582 4.21231L43.5457 0.612305C45.6457 2.5998 47.3145 4.94355 48.552 7.64356C49.7895 10.3436 50.4082 13.2123 50.4082 16.2498C50.4082 19.2873 49.7895 22.1561 48.552 24.8561C47.3145 27.5561 45.6457 29.8998 43.5457 31.8873ZM36.3457 24.6873L32.7457 21.0873C33.4207 20.4498 33.9645 19.7279 34.377 18.9217C34.7895 18.1154 34.9957 17.2248 34.9957 16.2498C34.9957 15.2748 34.7895 14.3842 34.377 13.5779C33.9645 12.7717 33.4207 12.0498 32.7457 11.4123L36.3457 7.81231C37.5457 8.89981 38.4832 10.1654 39.1582 11.6092C39.8332 13.0529 40.1707 14.5998 40.1707 16.2498C40.1707 17.8998 39.8332 19.4467 39.1582 20.8904C38.4832 22.3342 37.5457 23.5998 36.3457 24.6873ZM18.9082 25.2498C16.4332 25.2498 14.3145 24.3686 12.552 22.6061C10.7895 20.8436 9.9082 18.7248 9.9082 16.2498C9.9082 13.7748 10.7895 11.6561 12.552 9.89356C14.3145 8.13106 16.4332 7.24981 18.9082 7.24981C21.3832 7.24981 23.502 8.13106 25.2645 9.89356C27.027 11.6561 27.9082 13.7748 27.9082 16.2498C27.9082 18.7248 27.027 20.8436 25.2645 22.6061C23.502 24.3686 21.3832 25.2498 18.9082 25.2498ZM0.908203 43.2498V36.9498C0.908203 35.7123 1.22695 34.5498 1.86445 33.4623C2.50195 32.3748 3.3832 31.5498 4.5082 30.9873C6.4207 30.0123 8.57695 29.1873 10.977 28.5123C13.377 27.8373 16.0207 27.4998 18.9082 27.4998C21.7957 27.4998 24.4395 27.8373 26.8395 28.5123C29.2395 29.1873 31.3957 30.0123 33.3082 30.9873C34.4332 31.5498 35.3145 32.3748 35.952 33.4623C36.5895 34.5498 36.9082 35.7123 36.9082 36.9498V43.2498H0.908203ZM5.4082 38.7498H32.4082V36.9498C32.4082 36.5373 32.3051 36.1623 32.0988 35.8248C31.8926 35.4873 31.6207 35.2248 31.2832 35.0373C29.9332 34.3623 28.1988 33.6873 26.0801 33.0123C23.9613 32.3373 21.5707 31.9998 18.9082 31.9998C16.2457 31.9998 13.8551 32.3373 11.7363 33.0123C9.61758 33.6873 7.8832 34.3623 6.5332 35.0373C6.1957 35.2248 5.92383 35.4873 5.71758 35.8248C5.51133 36.1623 5.4082 36.5373 5.4082 36.9498V38.7498ZM18.9082 20.7498C20.1457 20.7498 21.2051 20.3092 22.0863 19.4279C22.9676 18.5467 23.4082 17.4873 23.4082 16.2498C23.4082 15.0123 22.9676 13.9529 22.0863 13.0717C21.2051 12.1904 20.1457 11.7498 18.9082 11.7498C17.6707 11.7498 16.6113 12.1904 15.7301 13.0717C14.8488 13.9529 14.4082 15.0123 14.4082 16.2498C14.4082 17.4873 14.8488 18.5467 15.7301 19.4279C16.6113 20.3092 17.6707 20.7498 18.9082 20.7498Z" fill="url(#paint0_linear_428_13121)"/>
<defs>
<linearGradient id="paint0_linear_428_13121" x1="25.6582" y1="0.612305" x2="25.6582" y2="43.2498" gradientUnits="userSpaceOnUse">
<stop offset="0.235" stop-color="#08BAF0"/>
<stop offset="0.85" stop-color="#1CD2A5"/>
</linearGradient>
</defs>
</svg>
