<svg width="41" height="43" viewBox="0 0 41 43" fill="none" xmlns="http://www.w3.org/2000/svg">
<path d="M29.6944 18.4006C29.0669 18.4006 28.541 18.1884 28.1165 17.7639C27.692 17.3394 27.4798 16.8134 27.4798 16.186V9.5421C27.4798 8.91462 27.692 8.38864 28.1165 7.96417C28.541 7.53971 29.0669 7.32747 29.6944 7.32747V5.11284C29.6944 3.8948 30.1281 2.85208 30.9955 1.98469C31.8629 1.11729 32.9056 0.683594 34.1237 0.683594C35.3417 0.683594 36.3844 1.11729 37.2518 1.98469C38.1192 2.85208 38.5529 3.8948 38.5529 5.11284V7.32747C39.1804 7.32747 39.7064 7.53971 40.1308 7.96417C40.5553 8.38864 40.7676 8.91462 40.7676 9.5421V16.186C40.7676 16.8134 40.5553 17.3394 40.1308 17.7639C39.7064 18.1884 39.1804 18.4006 38.5529 18.4006H29.6944ZM31.9091 7.32747H36.3383V5.11284C36.3383 4.48537 36.1261 3.95939 35.7016 3.53492C35.2771 3.11045 34.7512 2.89822 34.1237 2.89822C33.4962 2.89822 32.9702 3.11045 32.5458 3.53492C32.1213 3.95939 31.9091 4.48537 31.9091 5.11284V7.32747ZM38.4422 42.7615C33.8284 42.7615 29.27 41.7557 24.7669 39.744C20.2638 37.7324 16.1668 34.8811 12.4757 31.1901C8.78467 27.499 5.93334 23.402 3.92172 18.8989C1.91011 14.3958 0.904297 9.83738 0.904297 5.22358C0.904297 4.55919 1.12576 4.00553 1.56868 3.56261C2.01161 3.11968 2.56527 2.89822 3.22965 2.89822H12.1989C12.7156 2.89822 13.177 3.07354 13.583 3.42419C13.989 3.77484 14.229 4.19008 14.3028 4.66992L15.7423 12.4211C15.8161 13.0117 15.7977 13.51 15.6869 13.916C15.5762 14.322 15.3732 14.6726 15.0779 14.9679L9.70743 20.3938C10.4456 21.7594 11.3223 23.079 12.3373 24.3524C13.3523 25.6258 14.4689 26.8531 15.6869 28.0342C16.8311 29.1784 18.0307 30.2396 19.2857 31.2177C20.5406 32.1959 21.8694 33.0909 23.272 33.903L28.4764 28.6986C28.8086 28.3664 29.2423 28.1173 29.7775 27.9512C30.3127 27.7851 30.8386 27.7389 31.3554 27.8128L38.9959 29.363C39.5126 29.5106 39.9371 29.7782 40.2693 30.1658C40.6015 30.5534 40.7676 30.9871 40.7676 31.4669V40.4361C40.7676 41.1005 40.5461 41.6542 40.1032 42.0971C39.6602 42.54 39.1066 42.7615 38.4422 42.7615ZM7.60354 16.186L11.2577 12.5318L10.3165 7.32747H5.38891C5.57347 8.8408 5.83184 10.3357 6.16403 11.8121C6.49623 13.2885 6.97606 14.7465 7.60354 16.186ZM27.4244 36.0069C28.8639 36.6343 30.3311 37.1326 31.826 37.5017C33.3209 37.8708 34.825 38.1108 36.3383 38.2215V33.3493L31.1339 32.2974L27.4244 36.0069Z" fill="url(#paint0_linear_428_13239)"/>
<defs>
<linearGradient id="paint0_linear_428_13239" x1="20.8359" y1="0.683594" x2="20.8359" y2="42.7615" gradientUnits="userSpaceOnUse">
<stop offset="0.235" stopColor="#08BAF0"/>
<stop offset="0.85" stopColor="#1CD2A5"/>
</linearGradient>
</defs>
</svg>
