<svg width="32" height="46" viewBox="0 0 32 46" fill="none" xmlns="http://www.w3.org/2000/svg">
<path fill-rule="evenodd" clip-rule="evenodd" d="M28.4722 6.5838C27.7935 4.94587 26.7988 3.45767 25.5449 2.20418L27.1368 0.612305C28.5995 2.07485 29.7598 3.81119 30.5514 5.72217C31.343 7.63315 31.7504 9.68135 31.7504 11.7498C31.7504 13.8183 31.343 15.8665 30.5514 17.7774C29.7598 19.6884 28.5995 21.4248 27.1368 22.8873L25.5449 21.2954C27.433 19.4076 28.7188 17.0022 29.2398 14.3836C29.7609 11.765 29.4937 9.05061 28.4722 6.5838Z" fill="url(#paint0_linear_428_13028)"/>
<path fill-rule="evenodd" clip-rule="evenodd" d="M22.2342 9.16687C21.8953 8.34779 21.3983 7.6035 20.7718 6.97649L22.3625 5.38574C23.1983 6.22148 23.8613 7.21365 24.3136 8.30561C24.7659 9.39757 24.9987 10.5679 24.9987 11.7499C24.9987 12.9318 24.7659 14.1022 24.3136 15.1941C23.8613 16.2861 23.1983 17.2783 22.3625 18.114L20.7718 16.5232C21.7159 15.579 22.3588 14.376 22.6192 13.0664C22.8795 11.7567 22.7455 10.3993 22.2342 9.16574M11.225 6.97649C10.5981 7.6033 10.1008 8.34747 9.76149 9.16649C9.4222 9.98551 9.24757 10.8633 9.24757 11.7499C9.24757 12.6364 9.4222 13.5142 9.76149 14.3332C10.1008 15.1523 10.5981 15.8964 11.225 16.5232L9.63425 18.114C8.79847 17.2783 8.1355 16.2861 7.68318 15.1941C7.23085 14.1022 6.99805 12.9318 6.99805 11.7499C6.99805 10.5679 7.23085 9.39757 7.68318 8.30561C8.1355 7.21365 8.79847 6.22148 9.63425 5.38574L11.225 6.97649Z" fill="url(#paint1_linear_428_13028)"/>
<path fill-rule="evenodd" clip-rule="evenodd" d="M6.45356 2.20418C3.92201 4.73589 2.49982 8.16954 2.49982 11.7498C2.49982 15.3301 3.92201 18.7637 6.45356 21.2954L4.86168 22.8873C3.39899 21.4248 2.23871 19.6884 1.4471 17.7774C0.655485 15.8665 0.248047 13.8183 0.248047 11.7498C0.248047 9.68135 0.655485 7.63315 1.4471 5.72217C2.23871 3.81119 3.39899 2.07485 4.86168 0.612305L6.45356 2.20418Z" fill="url(#paint2_linear_428_13028)"/>
<path d="M18.25 11.75C18.25 12.3467 18.0129 12.919 17.591 13.341C17.169 13.7629 16.5967 14 16 14C15.4033 14 14.831 13.7629 14.409 13.341C13.9871 12.919 13.75 12.3467 13.75 11.75C13.75 11.1533 13.9871 10.581 14.409 10.159C14.831 9.73705 15.4033 9.5 16 9.5C16.5967 9.5 17.169 9.73705 17.591 10.159C18.0129 10.581 18.25 11.1533 18.25 11.75Z" fill="url(#paint3_linear_428_13028)"/>
<path fill-rule="evenodd" clip-rule="evenodd" d="M0.25 28.625C0.25 27.7299 0.605579 26.8714 1.23851 26.2385C1.87145 25.6056 2.72989 25.25 3.625 25.25H28.375C29.2701 25.25 30.1286 25.6056 30.7615 26.2385C31.3944 26.8714 31.75 27.7299 31.75 28.625V42.125C31.75 43.0201 31.3944 43.8785 30.7615 44.5115C30.1286 45.1444 29.2701 45.5 28.375 45.5H3.625C2.72989 45.5 1.87145 45.1444 1.23851 44.5115C0.605579 43.8785 0.25 43.0201 0.25 42.125V28.625ZM13.75 29.75C13.75 29.4516 13.6315 29.1655 13.4205 28.9545C13.2095 28.7435 12.9234 28.625 12.625 28.625H6.71875C6.45877 28.6252 6.20687 28.7154 6.00588 28.8802C5.80489 29.0451 5.66721 29.2746 5.61625 29.5295L4.7725 33.7483C4.72897 33.9664 4.75107 34.1925 4.83602 34.3981C4.92096 34.6036 5.06494 34.7794 5.24974 34.9032C5.43455 35.0269 5.6519 35.0931 5.87432 35.0934C6.09674 35.0937 6.31426 35.028 6.49938 34.9048C6.73563 34.7473 7.78525 34.25 9.25 34.25C9.84674 34.25 10.419 34.4871 10.841 34.909C11.2629 35.331 11.5 35.9033 11.5 36.5C11.5 37.0967 11.2629 37.669 10.841 38.091C10.419 38.5129 9.84674 38.75 9.25 38.75H8.314C7.66488 38.75 7.12825 38.345 6.93363 37.805C6.83218 37.5242 6.62336 37.2953 6.35309 37.1685C6.08283 37.0417 5.77327 37.0274 5.4925 37.1289C5.21174 37.2303 4.98277 37.4391 4.85597 37.7094C4.72917 37.9797 4.71493 38.2892 4.81638 38.57C5.0797 39.2854 5.55686 39.9023 6.18301 40.3371C6.80917 40.7718 7.55397 41.0033 8.31625 41H9.25C10.4435 41 11.5881 40.5259 12.432 39.682C13.2759 38.8381 13.75 37.6935 13.75 36.5C13.75 35.3065 13.2759 34.1619 12.432 33.318C11.5881 32.4741 10.4435 32 9.25 32C8.56375 32 7.93038 32.081 7.37575 32.2047L7.64125 30.875H12.625C12.9234 30.875 13.2095 30.7565 13.4205 30.5455C13.6315 30.3345 13.75 30.0484 13.75 29.75ZM25.8471 31.7458C25.9455 31.6355 26.0213 31.507 26.07 31.3676C26.1187 31.2281 26.1395 31.0804 26.1311 30.9329C26.1228 30.7854 26.0854 30.6409 26.0213 30.5079C25.9571 30.3748 25.8673 30.2556 25.7571 30.1572C24.8663 29.3606 23.764 28.8388 22.5832 28.6549C21.4023 28.471 20.1935 28.6327 19.1026 29.1206C18.0117 29.6086 17.0853 30.4018 16.4353 31.4046C15.7853 32.4074 15.4394 33.5769 15.4394 34.772C15.4394 35.9671 15.7853 37.1366 16.4353 38.1394C17.0853 39.1422 18.0117 39.9354 19.1026 40.4234C20.1935 40.9113 21.4023 41.073 22.5832 40.8891C23.764 40.7052 24.8663 40.1834 25.7571 39.3868C25.8752 39.2813 25.9697 39.1522 26.0344 39.0078C26.0992 38.8634 26.1327 38.7069 26.1329 38.5486V34.772C26.1329 34.4736 26.0144 34.1875 25.8034 33.9765C25.5924 33.7655 25.3062 33.647 25.0079 33.647H21.6306C21.3323 33.647 21.0461 33.7655 20.8351 33.9765C20.6242 34.1875 20.5056 34.4736 20.5056 34.772C20.5056 35.0704 20.6242 35.3565 20.8351 35.5675C21.0461 35.7785 21.3323 35.897 21.6306 35.897H23.8829V38.0064C23.2917 38.4174 22.5993 38.6588 21.8808 38.7042C21.1622 38.7497 20.4449 38.5976 19.8066 38.2643C19.1684 37.931 18.6336 37.4294 18.2602 36.8138C17.8869 36.1981 17.6892 35.492 17.6886 34.772C17.6883 34.0109 17.9084 33.266 18.3223 32.6272C18.7362 31.9885 19.3262 31.4833 20.021 31.1726C20.7159 30.862 21.4858 30.7592 22.2378 30.8767C22.9898 30.9941 23.6917 31.3269 24.2586 31.8346C24.3688 31.933 24.4973 32.0088 24.6368 32.0575C24.7763 32.1062 24.924 32.127 25.0715 32.1186C25.219 32.1103 25.3634 32.0729 25.4965 32.0088C25.6296 31.9446 25.7487 31.856 25.8471 31.7458Z" fill="url(#paint4_linear_428_13028)"/>
<defs>
<linearGradient id="paint0_linear_428_13028" x1="28.6477" y1="0.612305" x2="28.6477" y2="22.8873" gradientUnits="userSpaceOnUse">
<stop offset="0.235" stopColor="#08BAF0"/>
<stop offset="0.85" stopColor="#1CD2A5"/>
</linearGradient>
<linearGradient id="paint1_linear_428_13028" x1="15.9984" y1="5.38574" x2="15.9984" y2="18.114" gradientUnits="userSpaceOnUse">
<stop offset="0.235" stopColor="#08BAF0"/>
<stop offset="0.85" stopColor="#1CD2A5"/>
</linearGradient>
<linearGradient id="paint2_linear_428_13028" x1="3.3508" y1="0.612305" x2="3.3508" y2="22.8873" gradientUnits="userSpaceOnUse">
<stop offset="0.235" stopColor="#08BAF0"/>
<stop offset="0.85" stopColor="#1CD2A5"/>
</linearGradient>
<linearGradient id="paint3_linear_428_13028" x1="16" y1="9.5" x2="16" y2="14" gradientUnits="userSpaceOnUse">
<stop offset="0.235" stopColor="#08BAF0"/>
<stop offset="0.85" stopColor="#1CD2A5"/>
</linearGradient>
<linearGradient id="paint4_linear_428_13028" x1="16" y1="25.25" x2="16" y2="45.5" gradientUnits="userSpaceOnUse">
<stop offset="0.235" stopColor="#08BAF0"/>
<stop offset="0.85" stopColor="#1CD2A5"/>
</linearGradient>
</defs>
</svg>
