<svg width="40" height="45" viewBox="0 0 40 45" fill="none" xmlns="http://www.w3.org/2000/svg">
<path d="M28.9015 33.903C29.8242 33.903 30.6086 33.58 31.2545 32.9341C31.9004 32.2881 32.2234 31.5038 32.2234 30.581C32.2234 29.6583 31.9004 28.8739 31.2545 28.228C30.6086 27.5821 29.8242 27.2591 28.9015 27.2591C27.9787 27.2591 27.1944 27.5821 26.5484 28.228C25.9025 28.8739 25.5795 29.6583 25.5795 30.581C25.5795 31.5038 25.9025 32.2881 26.5484 32.9341C27.1944 33.58 27.9787 33.903 28.9015 33.903ZM28.9015 40.5468C30.0457 40.5468 31.0976 40.2792 32.0573 39.744C33.017 39.2088 33.7921 38.4983 34.3827 37.6125C33.5706 37.1326 32.7032 36.7635 31.7805 36.5052C30.8577 36.2468 29.898 36.1176 28.9015 36.1176C27.9049 36.1176 26.9452 36.2468 26.0224 36.5052C25.0997 36.7635 24.2323 37.1326 23.4203 37.6125C24.0108 38.4983 24.7859 39.2088 25.7456 39.744C26.7053 40.2792 27.7572 40.5468 28.9015 40.5468ZM17.8283 44.9761C12.6978 43.6842 8.46231 40.7406 5.12192 36.1453C1.78152 31.5499 0.111328 26.4471 0.111328 20.8367V7.32747L17.8283 0.683594L35.5453 7.32747V19.8955C34.844 19.6002 34.1243 19.3326 33.3861 19.0927C32.6479 18.8527 31.8912 18.6774 31.1161 18.5667V10.4279L17.8283 5.44504L4.54058 10.4279V20.8367C4.54058 22.5715 4.77127 24.3063 5.23265 26.0411C5.69403 27.7758 6.33996 29.4276 7.17045 30.9963C8.00093 32.565 9.00674 34.0137 10.1879 35.3425C11.369 36.6713 12.6793 37.7786 14.1188 38.6644C14.5248 39.8455 15.0601 40.9713 15.7244 42.0417C16.3888 43.1121 17.1455 44.0718 17.9944 44.9207C17.9575 44.9207 17.9298 44.93 17.9114 44.9484C17.8929 44.9669 17.8652 44.9761 17.8283 44.9761ZM28.9015 44.9761C25.8379 44.9761 23.2265 43.8965 21.0672 41.7372C18.908 39.5779 17.8283 36.9665 17.8283 33.903C17.8283 30.8394 18.908 28.228 21.0672 26.0687C23.2265 23.9095 25.8379 22.8298 28.9015 22.8298C31.965 22.8298 34.5764 23.9095 36.7357 26.0687C38.895 28.228 39.9746 30.8394 39.9746 33.903C39.9746 36.9665 38.895 39.5779 36.7357 41.7372C34.5764 43.8965 31.965 44.9761 28.9015 44.9761Z" fill="url(#paint0_linear_428_13236)"/>
<defs>
<linearGradient id="paint0_linear_428_13236" x1="20.043" y1="0.683594" x2="20.043" y2="44.9761" gradientUnits="userSpaceOnUse">
<stop offset="0.235" stop-color="#08BAF0"/>
<stop offset="0.85" stop-color="#1CD2A5"/>
</linearGradient>
</defs>
</svg>
