<svg width="45" height="45" viewBox="0 0 45 45" fill="none" xmlns="http://www.w3.org/2000/svg">
<path d="M20.3633 44.5007C17.5581 44.2054 14.9467 43.4396 12.529 42.2031C10.1114 40.9666 8.0075 39.361 6.21735 37.3862C4.42719 35.4115 3.01537 33.1508 1.98188 30.604C0.948386 28.0571 0.431641 25.3442 0.431641 22.4652C0.431641 19.1064 1.10526 16.0059 2.45249 13.1638C3.79972 10.3217 5.63601 7.88559 7.96137 5.85552H2.64627V1.42627H15.934V14.714H11.5048V8.67917C9.47469 10.3032 7.85986 12.3056 6.66027 14.6863C5.46069 17.0671 4.86089 19.66 4.86089 22.4652C4.86089 27.0052 6.34654 30.9269 9.31782 34.2304C12.2891 37.5339 15.9709 39.4625 20.3633 40.0161V44.5007ZM19.4221 32.6525L10.0653 23.2403L13.1657 20.1399L19.4221 26.3962L31.99 13.8282L35.0905 16.984L19.4221 32.6525ZM29.2218 43.5041V30.2164H33.651V36.2513C35.6811 34.5903 37.2959 32.5787 38.4955 30.2164C39.6951 27.8541 40.2949 25.2704 40.2949 22.4652C40.2949 17.9252 38.8092 14.0035 35.838 10.7C32.8667 7.39653 29.1849 5.46796 24.7925 4.9143V0.429688C30.4029 0.983344 35.1274 3.34561 38.9661 7.51649C42.8048 11.6874 44.7241 16.6703 44.7241 22.4652C44.7241 25.8241 44.0505 28.9245 42.7033 31.7666C41.3561 34.6087 39.5198 37.0448 37.1944 39.0749H42.5095V43.5041H29.2218Z" fill="url(#paint0_linear_696_18912)"/>
<defs>
<linearGradient id="paint0_linear_696_18912" x1="22.5779" y1="0.429687" x2="22.5779" y2="44.5007" gradientUnits="userSpaceOnUse">
<stop offset="0.235" stopColor="#08BAF0"/>
<stop offset="0.85" stopColor="#1CD2A5"/>
</linearGradient>
</defs>
</svg>
