<svg xmlns="http://www.w3.org/2000/svg" xmlns:xlink="http://www.w3.org/1999/xlink"  zoomAndPan="magnify" viewBox="0 0 375 56.999997" preserveAspectRatio="xMidYMid meet" version="1.0"><path fill="#000000" d="M 54.558594 6.671875 L 54.445312 5.613281 L 51.839844 4.554688 C 44.390625 1.515625 36.644531 0.00390625 28.601562 0.0195312 C 20.371094 -0.0507812 12.457031 1.492188 4.855469 4.648438 L 2.484375 5.761719 L 2.378906 6.820312 C 1.789062 13.550781 2.242188 20.207031 3.746094 26.792969 C 7.058594 40.203125 14.90625 50.296875 26.429688 55.960938 L 28.546875 57.019531 L 30.601562 55.960938 C 42.136719 50.296875 49.984375 40.203125 53.289062 26.792969 C 54.765625 20.152344 55.1875 13.445312 54.558594 6.671875 Z M 51.382812 26.351562 C 48.207031 39.207031 40.707031 48.867188 29.683594 54.289062 L 28.453125 54.902344 L 27.214844 54.289062 C 16.1875 48.867188 8.691406 39.207031 5.511719 26.351562 C 4.078125 19.953125 3.652344 13.488281 4.230469 6.957031 L 5.652344 6.300781 C 12.996094 3.253906 20.648438 1.765625 28.601562 1.84375 C 36.402344 1.828125 43.910156 3.296875 51.128906 6.25 L 52.664062 6.875 C 53.261719 13.4375 52.847656 19.9375 51.425781 26.371094 Z M 51.382812 26.351562 " fill-opacity="1" fill-rule="nonzero"/><path fill="#000000" d="M 6.871094 8.855469 C 6.609375 11.980469 6.652344 15.105469 6.996094 18.226562 C 7.132812 19.613281 7.335938 21.109375 7.621094 22.675781 C 8.449219 22.335938 9.910156 21.785156 11.910156 21.191406 C 17.324219 19.601562 22.847656 18.804688 28.492188 18.804688 C 34.132812 18.804688 39.660156 19.601562 45.070312 21.191406 C 44.871094 22.367188 44.613281 23.605469 44.296875 24.867188 C 44.234375 25.121094 44.160156 25.363281 44.097656 25.621094 C 38.992188 24.214844 33.789062 23.511719 28.496094 23.511719 C 23.199219 23.511719 18 24.214844 12.894531 25.621094 C 11.085938 26.117188 9.644531 26.605469 8.660156 26.984375 C 9.050781 28.421875 9.511719 29.832031 10.046875 31.222656 C 10.578125 32.636719 11.1875 34.015625 11.878906 35.363281 C 12.59375 36.769531 13.390625 38.128906 14.273438 39.441406 C 15.710938 39.082031 17.332031 38.742188 19.113281 38.457031 C 25.410156 37.425781 31.707031 37.425781 38.007812 38.457031 C 36.847656 39.984375 35.566406 41.394531 34.152344 42.691406 C 32.425781 44.253906 30.554688 45.613281 28.539062 46.769531 C 26.519531 45.609375 24.648438 44.246094 22.925781 42.679688 C 20.921875 42.871094 19.070312 43.15625 17.386719 43.476562 C 18.714844 44.945312 20.15625 46.296875 21.707031 47.53125 C 23.816406 49.1875 26.082031 50.601562 28.496094 51.769531 C 30.921875 50.585938 33.191406 49.15625 35.304688 47.480469 C 36.855469 46.25 38.292969 44.894531 39.617188 43.421875 C 40.769531 42.164062 41.828125 40.828125 42.792969 39.417969 C 43.667969 38.113281 44.460938 36.761719 45.175781 35.363281 C 43.671875 34.90625 42.191406 34.527344 40.726562 34.207031 C 32.609375 32.496094 24.488281 32.496094 16.371094 34.207031 C 15.613281 32.839844 14.945312 31.425781 14.367188 29.972656 C 19.019531 28.816406 23.742188 28.238281 28.53125 28.238281 C 33.324219 28.238281 38.046875 28.816406 42.699219 29.972656 C 44.117188 30.332031 45.546875 30.753906 47 31.253906 C 47.546875 29.824219 48.003906 28.40625 48.386719 27.015625 C 48.765625 25.628906 49.125 24.082031 49.382812 22.6875 C 49.675781 21.109375 49.878906 19.605469 50.027344 18.207031 C 48.554688 17.613281 47.105469 17.09375 45.664062 16.648438 C 40.078125 14.941406 34.363281 14.089844 28.523438 14.089844 C 22.679688 14.089844 16.96875 14.941406 11.382812 16.648438 C 11.234375 14.804688 11.199219 13.207031 11.222656 11.976562 C 14.023438 11.113281 16.871094 10.464844 19.769531 10.027344 C 22.667969 9.589844 25.582031 9.371094 28.511719 9.371094 C 31.441406 9.371094 34.355469 9.589844 37.253906 10.027344 C 40.152344 10.464844 43 11.113281 45.800781 11.976562 C 47.230469 12.433594 48.683594 12.941406 50.132812 13.535156 L 50.300781 13.597656 C 50.339844 12.011719 50.285156 10.425781 50.144531 8.84375 C 46.703125 7.460938 43.164062 6.417969 39.523438 5.710938 C 35.886719 5.007812 32.210938 4.65625 28.503906 4.65625 C 24.796875 4.660156 21.125 5.011719 17.484375 5.71875 C 13.847656 6.421875 10.308594 7.46875 6.871094 8.855469 Z M 6.871094 8.855469 " fill-opacity="1" fill-rule="nonzero"/><path fill="#000000" d="M 354.554688 37.132812 L 356.273438 35.121094 C 357.371094 36.234375 358.648438 37.089844 360.09375 37.6875 C 361.542969 38.285156 363.050781 38.574219 364.617188 38.5625 C 367.890625 38.5625 370.050781 36.824219 370.050781 34.421875 L 370.050781 34.347656 C 370.050781 32.089844 368.832031 30.796875 363.695312 29.71875 C 358.09375 28.5 355.507812 26.6875 355.507812 22.6875 L 355.507812 22.621094 C 355.507812 18.789062 358.886719 15.972656 363.515625 15.972656 C 365.082031 15.925781 366.601562 16.160156 368.078125 16.679688 C 369.554688 17.195312 370.890625 17.957031 372.085938 18.96875 L 370.484375 21.085938 C 369.511719 20.234375 368.417969 19.582031 367.207031 19.125 C 366 18.671875 364.746094 18.441406 363.453125 18.4375 C 360.277344 18.4375 358.261719 20.175781 358.261719 22.378906 L 358.261719 22.441406 C 358.261719 24.738281 359.511719 26.03125 364.882812 27.175781 C 370.253906 28.320312 372.816406 30.351562 372.816406 34.070312 L 372.816406 34.144531 C 372.816406 38.316406 369.332031 41.039062 364.492188 41.039062 C 362.644531 41.054688 360.863281 40.726562 359.144531 40.050781 C 357.425781 39.375 355.898438 38.402344 354.554688 37.132812 Z M 354.554688 37.132812 " fill-opacity="1" fill-rule="nonzero"/><path fill="#000000" d="M 72.195312 16.308594 L 89.804688 16.308594 L 89.804688 18.820312 L 72.195312 18.820312 Z M 72.195312 16.308594 " fill-opacity="1" fill-rule="nonzero"/><path fill="#000000" d="M 74.949219 29.65625 L 85.761719 29.65625 L 85.761719 27.144531 L 72.195312 27.144531 L 72.195312 40.679688 L 89.988281 40.679688 L 89.988281 38.179688 L 74.949219 38.179688 Z M 74.949219 29.65625 " fill-opacity="1" fill-rule="nonzero"/><path fill="#000000" d="M 117.976562 35.851562 L 102.632812 16.308594 L 100.046875 16.308594 L 100.046875 40.679688 L 102.738281 40.679688 L 102.738281 20.707031 L 118.464844 40.679688 L 120.65625 40.679688 L 120.65625 16.308594 L 117.976562 16.308594 Z M 117.976562 35.851562 " fill-opacity="1" fill-rule="nonzero"/><path fill="#000000" d="M 143.300781 38.5625 C 137.941406 38.5625 133.863281 34.144531 133.863281 28.5 L 133.863281 28.4375 C 133.863281 22.824219 137.898438 18.4375 143.300781 18.4375 C 144.753906 18.449219 146.144531 18.742188 147.472656 19.324219 C 148.804688 19.90625 149.964844 20.726562 150.957031 21.785156 L 152.84375 19.761719 C 151.597656 18.476562 150.144531 17.496094 148.484375 16.824219 C 146.824219 16.148438 145.101562 15.839844 143.3125 15.898438 C 142.488281 15.894531 141.675781 15.972656 140.867188 16.132812 C 140.0625 16.292969 139.28125 16.53125 138.523438 16.847656 C 137.765625 17.167969 137.042969 17.554688 136.363281 18.015625 C 135.683594 18.480469 135.058594 19.003906 134.480469 19.589844 C 133.90625 20.179688 133.398438 20.816406 132.949219 21.507812 C 132.503906 22.199219 132.128906 22.925781 131.828125 23.691406 C 131.527344 24.457031 131.308594 25.242188 131.164062 26.054688 C 131.023438 26.863281 130.960938 27.679688 130.984375 28.5 L 130.984375 28.574219 C 130.957031 29.390625 131.015625 30.203125 131.152344 31.007812 C 131.292969 31.8125 131.511719 32.59375 131.804688 33.355469 C 132.101562 34.117188 132.472656 34.839844 132.914062 35.527344 C 133.355469 36.214844 133.863281 36.851562 134.433594 37.433594 C 135.003906 38.019531 135.625 38.542969 136.300781 39 C 136.976562 39.460938 137.691406 39.847656 138.445312 40.160156 C 139.199219 40.476562 139.976562 40.714844 140.777344 40.871094 C 141.578125 41.03125 142.386719 41.109375 143.207031 41.101562 C 145.0625 41.144531 146.84375 40.792969 148.546875 40.054688 C 150.25 39.3125 151.722656 38.25 152.960938 36.867188 L 151.148438 35.085938 C 148.839844 37.28125 146.648438 38.5625 143.300781 38.5625 Z M 143.300781 38.5625 " fill-opacity="1" fill-rule="nonzero"/><path fill="#000000" d="M 174.988281 30.734375 C 178.8125 30.035156 181.597656 27.664062 181.597656 23.628906 L 181.597656 23.554688 C 181.617188 22.660156 181.464844 21.800781 181.140625 20.96875 C 180.816406 20.136719 180.34375 19.398438 179.722656 18.757812 C 178.773438 17.90625 177.703125 17.273438 176.5 16.851562 C 175.300781 16.429688 174.066406 16.25 172.796875 16.320312 L 162.3125 16.320312 L 162.3125 40.679688 L 165.066406 40.679688 L 165.066406 31.210938 L 172.023438 31.210938 L 179.097656 40.679688 L 182.476562 40.679688 Z M 165.066406 28.742188 L 165.066406 18.863281 L 172.574219 18.863281 C 176.503906 18.863281 178.800781 20.664062 178.800781 23.660156 L 178.800781 23.734375 C 178.800781 26.910156 176.195312 28.742188 172.542969 28.742188 Z M 165.066406 28.742188 " fill-opacity="1" fill-rule="nonzero"/><path fill="#000000" d="M 192.261719 16.308594 L 195.015625 16.308594 L 195.015625 40.679688 L 192.261719 40.679688 Z M 192.261719 16.308594 " fill-opacity="1" fill-rule="nonzero"/><path fill="#000000" d="M 215.796875 16.320312 L 206.675781 16.320312 L 206.675781 18.863281 L 215.582031 18.863281 C 219.523438 18.863281 222.128906 20.664062 222.128906 24.15625 L 222.128906 24.230469 C 222.128906 27.410156 219.492188 29.589844 215.445312 29.589844 L 206.675781 29.589844 L 206.675781 40.699219 L 209.429688 40.699219 L 209.429688 32.089844 L 215.339844 32.089844 C 220.527344 32.089844 224.871094 29.367188 224.871094 24.117188 L 224.871094 24.042969 C 224.914062 19.242188 221.292969 16.320312 215.796875 16.320312 Z M 215.796875 16.320312 " fill-opacity="1" fill-rule="nonzero"/><path fill="#000000" d="M 232.71875 18.851562 L 240.90625 18.851562 L 240.90625 40.679688 L 243.691406 40.679688 L 243.691406 18.851562 L 251.867188 18.851562 L 251.867188 16.308594 L 232.71875 16.308594 Z M 232.71875 18.851562 " fill-opacity="1" fill-rule="nonzero"/><path fill="#000000" d="M 270.007812 16.140625 L 267.4375 16.140625 L 256.328125 40.691406 L 259.121094 40.691406 L 262.015625 34.25 L 275.304688 34.25 L 278.164062 40.691406 L 281.121094 40.691406 Z M 263.113281 31.773438 L 268.6875 19.382812 L 274.246094 31.773438 Z M 263.113281 31.773438 " fill-opacity="1" fill-rule="nonzero"/><path fill="#000000" d="M 298.914062 16.320312 L 290.441406 16.320312 L 290.441406 40.679688 L 298.914062 40.679688 C 306.570312 40.679688 311.863281 35.382812 311.863281 28.488281 L 311.863281 28.425781 C 311.863281 21.574219 306.570312 16.320312 298.914062 16.320312 Z M 309.015625 28.574219 C 309.015625 33.964844 305.074219 38.105469 298.914062 38.105469 L 293.203125 38.105469 L 293.203125 18.820312 L 298.914062 18.820312 C 305.074219 18.820312 309.015625 23.054688 309.015625 28.457031 Z M 309.015625 28.574219 " fill-opacity="1" fill-rule="nonzero"/><path fill="#000000" d="M 343.140625 28.5 L 343.140625 28.574219 C 343.140625 34.101562 339.167969 38.5625 333.609375 38.5625 C 328.046875 38.5625 324 34.039062 324 28.5 L 324 28.4375 C 324 22.898438 327.964844 18.4375 333.535156 18.4375 C 333.808594 18.4375 334.074219 18.4375 334.339844 18.4375 L 334.339844 15.886719 C 334.09375 15.886719 333.863281 15.886719 333.609375 15.886719 C 332.78125 15.878906 331.960938 15.953125 331.152344 16.109375 C 330.339844 16.265625 329.550781 16.5 328.785156 16.816406 C 328.023438 17.128906 327.296875 17.519531 326.609375 17.980469 C 325.925781 18.4375 325.289062 18.964844 324.707031 19.550781 C 324.128906 20.136719 323.609375 20.777344 323.15625 21.46875 C 322.703125 22.160156 322.324219 22.890625 322.019531 23.660156 C 321.710938 24.425781 321.484375 25.214844 321.339844 26.03125 C 321.191406 26.84375 321.125 27.664062 321.140625 28.488281 L 321.140625 28.5625 C 321.121094 29.386719 321.183594 30.203125 321.328125 31.015625 C 321.472656 31.828125 321.695312 32.617188 322 33.382812 C 322.304688 34.148438 322.679688 34.875 323.132812 35.566406 C 323.582031 36.253906 324.097656 36.890625 324.675781 37.476562 C 325.257812 38.0625 325.890625 38.585938 326.574219 39.042969 C 327.257812 39.5 327.984375 39.886719 328.746094 40.195312 C 329.507812 40.507812 330.296875 40.738281 331.105469 40.894531 C 331.914062 41.046875 332.730469 41.117188 333.554688 41.101562 C 334.382812 41.113281 335.199219 41.039062 336.011719 40.882812 C 336.824219 40.726562 337.613281 40.492188 338.378906 40.175781 C 339.140625 39.863281 339.867188 39.472656 340.554688 39.015625 C 341.242188 38.554688 341.875 38.03125 342.457031 37.441406 C 343.039062 36.855469 343.554688 36.214844 344.007812 35.523438 C 344.460938 34.832031 344.839844 34.101562 345.148438 33.332031 C 345.453125 32.566406 345.679688 31.773438 345.828125 30.960938 C 345.972656 30.148438 346.039062 29.328125 346.019531 28.5 L 346.019531 28.4375 C 346.019531 28.214844 346.019531 28.003906 346.019531 27.789062 L 343.085938 27.789062 C 343.085938 28.023438 343.140625 28.257812 343.140625 28.5 Z M 343.140625 28.5 " fill-opacity="1" fill-rule="nonzero"/></svg>