<svg width="19" height="18" viewBox="0 0 19 18" fill="none" xmlns="http://www.w3.org/2000/svg">
<path d="M9 9C8.71667 9 8.47917 8.90417 8.2875 8.7125C8.09583 8.52083 8 8.28333 8 8C8 7.71667 8.09583 7.47917 8.2875 7.2875C8.47917 7.09583 8.71667 7 9 7C9.28333 7 9.52083 7.09583 9.7125 7.2875C9.90417 7.47917 10 7.71667 10 8C10 8.28333 9.90417 8.52083 9.7125 8.7125C9.52083 8.90417 9.28333 9 9 9ZM9 3C8.71667 3 8.47917 2.90417 8.2875 2.7125C8.09583 2.52083 8 2.28333 8 2C8 1.71667 8.09583 1.47917 8.2875 1.2875C8.47917 1.09583 8.71667 1 9 1C9.28333 1 9.52083 1.09583 9.7125 1.2875C9.90417 1.47917 10 1.71667 10 2C10 2.28333 9.90417 2.52083 9.7125 2.7125C9.52083 2.90417 9.28333 3 9 3ZM11 6C10.7167 6 10.4792 5.90417 10.2875 5.7125C10.0958 5.52083 10 5.28333 10 5C10 4.71667 10.0958 4.47917 10.2875 4.2875C10.4792 4.09583 10.7167 4 11 4C11.2833 4 11.5208 4.09583 11.7125 4.2875C11.9042 4.47917 12 4.71667 12 5C12 5.28333 11.9042 5.52083 11.7125 5.7125C11.5208 5.90417 11.2833 6 11 6ZM12 9C11.7167 9 11.4792 8.90417 11.2875 8.7125C11.0958 8.52083 11 8.28333 11 8C11 7.71667 11.0958 7.47917 11.2875 7.2875C11.4792 7.09583 11.7167 7 12 7C12.2833 7 12.5208 7.09583 12.7125 7.2875C12.9042 7.47917 13 7.71667 13 8C13 8.28333 12.9042 8.52083 12.7125 8.7125C12.5208 8.90417 12.2833 9 12 9ZM12 3C11.7167 3 11.4792 2.90417 11.2875 2.7125C11.0958 2.52083 11 2.28333 11 2C11 1.71667 11.0958 1.47917 11.2875 1.2875C11.4792 1.09583 11.7167 1 12 1C12.2833 1 12.5208 1.09583 12.7125 1.2875C12.9042 1.47917 13 1.71667 13 2C13 2.28333 12.9042 2.52083 12.7125 2.7125C12.5208 2.90417 12.2833 3 12 3ZM14 6C13.7167 6 13.4792 5.90417 13.2875 5.7125C13.0958 5.52083 13 5.28333 13 5C13 4.71667 13.0958 4.47917 13.2875 4.2875C13.4792 4.09583 13.7167 4 14 4C14.2833 4 14.5208 4.09583 14.7125 4.2875C14.9042 4.47917 15 4.71667 15 5C15 5.28333 14.9042 5.52083 14.7125 5.7125C14.5208 5.90417 14.2833 6 14 6ZM15 9C14.7167 9 14.4792 8.90417 14.2875 8.7125C14.0958 8.52083 14 8.28333 14 8C14 7.71667 14.0958 7.47917 14.2875 7.2875C14.4792 7.09583 14.7167 7 15 7C15.2833 7 15.5208 7.09583 15.7125 7.2875C15.9042 7.47917 16 7.71667 16 8C16 8.28333 15.9042 8.52083 15.7125 8.7125C15.5208 8.90417 15.2833 9 15 9ZM15 3C14.7167 3 14.4792 2.90417 14.2875 2.7125C14.0958 2.52083 14 2.28333 14 2C14 1.71667 14.0958 1.47917 14.2875 1.2875C14.4792 1.09583 14.7167 1 15 1C15.2833 1 15.5208 1.09583 15.7125 1.2875C15.9042 1.47917 16 1.71667 16 2C16 2.28333 15.9042 2.52083 15.7125 2.7125C15.5208 2.90417 15.2833 3 15 3ZM17 6C16.7167 6 16.4792 5.90417 16.2875 5.7125C16.0958 5.52083 16 5.28333 16 5C16 4.71667 16.0958 4.47917 16.2875 4.2875C16.4792 4.09583 16.7167 4 17 4C17.2833 4 17.5208 4.09583 17.7125 4.2875C17.9042 4.47917 18 4.71667 18 5C18 5.28333 17.9042 5.52083 17.7125 5.7125C17.5208 5.90417 17.2833 6 17 6ZM18 9C17.7167 9 17.4792 8.90417 17.2875 8.7125C17.0958 8.52083 17 8.28333 17 8C17 7.71667 17.0958 7.47917 17.2875 7.2875C17.4792 7.09583 17.7167 7 18 7C18.2833 7 18.5208 7.09583 18.7125 7.2875C18.9042 7.47917 19 7.71667 19 8C19 8.28333 18.9042 8.52083 18.7125 8.7125C18.5208 8.90417 18.2833 9 18 9ZM18 3C17.7167 3 17.4792 2.90417 17.2875 2.7125C17.0958 2.52083 17 2.28333 17 2C17 1.71667 17.0958 1.47917 17.2875 1.2875C17.4792 1.09583 17.7167 1 18 1C18.2833 1 18.5208 1.09583 18.7125 1.2875C18.9042 1.47917 19 1.71667 19 2C19 2.28333 18.9042 2.52083 18.7125 2.7125C18.5208 2.90417 18.2833 3 18 3ZM16.95 18C14.8667 18 12.8083 17.5458 10.775 16.6375C8.74167 15.7292 6.89167 14.4417 5.225 12.775C3.55833 11.1083 2.27083 9.25833 1.3625 7.225C0.454167 5.19167 0 3.13333 0 1.05C0 0.75 0.1 0.5 0.3 0.3C0.5 0.1 0.75 0 1.05 0H5.1C5.33333 0 5.54167 0.0791667 5.725 0.2375C5.90833 0.395833 6.01667 0.583333 6.05 0.8L6.7 4.3C6.73333 4.56667 6.725 4.79167 6.675 4.975C6.625 5.15833 6.53333 5.31667 6.4 5.45L3.975 7.9C4.30833 8.51667 4.70417 9.1125 5.1625 9.6875C5.62083 10.2625 6.125 10.8167 6.675 11.35C7.19167 11.8667 7.73333 12.3458 8.3 12.7875C8.86667 13.2292 9.46667 13.6333 10.1 14L12.45 11.65C12.6 11.5 12.7958 11.3875 13.0375 11.3125C13.2792 11.2375 13.5167 11.2167 13.75 11.25L17.2 11.95C17.4333 12.0167 17.625 12.1375 17.775 12.3125C17.925 12.4875 18 12.6833 18 12.9V16.95C18 17.25 17.9 17.5 17.7 17.7C17.5 17.9 17.25 18 16.95 18ZM3.025 6L4.675 4.35L4.25 2H2.025C2.10833 2.68333 2.225 3.35833 2.375 4.025C2.525 4.69167 2.74167 5.35 3.025 6ZM11.975 14.95C12.625 15.2333 13.2875 15.4583 13.9625 15.625C14.6375 15.7917 15.3167 15.9 16 15.95V13.75L13.65 13.275L11.975 14.95Z" fill="#1C1B1F"/>
</svg>
