<svg xmlns="http://www.w3.org/2000/svg" id="Capa_1" data-name="Capa 1" viewBox="0 0 250 100"><defs><style>.cls-1,.cls-2{fill:#404040;}.cls-1{fill-rule:evenodd;}.cls-3{fill:none;}</style></defs><path class="cls-1" d="M-408.24,887V939.1h39.9v17.14l17.74-17.14h11.15V887Zm61.7,45h-54.61V902.8l27.31,12.37,27.3-12.37Z" transform="translate(408.24 -871.63)"></path><path class="cls-2" d="M-298.09,900.49l-.16,3.52a19.46,19.46,0,0,0-3.29-1,15,15,0,0,0-3.28-.35,11.33,11.33,0,0,0-8.34,3.06,11.19,11.19,0,0,0-3.08,8.28q0,5.28,3.07,8.29a11.49,11.49,0,0,0,8.39,3,17,17,0,0,0,3.29-.32,17.54,17.54,0,0,0,3.16-.94l.12,3.66a20.78,20.78,0,0,1-3.24.74,25,25,0,0,1-3.65.26q-7.17,0-11.3-3.89t-4.13-10.59q0-6.8,4.21-10.81c2.82-2.69,6.59-4,11.34-4a23.69,23.69,0,0,1,3.64.27A16.29,16.29,0,0,1-298.09,900.49Z" transform="translate(408.24 -871.63)"></path><path class="cls-2" d="M-293.77,897.2h3.9v13.7A7.63,7.63,0,0,1-287,908a8.46,8.46,0,0,1,4.15-1,6.55,6.55,0,0,1,5.4,2.25q1.84,2.26,1.84,6.61v12.74h-3.9V916.73a8.14,8.14,0,0,0-1.15-4.81,4.11,4.11,0,0,0-3.56-1.57,4.93,4.93,0,0,0-4.14,2,9,9,0,0,0-1.51,5.51v10.75h-3.9Z" transform="translate(408.24 -871.63)"></path><path class="cls-2" d="M-253.73,915.77v12.82h-3.6v-3.53a7.78,7.78,0,0,1-3,2.87,8.76,8.76,0,0,1-4.15,1,6.79,6.79,0,0,1-4.83-1.73,5.84,5.84,0,0,1-1.84-4.49,5.92,5.92,0,0,1,2.79-5.27q2.78-1.83,8-1.83h2.72v-.41a5.19,5.19,0,0,0-1.37-3.83,5.12,5.12,0,0,0-3.79-1.38,9.94,9.94,0,0,0-2.82.44,15.45,15.45,0,0,0-3,1.32l0-3.2a15.12,15.12,0,0,1,3.32-1.13,17.18,17.18,0,0,1,3.74-.38q3.91,0,5.89,2.19C-254.38,910.65-253.73,912.84-253.73,915.77Zm-6.34,2.4a10.47,10.47,0,0,0-5.34,1.11,3.48,3.48,0,0,0-1.85,3.18,3.44,3.44,0,0,0,1.05,2.59,3.75,3.75,0,0,0,2.73,1,5.55,5.55,0,0,0,4.26-1.73,6.53,6.53,0,0,0,1.6-4.61v-1.56Z" transform="translate(408.24 -871.63)"></path><path class="cls-2" d="M-241.85,901v6.52h5v3h-5v10.94a6.39,6.39,0,0,0,.72,3.5,2.64,2.64,0,0,0,2.35,1,4.33,4.33,0,0,0,.95-.11,8.55,8.55,0,0,0,1.19-.36l0,3.08a14.05,14.05,0,0,1-1.57.31,12.21,12.21,0,0,1-1.61.1c-2.14,0-3.66-.55-4.59-1.65s-1.38-2.95-1.38-5.53V910.47H-250v-3h4.37v-5.21Z" transform="translate(408.24 -871.63)"></path><path class="cls-2" d="M-232.18,899.44H-226l8.62,22.61a11.18,11.18,0,0,1,.48,1.75,16.72,16.72,0,0,1,.23,2c.1-.89.21-1.66.32-2.32A9,9,0,0,1-216,922l8.94-22.54h6.1v29.15h-4v-22.9c0-.71,0-1.44.08-2.19s.14-1.53.27-2.34c-.18.77-.37,1.49-.58,2.17s-.42,1.29-.65,1.85L-215,928.59h-3.61l-9.21-23.78c-.13-.35-.29-.84-.45-1.44s-.33-1.32-.51-2.13q.12,2,.18,3.12c0,.75.07,1.23.07,1.42v22.81h-3.62Z" transform="translate(408.24 -871.63)"></path><path class="cls-2" d="M-178.47,915.77v12.82h-3.61v-3.53a7.78,7.78,0,0,1-3,2.87,8.73,8.73,0,0,1-4.15,1,6.79,6.79,0,0,1-4.83-1.73,5.84,5.84,0,0,1-1.84-4.49,5.92,5.92,0,0,1,2.79-5.27q2.77-1.83,8-1.83h2.72v-.41a5.19,5.19,0,0,0-1.37-3.83,5.12,5.12,0,0,0-3.79-1.38,9.82,9.82,0,0,0-2.81.44,15.26,15.26,0,0,0-3,1.32l0-3.2a15.12,15.12,0,0,1,3.32-1.13,17.18,17.18,0,0,1,3.74-.38q3.92,0,5.89,2.19C-179.13,910.65-178.47,912.84-178.47,915.77Zm-6.35,2.4a10.49,10.49,0,0,0-5.34,1.11,3.48,3.48,0,0,0-1.85,3.18,3.44,3.44,0,0,0,1,2.59,3.75,3.75,0,0,0,2.73,1,5.55,5.55,0,0,0,4.26-1.73,6.48,6.48,0,0,0,1.6-4.61v-1.56Z" transform="translate(408.24 -871.63)"></path><path class="cls-2" d="M-172.39,907.5h3.9v21.09h-3.9Zm5.15-6.85a3.19,3.19,0,0,1-3.2,3.19,3.2,3.2,0,0,1-3.2-3.19,3.2,3.2,0,0,1,3.2-3.2A3.2,3.2,0,0,1-167.24,900.65Z" transform="translate(408.24 -871.63)"></path><path class="cls-2" d="M-162.13,897.2h3.89v31.39h-3.89Z" transform="translate(408.24 -871.63)"></path><rect class="cls-3" width="2" height="2"></rect><rect class="cls-3" y="98" width="2" height="2"></rect><rect class="cls-3" x="248" y="98" width="2" height="2"></rect><rect class="cls-3" x="248" width="2" height="2"></rect></svg>