<svg xmlns="http://www.w3.org/2000/svg" xmlns:xlink="http://www.w3.org/1999/xlink" id="Capa_1" data-name="Capa 1" viewBox="0 0 250 100"><defs><style>.cls-1{fill:none;}.cls-2{fill:url(#Degradado_sin_nombre_64);}.cls-3{fill:url(#Degradado_sin_nombre_64-2);}.cls-4{fill:url(#Degradado_sin_nombre_64-3);}.cls-5{fill:url(#Degradado_sin_nombre_64-4);}.cls-6{fill:url(#Degradado_sin_nombre_64-5);}.cls-7{fill:url(#Degradado_sin_nombre_64-6);}.cls-8{fill:url(#Degradado_sin_nombre_64-7);}.cls-9{fill:url(#Degradado_sin_nombre_64-8);}.cls-10{fill:url(#Degradado_sin_nombre_64-9);}.cls-11{opacity:0.43;}.cls-12{fill:#161514;}.cls-13{fill:url(#Degradado_sin_nombre_26);}.cls-14{fill:url(#Degradado_sin_nombre_26-2);}.cls-15{fill:url(#Degradado_sin_nombre_26-3);}.cls-16{fill:url(#Degradado_sin_nombre_64-10);}.cls-17{fill:url(#Degradado_sin_nombre_64-11);}.cls-18{fill:url(#Degradado_sin_nombre_64-12);}.cls-19{opacity:0.33;}.cls-20{fill:url(#Degradado_sin_nombre_64-13);}.cls-21{fill:url(#Degradado_sin_nombre_64-14);}.cls-22{fill:url(#Degradado_sin_nombre_64-15);}.cls-23{fill:url(#Degradado_sin_nombre_64-16);}</style><linearGradient id="Degradado_sin_nombre_64" x1="-1833.81" y1="1217.41" x2="-1816.53" y2="1200.12" gradientUnits="userSpaceOnUse"><stop offset="0" stop-color="#9b9a9a"></stop><stop offset="0.39" stop-color="#cecece"></stop><stop offset="0.66" stop-color="#fff"></stop><stop offset="1" stop-color="#919191"></stop></linearGradient><linearGradient id="Degradado_sin_nombre_64-2" x1="-1813.81" y1="1217.85" x2="-1795.56" y2="1199.59" xlink:href="#Degradado_sin_nombre_64"></linearGradient><linearGradient id="Degradado_sin_nombre_64-3" x1="-1792.92" y1="1217.27" x2="-1775.76" y2="1200.11" xlink:href="#Degradado_sin_nombre_64"></linearGradient><linearGradient id="Degradado_sin_nombre_64-4" x1="-1772.2" y1="1216.88" x2="-1753.91" y2="1198.59" xlink:href="#Degradado_sin_nombre_64"></linearGradient><linearGradient id="Degradado_sin_nombre_64-5" x1="-1750.92" y1="1218.48" x2="-1732.91" y2="1200.48" xlink:href="#Degradado_sin_nombre_64"></linearGradient><linearGradient id="Degradado_sin_nombre_64-6" x1="-1730.59" y1="1217.85" x2="-1712.33" y2="1199.59" xlink:href="#Degradado_sin_nombre_64"></linearGradient><linearGradient id="Degradado_sin_nombre_64-7" x1="-1704.99" y1="1219.2" x2="-1683.96" y2="1198.16" xlink:href="#Degradado_sin_nombre_64"></linearGradient><linearGradient id="Degradado_sin_nombre_64-8" x1="-1681.65" y1="1217.27" x2="-1664.39" y2="1200.01" xlink:href="#Degradado_sin_nombre_64"></linearGradient><linearGradient id="Degradado_sin_nombre_64-9" x1="-1657.16" y1="1219.2" x2="-1636.12" y2="1198.16" xlink:href="#Degradado_sin_nombre_64"></linearGradient><linearGradient id="Degradado_sin_nombre_26" x1="-1877.73" y1="1221.98" x2="-1846.53" y2="1190.78" gradientUnits="userSpaceOnUse"><stop offset="0" stop-color="#161514"></stop><stop offset="0.39" stop-color="#9e9d9e"></stop><stop offset="0.66" stop-color="#bcbcbc"></stop><stop offset="1" stop-color="#2e2e2e"></stop></linearGradient><linearGradient id="Degradado_sin_nombre_26-2" x1="-1873.2" y1="1199.97" x2="-1851.06" y2="1177.84" xlink:href="#Degradado_sin_nombre_26"></linearGradient><linearGradient id="Degradado_sin_nombre_26-3" x1="-1884.09" y1="1221.2" x2="-1840.18" y2="1177.29" xlink:href="#Degradado_sin_nombre_26"></linearGradient><linearGradient id="Degradado_sin_nombre_64-10" x1="-1879.22" y1="1220.49" x2="-1864.24" y2="1205.51" xlink:href="#Degradado_sin_nombre_64"></linearGradient><linearGradient id="Degradado_sin_nombre_64-11" x1="-1874.7" y1="1198.47" x2="-1868.79" y2="1192.56" xlink:href="#Degradado_sin_nombre_64"></linearGradient><linearGradient id="Degradado_sin_nombre_64-12" x1="-1885.16" y1="1220.13" x2="-1860.8" y2="1195.76" xlink:href="#Degradado_sin_nombre_64"></linearGradient><linearGradient id="Degradado_sin_nombre_64-13" x1="-1651.47" y1="1194.1" x2="-1641.8" y2="1184.43" xlink:href="#Degradado_sin_nombre_64"></linearGradient><linearGradient id="Degradado_sin_nombre_64-14" x1="-1650.11" y1="1185.74" x2="-1643.17" y2="1178.8" xlink:href="#Degradado_sin_nombre_64"></linearGradient><linearGradient id="Degradado_sin_nombre_64-15" x1="-1642.06" y1="1189.78" x2="-1638.14" y2="1185.85" xlink:href="#Degradado_sin_nombre_64"></linearGradient><linearGradient id="Degradado_sin_nombre_64-16" x1="-1655.13" y1="1189.78" x2="-1651.22" y2="1185.86" xlink:href="#Degradado_sin_nombre_64"></linearGradient></defs><rect class="cls-1" width="2" height="2"></rect><rect class="cls-1" y="98" width="2" height="2"></rect><rect class="cls-1" x="248" y="98" width="2" height="2"></rect><rect class="cls-1" x="248" width="2" height="2"></rect><path class="cls-2" d="M-1830.71,1199h11.25c2,0,3.67,1.14,3.67,3.16v1.38l-3.24.92v-2.57h-12.08v5.37h11.58c2,0,3.74,1.09,3.74,3.12v4.84c0,2-1.65,3.19-3.67,3.19H-1831c-2,0-3.67-1.15-3.67-3.19v-1.45l3.27-.92v2.67h12.38v-5.39h-11.65c-2,0-3.67-1.15-3.67-3.2v-4.77C-1834.38,1200.12-1832.76,1199-1830.71,1199Z" transform="translate(1885.31 -1158.68)"></path><path class="cls-3" d="M-1796.18,1201.87H-1810v5.44h8.16v2.85H-1810v5.34h14v2.89h-17.24V1199h17.09Z" transform="translate(1885.31 -1158.68)"></path><path class="cls-4" d="M-1778.28,1201.87h-12.11v13.63h12.11v-4.22l3.27.85v3.09c0,2-1.65,3.17-3.67,3.17H-1790c-2,0-3.67-1.12-3.67-3.17v-13.08c0-2,1.63-3.16,3.67-3.16h11.31c2,0,3.67,1.14,3.67,3.16v3.52l-3.27.75Z" transform="translate(1885.31 -1158.68)"></path><path class="cls-5" d="M-1769.28,1215.5h12.41V1199h3.34v16.22c0,2-1.7,3.19-3.74,3.19h-11.61c-2,0-3.69-1.15-3.69-3.19V1199h3.29Z" transform="translate(1885.31 -1158.68)"></path><path class="cls-6" d="M-1731.22,1218.39h-4.17l-7.73-7.76h-4.64v7.76H-1751V1199h14.8c2,0,3.67,1.14,3.67,3.16v5.3c0,2-1.62,3.19-3.67,3.19h-2.85Zm-5.51-16.52h-11v5.86h10.93c.69,0,1-.24,1-.82v-4.22C-1735.81,1202.14-1736,1201.87-1736.73,1201.87Z" transform="translate(1885.31 -1158.68)"></path><path class="cls-7" d="M-1712.95,1201.87h-13.83v5.44h8.16v2.85h-8.16v5.34h14v2.89H-1730V1199h17.1Z" transform="translate(1885.31 -1158.68)"></path><path class="cls-8" d="M-1702.51,1204.62v13.77h-3.29V1199h3.29l8,11.62,8.06-11.62h3.27v19.41h-3.27v-13.77l-8.09,11.57Z" transform="translate(1885.31 -1158.68)"></path><path class="cls-9" d="M-1680.53,1199h9.54c7.31,0,10.88,3.81,10.88,9.53s-3.52,9.86-10.56,9.88h-9.86Zm17.45,9.58c-.08-3.74-1.77-6.69-6.91-6.69h-7.22v13.63h7.47C-1665,1215.5-1663,1212.33-1663.08,1208.56Z" transform="translate(1885.31 -1158.68)"></path><path class="cls-10" d="M-1654.67,1204.62v13.77h-3.3V1199h3.3l8,11.62,8.06-11.62h3.27v19.41h-3.27v-13.77l-8.08,11.57Z" transform="translate(1885.31 -1158.68)"></path><g class="cls-11"><path class="cls-12" d="M-1830.71,1199h11.25c2,0,3.67,1.14,3.67,3.16v1.38l-3.24.92v-2.57h-12.08v5.37h11.58c2,0,3.74,1.09,3.74,3.12v4.84c0,2-1.65,3.19-3.67,3.19H-1831c-2,0-3.67-1.15-3.67-3.19v-1.45l3.27-.92v2.67h12.38v-5.39h-11.65c-2,0-3.67-1.15-3.67-3.2v-4.77C-1834.38,1200.12-1832.76,1199-1830.71,1199Z" transform="translate(1885.31 -1158.68)"></path><path class="cls-12" d="M-1796.18,1201.87H-1810v5.44h8.16v2.85H-1810v5.34h14v2.89h-17.24V1199h17.09Z" transform="translate(1885.31 -1158.68)"></path><path class="cls-12" d="M-1778.28,1201.87h-12.11v13.63h12.11v-4.22l3.27.85v3.09c0,2-1.65,3.17-3.67,3.17H-1790c-2,0-3.67-1.12-3.67-3.17v-13.08c0-2,1.63-3.16,3.67-3.16h11.31c2,0,3.67,1.14,3.67,3.16v3.52l-3.27.75Z" transform="translate(1885.31 -1158.68)"></path><path class="cls-12" d="M-1769.28,1215.5h12.41V1199h3.34v16.22c0,2-1.7,3.19-3.74,3.19h-11.61c-2,0-3.69-1.15-3.69-3.19V1199h3.29Z" transform="translate(1885.31 -1158.68)"></path><path class="cls-12" d="M-1731.22,1218.39h-4.17l-7.73-7.76h-4.64v7.76H-1751V1199h14.8c2,0,3.67,1.14,3.67,3.16v5.3c0,2-1.62,3.19-3.67,3.19h-2.85Zm-5.51-16.52h-11v5.86h10.93c.69,0,1-.24,1-.82v-4.22C-1735.81,1202.14-1736,1201.87-1736.73,1201.87Z" transform="translate(1885.31 -1158.68)"></path><path class="cls-12" d="M-1712.95,1201.87h-13.83v5.44h8.16v2.85h-8.16v5.34h14v2.89H-1730V1199h17.1Z" transform="translate(1885.31 -1158.68)"></path><path class="cls-12" d="M-1702.51,1204.62v13.77h-3.29V1199h3.29l8,11.62,8.06-11.62h3.27v19.41h-3.27v-13.77l-8.09,11.57Z" transform="translate(1885.31 -1158.68)"></path><path class="cls-12" d="M-1680.53,1199h9.54c7.31,0,10.88,3.81,10.88,9.53s-3.52,9.86-10.56,9.88h-9.86Zm17.45,9.58c-.08-3.74-1.77-6.69-6.91-6.69h-7.22v13.63h7.47C-1665,1215.5-1663,1212.33-1663.08,1208.56Z" transform="translate(1885.31 -1158.68)"></path><path class="cls-12" d="M-1654.67,1204.62v13.77h-3.3V1199h3.3l8,11.62,8.06-11.62h3.27v19.41h-3.27v-13.77l-8.08,11.57Z" transform="translate(1885.31 -1158.68)"></path></g><path class="cls-13" d="M-1862.13,1207.62l-19.23-13.22V1199c0,8.13,1.48,15.26,4.4,21.22a32.89,32.89,0,0,0,6.5,9.07,26.26,26.26,0,0,0,6.2,4.52v-5.59a24.68,24.68,0,0,1-2.86-2.37,27.88,27.88,0,0,1-5.54-7.74,40.34,40.34,0,0,1-3.72-14.42l10,6.88h0l4.23,2.91h0l4.24-2.91h0l10-6.88a40.13,40.13,0,0,1-3.72,14.42,27.88,27.88,0,0,1-5.54,7.74l-.19.18v-13.26l-.2.13h0l-4.6,3.17v15.7h0v2.94l.83-.31a23.71,23.71,0,0,0,7.5-5.11,32.48,32.48,0,0,0,6.5-9.07c2.92-6,4.4-13.09,4.4-21.22v-4.56Z" transform="translate(1885.31 -1158.68)"></path><path class="cls-14" d="M-1862.13,1199.21l-19.23-13.21v4.55c0,.43,0,.85,0,1.27l5,3.42h0l10,6.88h0l4.24,2.91h0l4.23-2.91h0l4.6-3.15,10.38-7.15c0-.42,0-.84,0-1.27V1186Z" transform="translate(1885.31 -1158.68)"></path><path class="cls-15" d="M-1862.13,1238.86l-2.18-.8a27.41,27.41,0,0,1-8.9-6,36.29,36.29,0,0,1-7.29-10.16c-3.19-6.49-4.8-14.22-4.8-23V1178.5l23.17,15.93,23.17-15.93v8.41h0v12c0,8.73-1.61,16.46-4.8,23a36.29,36.29,0,0,1-7.29,10.16,27.41,27.41,0,0,1-8.9,6Zm-20.94-56.1v7.79c0,.18,0,.36,0,.54V1199c0,8.39,1.53,15.78,4.57,22a34.3,34.3,0,0,0,6.84,9.54,24.91,24.91,0,0,0,8.11,5.49l1.41.52,1.41-.52a24.81,24.81,0,0,0,8.11-5.49,34.3,34.3,0,0,0,6.84-9.54c3-6.19,4.57-13.58,4.57-22v-16.2l-20.93,14.39Z" transform="translate(1885.31 -1158.68)"></path><path class="cls-16" d="M-1862.13,1207.62h0l-19.23-13.22V1199c0,8.13,1.48,15.26,4.4,21.22a32.48,32.48,0,0,0,6.5,9.07,26.06,26.06,0,0,0,6.2,4.52v-5.59a23.11,23.11,0,0,1-2.86-2.37,27.88,27.88,0,0,1-5.54-7.74,40.13,40.13,0,0,1-3.72-14.42l10,6.88h0l4.24,2.91h0Z" transform="translate(1885.31 -1158.68)"></path><path class="cls-17" d="M-1862.13,1199.21h0l-19.23-13.21v4.55c0,.43,0,.85,0,1.27l5,3.42h0l10,6.88h0l4.23,2.91h0Z" transform="translate(1885.31 -1158.68)"></path><path class="cls-18" d="M-1862.13,1236.48h0l-1.41-.52a24.7,24.7,0,0,1-8.11-5.49,34.33,34.33,0,0,1-6.85-9.54c-3-6.19-4.57-13.58-4.57-22v-16.2l20.93,14.39h0v-2.71h0l-23.17-15.93v12c0,.18,0,.37,0,.55V1199c0,8.73,1.61,16.46,4.79,23a36.32,36.32,0,0,0,7.3,10.16,27.41,27.41,0,0,0,8.9,6l2.18.8h0Z" transform="translate(1885.31 -1158.68)"></path><g class="cls-19"><path class="cls-12" d="M-1862.13,1207.62l-19.23-13.22V1199c0,8.13,1.48,15.26,4.4,21.22a32.89,32.89,0,0,0,6.5,9.07,26.26,26.26,0,0,0,6.2,4.52v-5.59a24.68,24.68,0,0,1-2.86-2.37,27.88,27.88,0,0,1-5.54-7.74,40.34,40.34,0,0,1-3.72-14.42l10,6.88h0l4.23,2.91h0l4.24-2.91h0l10-6.88a40.13,40.13,0,0,1-3.72,14.42,27.88,27.88,0,0,1-5.54,7.74l-.19.18v-13.26l-.2.13h0l-4.6,3.17v15.7h0v2.94l.83-.31a23.71,23.71,0,0,0,7.5-5.11,32.48,32.48,0,0,0,6.5-9.07c2.92-6,4.4-13.09,4.4-21.22v-4.56Z" transform="translate(1885.31 -1158.68)"></path><path class="cls-12" d="M-1862.13,1199.21l-19.23-13.21v4.55c0,.43,0,.85,0,1.27l5,3.42h0l10,6.88h0l4.24,2.91h0l4.23-2.91h0l4.6-3.15,10.38-7.15c0-.42,0-.84,0-1.27V1186Z" transform="translate(1885.31 -1158.68)"></path><path class="cls-12" d="M-1862.13,1238.86l-2.18-.8a27.41,27.41,0,0,1-8.9-6,36.29,36.29,0,0,1-7.29-10.16c-3.19-6.49-4.8-14.22-4.8-23V1178.5l23.17,15.93,23.17-15.93v8.41h0v12c0,8.73-1.61,16.46-4.8,23a36.29,36.29,0,0,1-7.29,10.16,27.41,27.41,0,0,1-8.9,6Zm-20.94-56.1v7.79c0,.18,0,.36,0,.54V1199c0,8.39,1.53,15.78,4.57,22a34.3,34.3,0,0,0,6.84,9.54,24.91,24.91,0,0,0,8.11,5.49l1.41.52,1.41-.52a24.81,24.81,0,0,0,8.11-5.49,34.3,34.3,0,0,0,6.84-9.54c3-6.19,4.57-13.58,4.57-22v-16.2l-20.93,14.39Z" transform="translate(1885.31 -1158.68)"></path><path class="cls-12" d="M-1862.13,1207.62h0l-19.23-13.22V1199c0,8.13,1.48,15.26,4.4,21.22a32.48,32.48,0,0,0,6.5,9.07,26.06,26.06,0,0,0,6.2,4.52v-5.59a23.11,23.11,0,0,1-2.86-2.37,27.88,27.88,0,0,1-5.54-7.74,40.13,40.13,0,0,1-3.72-14.42l10,6.88h0l4.24,2.91h0Z" transform="translate(1885.31 -1158.68)"></path><path class="cls-12" d="M-1862.13,1199.21h0l-19.23-13.21v4.55c0,.43,0,.85,0,1.27l5,3.42h0l10,6.88h0l4.23,2.91h0Z" transform="translate(1885.31 -1158.68)"></path><path class="cls-12" d="M-1862.13,1236.48h0l-1.41-.52a24.7,24.7,0,0,1-8.11-5.49,34.33,34.33,0,0,1-6.85-9.54c-3-6.19-4.57-13.58-4.57-22v-16.2l20.93,14.39h0v-2.71h0l-23.17-15.93v12c0,.18,0,.37,0,.55V1199c0,8.73,1.61,16.46,4.79,23a36.32,36.32,0,0,0,7.3,10.16,27.41,27.41,0,0,0,8.9,6l2.18.8h0Z" transform="translate(1885.31 -1158.68)"></path></g><path class="cls-20" d="M-1648.72,1196.6a1.31,1.31,0,0,1-.63-.4,1,1,0,0,1-.26-.64c0-.77,0-1.54,0-2.31V1193h-.74a1.19,1.19,0,0,1-1.23-.93,1.76,1.76,0,0,1,0-.33v-7s0-.09,0-.15h10a1.15,1.15,0,0,1,0,.18c0,2.32,0,4.64,0,7a1.21,1.21,0,0,1-.93,1.26,6.78,6.78,0,0,1-.79,0h-.28v.21c0,.65,0,1.3,0,1.94a1.26,1.26,0,0,1-.91,1.44h-.42a1.23,1.23,0,0,1-.92-1.41c0-.66,0-1.32,0-2a1.28,1.28,0,0,0,0-.19h-1.48v2.38a1.12,1.12,0,0,1-.48,1,3,3,0,0,1-.44.21Z" transform="translate(1885.31 -1158.68)"></path><path class="cls-21" d="M-1644.45,1180l.71-1.29.06-.12c0-.09.12-.14.22-.09s.1.15,0,.24a.54.54,0,0,1-.07.13c-.22.42-.45.84-.68,1.26a4.6,4.6,0,0,1,2.56,4h-10.08a4.59,4.59,0,0,1,2.57-4l-.69-1.27c0-.05-.07-.09-.07-.14a.8.8,0,0,1,0-.21.73.73,0,0,1,.21.06s0,.09.08.13l.71,1.3A5.53,5.53,0,0,1-1644.45,1180Zm-4.49,2.34a.44.44,0,0,0,.43-.41.43.43,0,0,0-.42-.43.41.41,0,0,0-.41.41A.43.43,0,0,0-1648.94,1182.36Zm4.6,0a.43.43,0,0,0,.41-.43.41.41,0,0,0-.41-.41.43.43,0,0,0-.42.43A.43.43,0,0,0-1644.34,1182.36Z" transform="translate(1885.31 -1158.68)"></path><path class="cls-22" d="M-1641.2,1187.8c0-.81,0-1.63,0-2.44a1.06,1.06,0,0,1,1.07-1,1.09,1.09,0,0,1,1.13,1c0,.12,0,.24,0,.36,0,1.45,0,2.91,0,4.36a1.14,1.14,0,0,1-.61,1.1,1.09,1.09,0,0,1-1.61-.89c0-.81,0-1.63,0-2.45Z" transform="translate(1885.31 -1158.68)"></path><path class="cls-23" d="M-1652.08,1187.82c0,.82,0,1.64,0,2.45a1.07,1.07,0,0,1-1.07,1,1.1,1.1,0,0,1-1.13-1c0-.12,0-.25,0-.37v-4.35a1.13,1.13,0,0,1,.6-1.09,1.09,1.09,0,0,1,1.62.88c0,.81,0,1.62,0,2.44Z" transform="translate(1885.31 -1158.68)"></path><g class="cls-11"><path d="M-1648.72,1196.6a1.31,1.31,0,0,1-.63-.4,1,1,0,0,1-.26-.64c0-.77,0-1.54,0-2.31V1193h-.74a1.19,1.19,0,0,1-1.23-.93,1.76,1.76,0,0,1,0-.33v-7s0-.09,0-.15h10a1.15,1.15,0,0,1,0,.18c0,2.32,0,4.64,0,7a1.21,1.21,0,0,1-.93,1.26,6.78,6.78,0,0,1-.79,0h-.28v.21c0,.65,0,1.3,0,1.94a1.26,1.26,0,0,1-.91,1.44h-.42a1.23,1.23,0,0,1-.92-1.41c0-.66,0-1.32,0-2a1.28,1.28,0,0,0,0-.19h-1.48v2.38a1.12,1.12,0,0,1-.48,1,3,3,0,0,1-.44.21Z" transform="translate(1885.31 -1158.68)"></path><path d="M-1644.45,1180l.71-1.29.06-.12c0-.09.12-.14.22-.09s.1.15,0,.24a.54.54,0,0,1-.07.13c-.22.42-.45.84-.68,1.26a4.6,4.6,0,0,1,2.56,4h-10.08a4.59,4.59,0,0,1,2.57-4l-.69-1.27c0-.05-.07-.09-.07-.14a.8.8,0,0,1,0-.21.73.73,0,0,1,.21.06s0,.09.08.13l.71,1.3A5.53,5.53,0,0,1-1644.45,1180Zm-4.49,2.34a.44.44,0,0,0,.43-.41.43.43,0,0,0-.42-.43.41.41,0,0,0-.41.41A.43.43,0,0,0-1648.94,1182.36Zm4.6,0a.43.43,0,0,0,.41-.43.41.41,0,0,0-.41-.41.43.43,0,0,0-.42.43A.43.43,0,0,0-1644.34,1182.36Z" transform="translate(1885.31 -1158.68)"></path><path d="M-1641.2,1187.8c0-.81,0-1.63,0-2.44a1.06,1.06,0,0,1,1.07-1,1.09,1.09,0,0,1,1.13,1c0,.12,0,.24,0,.36,0,1.45,0,2.91,0,4.36a1.14,1.14,0,0,1-.61,1.1,1.09,1.09,0,0,1-1.61-.89c0-.81,0-1.63,0-2.45Z" transform="translate(1885.31 -1158.68)"></path><path d="M-1652.08,1187.82c0,.82,0,1.64,0,2.45a1.07,1.07,0,0,1-1.07,1,1.1,1.1,0,0,1-1.13-1c0-.12,0-.25,0-.37v-4.35a1.13,1.13,0,0,1,.6-1.09,1.09,1.09,0,0,1,1.62.88c0,.81,0,1.62,0,2.44Z" transform="translate(1885.31 -1158.68)"></path></g></svg>